<svg xmlns="http://www.w3.org/2000/svg" width="180" height="180" viewBox="0 0 180 180" fill="none"><metadata><rdf:RDF xmlns:rdf="http://www.w3.org/1999/02/22-rdf-syntax-ns#" xmlns:dc="http://purl.org/dc/elements/1.1/"><rdf:Description><dc:creator>RealFaviconGenerator</dc:creator><dc:source>https://realfavicongenerator.net</dc:source></rdf:Description></rdf:RDF></metadata><path fill-rule="evenodd" clip-rule="evenodd" d="M90.4089 45L0 138.245L180 138.3L90.4089 45Z" fill="#2B519D"></path><path fill-rule="evenodd" clip-rule="evenodd" d="M135.21 91.6587L57.7148 91.6205L55.3354 95.0708L138.532 95.117L135.21 91.6587Z" fill="#FEFEFE"></path><path fill-rule="evenodd" clip-rule="evenodd" d="M76.4266 65.1362L109.729 65.1243L117.407 73.1192L70.7905 73.0627L76.4266 65.1362Z" fill="#FEFEFE"></path><path fill-rule="evenodd" clip-rule="evenodd" d="M42.0207 113.93L40.9697 115.434L158.082 115.476L156.605 113.938L42.0207 113.93Z" fill="#FEFEFE"></path><path fill-rule="evenodd" clip-rule="evenodd" d="M47.7627 105.873L46.2729 107.97L150.878 107.971L148.875 105.884L47.7627 105.873Z" fill="#FEFEFE"></path><path fill-rule="evenodd" clip-rule="evenodd" d="M50.8599 101.466L144.639 101.478L142.414 99.1599L52.6037 98.9919L50.8599 101.466Z" fill="#FEFEFE"></path><path fill-rule="evenodd" clip-rule="evenodd" d="M63.1706 83.9831L60.189 88.2116L131.901 88.214L127.856 84.0006L63.1706 83.9831Z" fill="#FEFEFE"></path><path fill-rule="evenodd" clip-rule="evenodd" d="M69.2101 75.4044L65.2339 81.0371L124.999 81.0219L119.627 75.4283L69.2101 75.4044Z" fill="#FEFEFE"></path><path fill-rule="evenodd" clip-rule="evenodd" d="M90.6482 45.2476L77.4331 63.7647L108.43 63.7655L90.6482 45.2476Z" fill="#FEFEFE"></path><path d="M158.793 120.225C159.965 120.225 161.109 120.443 162.225 120.878C163.342 121.309 164.21 121.929 164.833 122.738C165.456 123.543 165.767 124.382 165.767 125.258C165.767 126.124 165.459 126.958 164.842 127.758C164.232 128.557 163.371 129.18 162.262 129.624C161.158 130.064 160.002 130.284 158.793 130.284C157.585 130.284 156.426 130.064 155.315 129.624C154.212 129.18 153.351 128.557 152.735 127.758C152.118 126.958 151.81 126.124 151.81 125.258C151.81 124.382 152.121 123.543 152.744 122.738C153.373 121.929 154.245 121.309 155.361 120.878C156.478 120.443 157.621 120.225 158.793 120.225ZM158.793 121.058C157.813 121.058 156.857 121.24 155.926 121.605C155.001 121.965 154.276 122.483 153.752 123.158C153.229 123.829 152.967 124.529 152.967 125.258C152.967 125.983 153.222 126.678 153.734 127.344C154.252 128.006 154.974 128.524 155.899 128.898C156.824 129.266 157.788 129.451 158.793 129.451C159.798 129.451 160.763 129.266 161.688 128.898C162.613 128.524 163.332 128.006 163.843 127.344C164.355 126.678 164.611 125.983 164.611 125.258C164.611 124.529 164.349 123.829 163.826 123.158C163.307 122.483 162.582 121.965 161.652 121.605C160.72 121.24 159.768 121.058 158.793 121.058ZM155.732 128.037V122.625H158.312C159.194 122.625 159.833 122.676 160.227 122.778C160.622 122.876 160.936 123.049 161.17 123.298C161.405 123.547 161.522 123.811 161.522 124.091C161.522 124.487 161.325 124.832 160.93 125.125C160.541 125.418 160.024 125.583 159.376 125.618C159.642 125.698 159.854 125.794 160.014 125.904C160.317 126.118 160.686 126.476 161.125 126.978L162.04 128.037H160.56L159.894 127.184C159.37 126.514 158.948 126.093 158.627 125.924C158.405 125.8 158.081 125.738 157.656 125.738H156.944V128.037H155.732ZM156.944 124.991H158.414C159.117 124.991 159.595 124.916 159.848 124.765C160.107 124.614 160.236 124.414 160.236 124.165C160.236 124.005 160.174 123.862 160.052 123.738C159.928 123.609 159.755 123.514 159.533 123.451C159.318 123.389 158.913 123.358 158.322 123.358H156.944V124.991Z" fill="#FEFEFE"></path><path fill-rule="evenodd" clip-rule="evenodd" d="M114.336 125.806C114.336 122.735 117.487 120.605 119.623 120.551H147.609V122.699H123.095C121.314 122.558 119.854 123.889 119.623 124.777H147.609V126.871H119.623C119.731 127.936 121.314 129.179 123.095 128.966H147.609V131.061H119.623C117.381 131.133 114.336 129.038 114.336 125.806Z" fill="#FEFEFE"></path><path d="M67.5857 120.641H62.7607V131.151H67.5857V120.641Z" fill="#FEFEFE"></path><path fill-rule="evenodd" clip-rule="evenodd" d="M80.8161 126.943C73.7488 126.943 73.7488 120.623 80.8161 120.623H108.802V122.771H84.2872C80.8161 122.771 80.8161 124.848 84.2872 124.848H103.55C110.671 124.848 110.671 131.133 103.55 131.133H75.5292V129.039H100.025C103.551 129.039 103.551 126.944 100.025 126.944L80.8161 126.943Z" fill="#FEFEFE"></path><path fill-rule="evenodd" clip-rule="evenodd" d="M26.375 123.669H21.5146V120.654H28.2935H37.2936H47.969H49.5007L49.9207 120.662L50.2423 120.679L50.4699 120.696L50.7219 120.723L50.9451 120.751L51.143 120.782L51.3673 120.823L51.6347 120.88L51.8889 120.944L52.1707 121.028L52.4868 121.138L52.7078 121.228L52.9841 121.356L53.2858 121.521L53.4924 121.653L53.7113 121.813L54.0085 122.073L54.2495 122.338L54.4804 122.672L54.644 123.006L54.7479 123.341L48.3426 123.341L48.1569 123.21L47.9248 123.102L47.5414 122.973L47.1833 122.894L46.8474 122.845L46.4418 122.813L46.1102 122.802H43.2966H36.7421H26.375V123.669Z" fill="#FEFEFE"></path><path fill-rule="evenodd" clip-rule="evenodd" d="M26.3706 123.663H21.5103V126.132V131.159H26.3706V126.969H28.8858H37.1864H40.7725L49.4964 131.159H54.7833L46.0252 126.969H49.4964L49.8843 126.962L50.2721 126.942L50.7109 126.901L51.08 126.85L51.4215 126.788L51.7773 126.707L52.1232 126.609L52.4813 126.485L52.8007 126.352L53.1444 126.181L53.5323 125.94L53.8826 125.664L54.2462 125.283L54.4749 124.954L54.6473 124.598L54.7556 124.225L54.7954 123.905L54.7965 123.606L54.7435 123.336L48.3393 123.335L48.504 123.501L48.5824 123.6L48.6145 123.722L48.6266 123.876L48.5736 124.059L48.4686 124.221L48.2741 124.384L48.126 124.486L47.8995 124.582L47.4883 124.715L47.1115 124.793L46.6783 124.847L46.0252 124.874H26.3706V123.663Z" fill="#FEFEFE"></path></svg>