<svg xmlns="http://www.w3.org/2000/svg"><symbol id="_personal-section-basket-icon" viewBox="0 0 26 26"><path d="M7.53833 25.7437C6.89056 25.7437 6.33978 25.5167 5.886 25.0627C5.43222 24.6089 5.20533 24.0581 5.20533 23.4103C5.20533 22.7623 5.43222 22.2114 5.886 21.7577C6.33978 21.3039 6.89056 21.077 7.53833 21.077C8.18633 21.077 8.73722 21.3039 9.191 21.7577C9.64478 22.2114 9.87167 22.7623 9.87167 23.4103C9.87167 24.0581 9.64478 24.6089 9.191 25.0627C8.73722 25.5167 8.18633 25.7437 7.53833 25.7437ZM20.4617 25.7437C19.8137 25.7437 19.2628 25.5167 18.809 25.0627C18.3552 24.6089 18.1283 24.0581 18.1283 23.4103C18.1283 22.7623 18.3552 22.2114 18.809 21.7577C19.2628 21.3039 19.8137 21.077 20.4617 21.077C21.1094 21.077 21.6602 21.3039 22.114 21.7577C22.5678 22.2114 22.7947 22.7623 22.7947 23.4103C22.7947 24.0581 22.5678 24.6089 22.114 25.0627C21.6602 25.5167 21.1094 25.7437 20.4617 25.7437ZM6.02033 4.66667L9.4 11.7437H18.4897C18.5666 11.7437 18.635 11.7244 18.695 11.686C18.7548 11.6476 18.806 11.5941 18.8487 11.5257L22.4257 5.02567C22.477 4.93167 22.4812 4.84833 22.4383 4.77567C22.3957 4.703 22.323 4.66667 22.2203 4.66667H6.02033ZM5.06167 2.66667H23.5743C24.1197 2.66667 24.532 2.89878 24.8113 3.363C25.0909 3.827 25.1042 4.30089 24.8513 4.78467L20.5793 12.523C20.3607 12.9077 20.0714 13.2072 19.7117 13.4217C19.3517 13.6363 18.9572 13.7437 18.5283 13.7437H8.8L7.25633 16.564C7.18789 16.6667 7.18578 16.7778 7.25 16.8973C7.314 17.0171 7.41011 17.077 7.53833 17.077H22.7947V19.077H7.53833C6.64944 19.077 5.98156 18.6937 5.53467 17.927C5.08756 17.1603 5.07178 16.3949 5.48733 15.6307L7.38967 12.2103L2.53867 2H0V0H3.795L5.06167 2.66667Z"></path></symbol><symbol id="_personal-section-envelope-icon" viewBox="0 0 60 60"><path d="M30 50.8169L27.2406 48.3362C23.0965 44.5767 19.6694 41.346 16.9594 38.6444C14.2494 35.9423 12.1019 33.5375 10.5169 31.43C8.93187 29.3229 7.82458 27.4006 7.195 25.6631C6.565 23.926 6.25 22.1633 6.25 20.375C6.25 16.8271 7.44625 13.8567 9.83875 11.4637C12.2317 9.07125 15.2021 7.875 18.75 7.875C20.9325 7.875 22.995 8.38542 24.9375 9.40625C26.88 10.4271 28.5675 11.891 30 13.7981C31.4325 11.891 33.12 10.4271 35.0625 9.40625C37.005 8.38542 39.0675 7.875 41.25 7.875C44.7979 7.875 47.7683 9.07125 50.1612 11.4637C52.5537 13.8567 53.75 16.8271 53.75 20.375C53.75 22.1633 53.435 23.926 52.805 25.6631C52.1754 27.4006 51.0681 29.3229 49.4831 31.43C47.8981 33.5375 45.7546 35.9423 43.0525 38.6444C40.3508 41.346 36.9198 44.5767 32.7594 48.3362L30 50.8169ZM30 45.75C34 42.1508 37.2917 39.0658 39.875 36.495C42.4583 33.9246 44.5 31.6915 46 29.7956C47.5 27.8998 48.5417 26.2162 49.125 24.745C49.7083 23.2742 50 21.8175 50 20.375C50 17.875 49.1667 15.7917 47.5 14.125C45.8333 12.4583 43.75 11.625 41.25 11.625C39.2758 11.625 37.4512 12.185 35.7762 13.305C34.1017 14.4254 32.7756 15.984 31.7981 17.9806H28.2019C27.2081 15.9677 25.8779 14.4052 24.2112 13.2931C22.5446 12.181 20.7242 11.625 18.75 11.625C16.2658 11.625 14.1865 12.4583 12.5119 14.125C10.8373 15.7917 10 17.875 10 20.375C10 21.8175 10.2917 23.2742 10.875 24.745C11.4583 26.2162 12.5 27.8998 14 29.7956C15.5 31.6915 17.5417 33.9206 20.125 36.4831C22.7083 39.0456 26 42.1346 30 45.75Z"></path></symbol><symbol id="_personal-section-history-icon" viewBox="0 0 60 60"><path d="M29.9519 51.25C24.9264 51.25 20.4971 49.7163 16.6637 46.6488C12.8304 43.5817 10.3735 39.6571 9.2931 34.875C9.15852 34.3783 9.23956 33.9217 9.53623 33.505C9.83248 33.0883 10.2548 32.8462 10.8031 32.7787C11.3094 32.7117 11.7652 32.8127 12.1706 33.0819C12.576 33.351 12.8589 33.7469 13.0194 34.2694C13.971 38.1315 16.0214 41.3021 19.1706 43.7812C22.3198 46.2604 25.9135 47.5 29.9519 47.5C34.8269 47.5 38.9623 45.8021 42.3581 42.4062C45.7539 39.0104 47.4519 34.875 47.4519 30C47.4519 25.125 45.7539 20.9896 42.3581 17.5938C38.9623 14.1979 34.8269 12.5 29.9519 12.5C27.221 12.5 24.6619 13.1067 22.2744 14.32C19.8864 15.5329 17.8302 17.2019 16.1056 19.3269H20.7694C21.3014 19.3269 21.7469 19.5065 22.1056 19.8656C22.4648 20.2244 22.6444 20.6698 22.6444 21.2019C22.6444 21.734 22.4648 22.1794 22.1056 22.5381C21.7469 22.8973 21.3014 23.0769 20.7694 23.0769H12.2119C11.5677 23.0769 11.03 22.8612 10.5987 22.43C10.1675 21.9992 9.95185 21.4615 9.95185 20.8169V12.2594C9.95185 11.7273 10.1314 11.2819 10.4906 10.9231C10.8494 10.564 11.2948 10.3844 11.8269 10.3844C12.3589 10.3844 12.8046 10.564 13.1637 10.9231C13.5225 11.2819 13.7019 11.7273 13.7019 12.2594V16.3075C15.7306 13.9133 18.1602 12.0552 20.9906 10.7331C23.8206 9.41104 26.8077 8.75 29.9519 8.75C32.9006 8.75 35.6635 9.30771 38.2406 10.4231C40.8173 11.5385 43.0639 13.0546 44.9806 14.9712C46.8973 16.8879 48.4133 19.1348 49.5287 21.7119C50.6441 24.2885 51.2019 27.0513 51.2019 30C51.2019 32.9487 50.6441 35.7115 49.5287 38.2881C48.4133 40.8652 46.8973 43.1121 44.9806 45.0288C43.0639 46.9454 40.8173 48.4615 38.2406 49.5769C35.6635 50.6923 32.9006 51.25 29.9519 51.25ZM31.8987 29.2406L38.7737 36.1156C39.12 36.4615 39.2971 36.8965 39.305 37.4206C39.3133 37.9448 39.1362 38.3879 38.7737 38.75C38.4116 39.1121 37.9727 39.2931 37.4569 39.2931C36.9406 39.2931 36.5014 39.1121 36.1394 38.75L28.8269 31.4375C28.5931 31.2033 28.4216 30.9502 28.3125 30.6781C28.2037 30.4056 28.1494 30.1187 28.1494 29.8175V19.375C28.1494 18.8429 28.3287 18.3975 28.6875 18.0387C29.0466 17.6796 29.4921 17.5 30.0237 17.5C30.5558 17.5 31.0014 17.6796 31.3606 18.0387C31.7194 18.3975 31.8987 18.8429 31.8987 19.375V29.2406Z"></path></symbol><symbol id="_personal-section-offer-icon" viewBox="0 0 60 60"><path d="M43.3075 45.8894L41.9569 44.5388C41.6619 44.2438 41.31 44.0963 40.9012 44.0963C40.4929 44.0963 40.1412 44.2438 39.8462 44.5388C39.5512 44.8333 39.4038 45.1785 39.4038 45.5744C39.4038 45.9702 39.5512 46.3156 39.8462 46.6106L42.1394 48.9038C42.4823 49.2467 42.8758 49.4181 43.32 49.4181C43.7637 49.4181 44.1571 49.2467 44.5 48.9038L50.1538 43.3513C50.4487 43.0563 50.6002 42.7083 50.6081 42.3075C50.616 41.9071 50.4646 41.5515 50.1538 41.2406C49.8588 40.9456 49.5029 40.7981 49.0863 40.7981C48.6696 40.7981 48.314 40.9456 48.0194 41.2406L43.3075 45.8894ZM17.8369 22.1631H42.1631C42.6952 22.1631 43.1408 21.9838 43.5 21.625C43.8587 21.2658 44.0381 20.8204 44.0381 20.2888C44.0381 19.7404 43.8587 19.2908 43.5 18.94C43.1408 18.5892 42.6952 18.4138 42.1631 18.4138H17.8369C17.3048 18.4138 16.8592 18.5931 16.5 18.9519C16.1413 19.311 15.9619 19.7567 15.9619 20.2888C15.9619 20.8204 16.1413 21.2658 16.5 21.625C16.8592 21.9838 17.3048 22.1631 17.8369 22.1631ZM45 56.3944C41.8783 56.3944 39.2229 55.2998 37.0337 53.1106C34.8446 50.9215 33.75 48.266 33.75 45.1444C33.75 42.0227 34.8446 39.3673 37.0337 37.1781C39.2229 34.989 41.8783 33.8944 45 33.8944C48.1217 33.8944 50.7771 34.989 52.9663 37.1781C55.1554 39.3673 56.25 42.0227 56.25 45.1444C56.25 48.266 55.1554 50.9215 52.9663 53.1106C50.7771 55.2998 48.1217 56.3944 45 56.3944ZM8.75 13.2694C8.75 12.0227 9.19146 10.9577 10.0744 10.0744C10.9577 9.19146 12.0227 8.75 13.2694 8.75H46.7306C47.9773 8.75 49.0423 9.19146 49.9256 10.0744C50.8085 10.9577 51.25 12.0227 51.25 13.2694V26.6344C51.25 27.1665 51.0704 27.6121 50.7113 27.9713C50.3525 28.33 49.9071 28.5094 49.375 28.5094C48.8429 28.5094 48.3975 28.33 48.0387 27.9713C47.6796 27.6121 47.5 27.1665 47.5 26.6344V13.2694C47.5 13.0769 47.4198 12.9006 47.2594 12.7406C47.0994 12.5802 46.9231 12.5 46.7306 12.5H13.2694C13.0769 12.5 12.9006 12.5802 12.7406 12.7406C12.5802 12.9006 12.5 13.0769 12.5 13.2694V47.625H28.0244C28.0915 48.1058 28.1844 48.5867 28.3031 49.0675C28.4215 49.5479 28.5608 50.0158 28.7213 50.4713C28.8813 50.8492 28.8019 51.1535 28.4831 51.3844C28.1644 51.6152 27.8623 51.604 27.5769 51.3506L27.1731 51.0431C26.9552 50.8573 26.7117 50.7644 26.4425 50.7644C26.1733 50.7644 25.9298 50.8573 25.7119 51.0431L23.6156 52.8025C23.3977 52.9888 23.154 53.0819 22.8844 53.0819C22.6152 53.0819 22.3717 52.9888 22.1537 52.8025L20.0575 51.0431C19.8396 50.8573 19.596 50.7644 19.3269 50.7644C19.0577 50.7644 18.8142 50.8573 18.5963 51.0431L16.5 52.8025C16.2821 52.9888 16.0385 53.0819 15.7694 53.0819C15.5002 53.0819 15.2567 52.9888 15.0387 52.8025L12.9425 51.0431C12.7246 50.8573 12.481 50.7644 12.2119 50.7644C11.9423 50.7644 11.6985 50.8573 11.4806 51.0431L8.75 53.4856V13.2694ZM17.8369 41.5863H26.8994C27.431 41.5863 27.8765 41.4069 28.2356 41.0481C28.5948 40.689 28.7744 40.2433 28.7744 39.7113C28.7744 39.1796 28.5948 38.7342 28.2356 38.375C27.8765 38.0163 27.431 37.8369 26.8994 37.8369H17.8369C17.3048 37.8369 16.8592 38.0163 16.5 38.375C16.1413 38.7342 15.9619 39.1796 15.9619 39.7113C15.9619 40.2433 16.1413 40.689 16.5 41.0481C16.8592 41.4069 17.3048 41.5863 17.8369 41.5863ZM17.8369 31.875H35.0288C35.5608 31.875 36.0065 31.6954 36.3656 31.3363C36.7244 30.9775 36.9038 30.5321 36.9038 30C36.9038 29.4679 36.7244 29.0225 36.3656 28.6638C36.0065 28.3046 35.5608 28.125 35.0288 28.125H17.8369C17.3048 28.125 16.8592 28.3046 16.5 28.6638C16.1413 29.0225 15.9619 29.4679 15.9619 30C15.9619 30.5321 16.1413 30.9775 16.5 31.3363C16.8592 31.6954 17.3048 31.875 17.8369 31.875Z"></path></symbol><symbol id="_personal-section-phone-icon" viewBox="0 0 60 60"><path d="M18.0682 9.01094L18.3379 9.03705L18.6051 9.0793C19.9328 9.32687 21.0927 10.1392 21.7783 11.3128L21.7808 11.3153L26.2341 18.9567L26.2391 18.9642C27.4121 20.9895 27.0737 23.5491 25.4175 25.2022L25.4188 25.2034L22.8211 27.7999C24.9916 31.7553 28.2501 35.0049 32.2113 37.1652L34.7965 34.5813C36.3462 33.0288 38.6934 32.6355 40.6494 33.5583L41.0359 33.7609L41.0433 33.7659L48.6847 38.2192L48.6871 38.2216C49.9384 38.9526 50.7802 40.2234 50.9629 41.662L50.989 41.9317C51.0811 43.2747 50.5876 44.5966 49.6281 45.5536L49.6293 45.5548L46.2897 48.892L46.2909 48.8932C44.9496 50.2425 43.1247 50.9997 41.2222 50.9988L39.8937 51C36.0976 50.9965 32.3608 50.058 29.0133 48.268L28.9896 48.2556L28.9684 48.2433L28.0773 47.7486C21.4031 44.1504 15.9279 38.6764 12.3297 32.0022L11.8351 31.111L11.8289 31.1011L11.8239 31.0899C9.98705 27.7233 9.01644 23.9526 9 20.1175V18.7777C8.99903 16.8751 9.75738 15.0504 11.1067 13.7091L14.4452 10.3707C15.402 9.41146 16.725 8.91881 18.0682 9.01094ZM17.9366 12.194C17.4789 12.1359 17.0197 12.2929 16.6948 12.6203L13.3502 15.9663C12.6018 16.7101 12.181 17.7225 12.1818 18.7777V20.1039C12.196 23.4111 13.0327 26.6629 14.6167 29.566L15.1113 30.4572C18.4206 36.6121 23.4673 41.6577 29.6223 44.967L30.5135 45.4629C33.2197 46.9099 36.2214 47.7112 39.2833 47.8081L39.8961 47.8182H41.2222C42.2775 47.8189 43.2898 47.3982 44.0337 46.6498L47.3796 43.3051C47.6661 43.021 47.8227 42.6337 47.8183 42.235L47.806 42.0634C47.748 41.6061 47.4808 41.2011 47.0826 40.9684L39.4413 36.5139C38.6635 36.0639 37.68 36.1942 37.0461 36.8308L33.3049 40.5732C32.9979 40.8838 32.5227 40.9557 32.1367 40.7509L30.8304 40.0387C26.2166 37.5588 22.431 33.7789 19.9425 29.1696L19.249 27.8634C19.0698 27.5254 19.103 27.12 19.3224 26.818L19.4268 26.6962L23.1692 22.9539C23.7662 22.3594 23.9177 21.4578 23.5631 20.7067L23.4861 20.5587L19.0316 12.9174C18.7989 12.5191 18.394 12.2522 17.9366 12.194Z"></path></symbol><symbol id="_personal-section-profile-icon" viewBox="0 0 60 60"><path d="M46.3513 50L46.6325 47.7163C46.82 46.1938 47.0388 44.4069 47.2888 42.3556C47.3558 41.9294 47.4079 41.52 47.445 41.1275C47.4817 40.735 47.5338 40.3592 47.6013 40L47.8581 37.8606C48.0298 36.4344 48.2406 34.6956 48.4906 32.6444C48.7406 30.5673 48.9552 28.8221 49.1344 27.4087L49.4038 25.2887L50.0769 20V20.0387L46.3513 50ZM15.6969 53.75C14.6106 53.75 13.6781 53.3885 12.8994 52.6656C12.1202 51.9431 11.7306 51.0546 11.7306 50H45.62C45.8446 50 46.0369 49.9279 46.1969 49.7837C46.3573 49.6396 46.4535 49.4552 46.4856 49.2306L49.9569 20.9038C49.989 20.6796 49.9248 20.4794 49.7644 20.3031C49.604 20.1269 49.4117 20.0387 49.1875 20.0387H42.5769L41.8413 25.8556C41.7742 26.3877 41.5377 26.8077 41.1319 27.1156C40.7265 27.4231 40.2579 27.5513 39.7263 27.5C39.21 27.4487 38.7981 27.2269 38.4906 26.8344C38.1827 26.4415 38.0625 25.9871 38.13 25.4712L38.7888 20.0387H27.5769L26.8413 25.8175C26.7742 26.3496 26.5377 26.7758 26.1319 27.0962C25.7265 27.4167 25.2579 27.5513 24.7263 27.5C24.21 27.4487 23.7917 27.2204 23.4713 26.815C23.1508 26.4096 23.0242 25.9487 23.0913 25.4325L23.75 20.0387H15.2163C15.3671 18.8942 15.8567 17.9767 16.685 17.2863C17.5138 16.5954 18.4825 16.25 19.5913 16.25H24.2069L24.2788 15.625C24.6121 12.6762 25.6329 10.3767 27.3413 8.72625C29.0496 7.07542 31.3781 6.25 34.3269 6.25C36.8815 6.25 38.9881 7.2075 40.6469 9.1225C42.3052 11.0375 43.0656 13.2852 42.9281 15.8656L42.88 16.25H49.3031C50.6106 16.2758 51.7002 16.7792 52.5719 17.76C53.444 18.7404 53.7917 19.8846 53.615 21.1925L50.0819 49.6538C49.931 50.8396 49.4108 51.8188 48.5213 52.5913C47.6321 53.3638 46.5946 53.75 45.4088 53.75H15.6969ZM27.9569 16.25H39.1681L39.2163 15.8656C39.3221 14.2823 38.8454 12.9087 37.7863 11.745C36.7267 10.5817 35.4133 10 33.8463 10C32.1313 10 30.7827 10.496 29.8006 11.4881C28.8181 12.4802 28.2275 13.8592 28.0288 15.625L27.9569 16.25ZM14.8319 44.2306H6.08188C5.5498 44.2306 5.10417 44.0512 4.745 43.6925C4.38625 43.3333 4.20688 42.8877 4.20688 42.3556C4.20688 41.8235 4.38625 41.3781 4.745 41.0194C5.10417 40.6602 5.5498 40.4806 6.08188 40.4806H14.8319C15.364 40.4806 15.8094 40.6602 16.1681 41.0194C16.5273 41.3781 16.7069 41.8235 16.7069 42.3556C16.7069 42.8877 16.5273 43.3333 16.1681 43.6925C15.8094 44.0512 15.364 44.2306 14.8319 44.2306ZM22.3319 34.5194H11.0819C10.5498 34.5194 10.1042 34.3398 9.745 33.9806C9.38625 33.6219 9.20688 33.1765 9.20688 32.6444C9.20688 32.1123 9.38625 31.6667 9.745 31.3075C10.1042 30.9488 10.5498 30.7694 11.0819 30.7694H22.3319C22.864 30.7694 23.3094 30.9488 23.6681 31.3075C24.0273 31.6667 24.2069 32.1123 24.2069 32.6444C24.2069 33.1765 24.0273 33.6219 23.6681 33.9806C23.3094 34.3398 22.864 34.5194 22.3319 34.5194Z"></path></symbol><symbol id="_personal-section-purse-icon" viewBox="0 0 60 60"><path d="M12.5 45V47.5V12.5V45ZM13.2694 51.25C12.0227 51.25 10.9577 50.8085 10.0744 49.9256C9.19146 49.0423 8.75 47.9773 8.75 46.7306V13.2694C8.75 12.0227 9.19146 10.9577 10.0744 10.0744C10.9577 9.19146 12.0227 8.75 13.2694 8.75H46.7306C47.9773 8.75 49.0423 9.19146 49.9256 10.0744C50.8085 10.9577 51.25 12.0227 51.25 13.2694V20.0725H47.5V13.2694C47.5 13.0448 47.4279 12.8604 47.2837 12.7163C47.1396 12.5721 46.9552 12.5 46.7306 12.5H13.2694C13.0448 12.5 12.8604 12.5721 12.7163 12.7163C12.5721 12.8604 12.5 13.0448 12.5 13.2694V46.7306C12.5 46.9552 12.5721 47.1396 12.7163 47.2837C12.8604 47.4279 13.0448 47.5 13.2694 47.5H46.7306C46.9552 47.5 47.1396 47.4279 47.2837 47.2837C47.4279 47.1396 47.5 46.9552 47.5 46.7306V39.9275H51.25V46.7306C51.25 47.9773 50.8085 49.0423 49.9256 49.9256C49.0423 50.8085 47.9773 51.25 46.7306 51.25H13.2694ZM33.2694 41.25C32.0227 41.25 30.9577 40.8085 30.0744 39.9256C29.1915 39.0423 28.75 37.9773 28.75 36.7306V23.2694C28.75 22.0227 29.1915 20.9577 30.0744 20.0744C30.9577 19.1915 32.0227 18.75 33.2694 18.75H49.2306C50.4773 18.75 51.5423 19.1915 52.4256 20.0744C53.3085 20.9577 53.75 22.0227 53.75 23.2694V36.7306C53.75 37.9773 53.3085 39.0423 52.4256 39.9256C51.5423 40.8085 50.4773 41.25 49.2306 41.25H33.2694ZM49.2306 37.5C49.4552 37.5 49.6396 37.4279 49.7837 37.2838C49.9279 37.1396 50 36.9552 50 36.7306V23.2694C50 23.0448 49.9279 22.8604 49.7837 22.7163C49.6396 22.5721 49.4552 22.5 49.2306 22.5H33.2694C33.0448 22.5 32.8604 22.5721 32.7163 22.7163C32.5721 22.8604 32.5 23.0448 32.5 23.2694V36.7306C32.5 36.9552 32.5721 37.1396 32.7163 37.2838C32.8604 37.4279 33.0448 37.5 33.2694 37.5H49.2306ZM42.6562 32.6562C43.3854 31.9271 43.75 31.0417 43.75 30C43.75 28.9583 43.3854 28.0729 42.6562 27.3438C41.9271 26.6146 41.0417 26.25 40 26.25C38.9583 26.25 38.0729 26.6146 37.3438 27.3438C36.6146 28.0729 36.25 28.9583 36.25 30C36.25 31.0417 36.6146 31.9271 37.3438 32.6562C38.0729 33.3854 38.9583 33.75 40 33.75C41.0417 33.75 41.9271 33.3854 42.6562 32.6562Z"></path></symbol><symbol id="_personal-section-user-icon" viewBox="0 0 60 60"><path d="M15.0575 43.2306C17.1825 41.654 19.4975 40.4088 22.0025 39.495C24.5071 38.5817 27.1729 38.125 30 38.125C32.8271 38.125 35.4929 38.5817 37.9975 39.495C40.5025 40.4088 42.8175 41.654 44.9425 43.2306C46.4967 41.5223 47.7281 39.5448 48.6369 37.2981C49.5456 35.0515 50 32.6187 50 30C50 24.4583 48.0521 19.7396 44.1562 15.8438C40.2604 11.9479 35.5417 10 30 10C24.4583 10 19.7396 11.9479 15.8438 15.8438C11.9479 19.7396 10 24.4583 10 30C10 32.6187 10.4544 35.0515 11.3631 37.2981C12.2719 39.5448 13.5033 41.5223 15.0575 43.2306ZM24.2262 29.5238C22.6588 27.9567 21.875 26.0321 21.875 23.75C21.875 21.4679 22.6588 19.5433 24.2262 17.9762C25.7933 16.4087 27.7179 15.625 30 15.625C32.2821 15.625 34.2067 16.4087 35.7738 17.9762C37.3412 19.5433 38.125 21.4679 38.125 23.75C38.125 26.0321 37.3412 27.9567 35.7738 29.5238C34.2067 31.0912 32.2821 31.875 30 31.875C27.7179 31.875 25.7933 31.0912 24.2262 29.5238ZM30 53.75C26.7021 53.75 23.6083 53.1298 20.7188 51.8894C17.8292 50.649 15.3156 48.9598 13.1781 46.8219C11.0402 44.6844 9.35104 42.1708 8.11063 39.2812C6.87021 36.3917 6.25 33.2979 6.25 30C6.25 26.7021 6.87021 23.6083 8.11063 20.7188C9.35104 17.8292 11.0402 15.3156 13.1781 13.1781C15.3156 11.0402 17.8292 9.35104 20.7188 8.11063C23.6083 6.87021 26.7021 6.25 30 6.25C33.2979 6.25 36.3917 6.87021 39.2812 8.11063C42.1708 9.35104 44.6844 11.0402 46.8219 13.1781C48.9598 15.3156 50.649 17.8292 51.8894 20.7188C53.1298 23.6083 53.75 26.7021 53.75 30C53.75 33.2979 53.1298 36.3917 51.8894 39.2812C50.649 42.1708 48.9598 44.6844 46.8219 46.8219C44.6844 48.9598 42.1708 50.649 39.2812 51.8894C36.3917 53.1298 33.2979 53.75 30 53.75ZM36.5262 48.9113C38.6208 48.185 40.4806 47.1698 42.1056 45.8656C40.4806 44.609 38.645 43.6298 36.5988 42.9281C34.5521 42.226 32.3525 41.875 30 41.875C27.6475 41.875 25.444 42.2219 23.3894 42.9156C21.3348 43.6098 19.5031 44.5931 17.8944 45.8656C19.5194 47.1698 21.3792 48.185 23.4737 48.9113C25.5683 49.6371 27.7437 50 30 50C32.2563 50 34.4317 49.6371 36.5262 48.9113ZM33.12 26.87C33.9567 26.0337 34.375 24.9937 34.375 23.75C34.375 22.5063 33.9567 21.4663 33.12 20.63C32.2837 19.7933 31.2437 19.375 30 19.375C28.7563 19.375 27.7162 19.7933 26.88 20.63C26.0433 21.4663 25.625 22.5063 25.625 23.75C25.625 24.9937 26.0433 26.0337 26.88 26.87C27.7162 27.7067 28.7563 28.125 30 28.125C31.2437 28.125 32.2837 27.7067 33.12 26.87Z"></path></symbol><symbol id="arrow-sm" viewBox="0 0 20 20"><path d="M6.67141 17.7564L5.78516 16.8702L12.6554 9.99999L5.78516 3.12978L6.67141 2.24353L14.4279 9.99999L6.67141 17.7564Z"></path></symbol><symbol id="baket-icon" viewBox="0 0 32 32"><path d="M9.53833 28.7437C8.89056 28.7437 8.33978 28.5167 7.886 28.0627C7.43222 27.6089 7.20533 27.0581 7.20533 26.4103C7.20533 25.7623 7.43222 25.2114 7.886 24.7577C8.33978 24.3039 8.89056 24.077 9.53833 24.077C10.1863 24.077 10.7372 24.3039 11.191 24.7577C11.6448 25.2114 11.8717 25.7623 11.8717 26.4103C11.8717 27.0581 11.6448 27.6089 11.191 28.0627C10.7372 28.5167 10.1863 28.7437 9.53833 28.7437ZM22.4617 28.7437C21.8137 28.7437 21.2628 28.5167 20.809 28.0627C20.3552 27.6089 20.1283 27.0581 20.1283 26.4103C20.1283 25.7623 20.3552 25.2114 20.809 24.7577C21.2628 24.3039 21.8137 24.077 22.4617 24.077C23.1094 24.077 23.6602 24.3039 24.114 24.7577C24.5678 25.2114 24.7947 25.7623 24.7947 26.4103C24.7947 27.0581 24.5678 27.6089 24.114 28.0627C23.6602 28.5167 23.1094 28.7437 22.4617 28.7437ZM8.02033 7.66667L11.4 14.7437H20.4897C20.5666 14.7437 20.635 14.7244 20.695 14.686C20.7548 14.6476 20.806 14.5941 20.8487 14.5257L24.4257 8.02567C24.477 7.93167 24.4812 7.84833 24.4383 7.77567C24.3957 7.703 24.323 7.66667 24.2203 7.66667H8.02033ZM7.06167 5.66667H25.5743C26.1197 5.66667 26.532 5.89878 26.8113 6.363C27.0909 6.827 27.1042 7.30089 26.8513 7.78467L22.5793 15.523C22.3607 15.9077 22.0714 16.2072 21.7117 16.4217C21.3517 16.6363 20.9572 16.7437 20.5283 16.7437H10.8L9.25633 19.564C9.18789 19.6667 9.18578 19.7778 9.25 19.8973C9.314 20.0171 9.41011 20.077 9.53833 20.077H24.7947V22.077H9.53833C8.64944 22.077 7.98156 21.6937 7.53467 20.927C7.08756 20.1603 7.07178 19.3949 7.48733 18.6307L9.38967 15.2103L4.53867 5H2V3H5.795L7.06167 5.66667Z"></path></symbol><symbol id="cart-icon" viewBox="0 0 26 26"><path d="M7.53833 25.7437C6.89056 25.7437 6.33978 25.5167 5.886 25.0627C5.43222 24.6089 5.20533 24.0581 5.20533 23.4103C5.20533 22.7623 5.43222 22.2114 5.886 21.7577C6.33978 21.3039 6.89056 21.077 7.53833 21.077C8.18633 21.077 8.73722 21.3039 9.191 21.7577C9.64478 22.2114 9.87167 22.7623 9.87167 23.4103C9.87167 24.0581 9.64478 24.6089 9.191 25.0627C8.73722 25.5167 8.18633 25.7437 7.53833 25.7437ZM20.4617 25.7437C19.8137 25.7437 19.2628 25.5167 18.809 25.0627C18.3552 24.6089 18.1283 24.0581 18.1283 23.4103C18.1283 22.7623 18.3552 22.2114 18.809 21.7577C19.2628 21.3039 19.8137 21.077 20.4617 21.077C21.1094 21.077 21.6602 21.3039 22.114 21.7577C22.5678 22.2114 22.7947 22.7623 22.7947 23.4103C22.7947 24.0581 22.5678 24.6089 22.114 25.0627C21.6602 25.5167 21.1094 25.7437 20.4617 25.7437ZM6.02033 4.66667L9.4 11.7437H18.4897C18.5666 11.7437 18.635 11.7244 18.695 11.686C18.7548 11.6476 18.806 11.5941 18.8487 11.5257L22.4257 5.02567C22.477 4.93167 22.4812 4.84833 22.4383 4.77567C22.3957 4.703 22.323 4.66667 22.2203 4.66667H6.02033ZM5.06167 2.66667H23.5743C24.1197 2.66667 24.532 2.89878 24.8113 3.363C25.0909 3.827 25.1042 4.30089 24.8513 4.78467L20.5793 12.523C20.3607 12.9077 20.0714 13.2072 19.7117 13.4217C19.3517 13.6363 18.9572 13.7437 18.5283 13.7437H8.8L7.25633 16.564C7.18789 16.6667 7.18578 16.7778 7.25 16.8973C7.314 17.0171 7.41011 17.077 7.53833 17.077H22.7947V19.077H7.53833C6.64944 19.077 5.98156 18.6937 5.53467 17.927C5.08756 17.1603 5.07178 16.3949 5.48733 15.6307L7.38967 12.2103L2.53867 2H0V0H3.795L5.06167 2.66667Z"></path></symbol><symbol id="catalog-icon" viewBox="0 0 19 12"><path d="M0 11.9808V10.4808H9.77875V11.9808H0ZM0 7.0865V5.5865H4.73075V7.0865H0ZM0 2.19225V0.69225H4.73075V2.19225H0ZM17.9462 12L14.077 8.1595C13.6962 8.4365 13.2811 8.64742 12.8318 8.79225C12.3824 8.93708 11.9257 9.0095 11.4615 9.0095C10.2085 9.0095 9.1405 8.57175 8.2575 7.69625C7.37433 6.82058 6.93275 5.75675 6.93275 4.50475C6.93275 3.25292 7.3745 2.18917 8.258 1.3135C9.14167 0.437833 10.2102 0 11.4637 0C12.7174 0 13.7853 0.437833 14.6673 1.3135C15.5493 2.18917 15.9902 3.25133 15.9902 4.5C15.9902 4.96417 15.9178 5.42092 15.773 5.87025C15.6282 6.31958 15.4141 6.73142 15.1307 7.10575L19 10.9462L17.9462 12ZM11.4615 7.5095C12.3028 7.5095 13.018 7.21783 13.607 6.6345C14.196 6.05117 14.4905 5.34125 14.4905 4.50475C14.4905 3.66825 14.196 2.95833 13.607 2.375C13.018 1.79167 12.3028 1.5 11.4615 1.5C10.6202 1.5 9.905 1.79167 9.316 2.375C8.72717 2.95833 8.43275 3.66825 8.43275 4.50475C8.43275 5.34125 8.72717 6.05117 9.316 6.6345C9.905 7.21783 10.6202 7.5095 11.4615 7.5095Z"></path></symbol><symbol id="check-icon" viewBox="0 0 14 11"><path d="M4.9585 11L0.208496 6.25002L1.396 5.06252L4.9585 8.62502L12.6043 0.979187L13.7918 2.16669L4.9585 11Z"></path></symbol><symbol id="chevron" viewBox="0 0 24 24"><path clip-rule="evenodd" d="M12.3982 8.33708C12.1785 8.11741 11.8224 8.11741 11.6027 8.33708L5.86788 14.072C5.64821 14.2916 5.64821 14.6477 5.86788 14.8674L6.13305 15.1326C6.35271 15.3523 6.70887 15.3523 6.92854 15.1326L12.0005 10.0607L17.0724 15.1326C17.2921 15.3523 17.6482 15.3523 17.8679 15.1326L18.1331 14.8674C18.3527 14.6477 18.3527 14.2916 18.1331 14.072L12.3982 8.33708Z"></path></symbol><symbol id="compare-icon" viewBox="0 0 40 40"><path d="M26.6667 32.5V22.6604H32.5V32.5H26.6667ZM17.0833 32.5V7.5H22.9167V32.5H17.0833ZM7.5 32.5V15.6733H13.3333V32.5H7.5Z"></path></symbol><symbol id="cross-icon" viewBox="0 0 40 40"><path d="M19.9995 21.7562L11.5445 30.2117C11.3137 30.4422 11.0236 30.5603 10.6741 30.5658C10.3249 30.5711 10.0295 30.4531 9.78786 30.2117C9.54648 29.97 9.42578 29.6772 9.42578 29.3333C9.42578 28.9894 9.54648 28.6967 9.78786 28.455L18.2433 20L9.78786 11.545C9.55731 11.3142 9.43925 11.024 9.4337 10.6746C9.42842 10.3254 9.54648 10.03 9.78786 9.78833C10.0295 9.54694 10.3223 9.42625 10.6662 9.42625C11.0101 9.42625 11.3029 9.54694 11.5445 9.78833L19.9995 18.2437L28.4545 9.78833C28.6854 9.55777 28.9755 9.43972 29.3249 9.43416C29.6741 9.42889 29.9695 9.54694 30.2112 9.78833C30.4526 10.03 30.5733 10.3228 30.5733 10.6667C30.5733 11.0106 30.4526 11.3033 30.2112 11.545L21.7558 20L30.2112 28.455C30.4418 28.6858 30.5598 28.976 30.5654 29.3254C30.5706 29.6746 30.4526 29.97 30.2112 30.2117C29.9695 30.4531 29.6768 30.5737 29.3329 30.5737C28.989 30.5737 28.6962 30.4531 28.4545 30.2117L19.9995 21.7562Z"></path></symbol><symbol id="filter" viewBox="0 0 18 14"><path clip-rule="evenodd" d="M17.5 2H0.5C0.22386 2 0 1.77614 0 1.5V0.5C0 0.22386 0.22386 0 0.5 0H17.5C17.7761 0 18 0.22386 18 0.5V1.5C18 1.77614 17.7761 2 17.5 2ZM15 7.5V6.5C15 6.2239 14.7761 6 14.5 6H3.5C3.22386 6 3 6.2239 3 6.5V7.5C3 7.7761 3.22386 8 3.5 8H14.5C14.7761 8 15 7.7761 15 7.5ZM12 12.5V13.5C12 13.7761 11.7761 14 11.5 14H6.5C6.22386 14 6 13.7761 6 13.5V12.5C6 12.2239 6.22386 12 6.5 12H11.5C11.7761 12 12 12.2239 12 12.5Z"></path></symbol><symbol id="icon-arrow" viewBox="0 0 16 16"><path d="M16 7H3.83L9.42 1.41L8 0L0 8L8 16L9.41 14.59L3.83 9H16V7Z"></path></symbol><symbol id="icon-burger" viewBox="0 0 30 22"><path d="M1.66667 22C1.19444 22 0.798611 21.8243 0.479167 21.4729C0.159722 21.1215 0 20.6861 0 20.1667C0 19.6472 0.159722 19.2118 0.479167 18.8604C0.798611 18.509 1.19444 18.3333 1.66667 18.3333H28.3333C28.8056 18.3333 29.2014 18.509 29.5208 18.8604C29.8403 19.2118 30 19.6472 30 20.1667C30 20.6861 29.8403 21.1215 29.5208 21.4729C29.2014 21.8243 28.8056 22 28.3333 22H1.66667ZM1.66667 12.8333C1.19444 12.8333 0.798611 12.6576 0.479167 12.3063C0.159722 11.9549 0 11.5194 0 11C0 10.4806 0.159722 10.0451 0.479167 9.69375C0.798611 9.34236 1.19444 9.16667 1.66667 9.16667H28.3333C28.8056 9.16667 29.2014 9.34236 29.5208 9.69375C29.8403 10.0451 30 10.4806 30 11C30 11.5194 29.8403 11.9549 29.5208 12.3063C29.2014 12.6576 28.8056 12.8333 28.3333 12.8333H1.66667ZM1.66667 3.66667C1.19444 3.66667 0.798611 3.49097 0.479167 3.13958C0.159722 2.78819 0 2.35278 0 1.83333C0 1.31389 0.159722 0.878472 0.479167 0.527083C0.798611 0.175694 1.19444 0 1.66667 0H28.3333C28.8056 0 29.2014 0.175694 29.5208 0.527083C29.8403 0.878472 30 1.31389 30 1.83333C30 2.35278 29.8403 2.78819 29.5208 3.13958C29.2014 3.49097 28.8056 3.66667 28.3333 3.66667H1.66667Z"></path></symbol><symbol id="icon-cart" viewBox="0 0 19 20"><path d="M5.72192 20C5.23023 20 4.81217 19.8236 4.46773 19.4709C4.12329 19.1184 3.95108 18.6905 3.95108 18.1873C3.95108 17.6838 4.12329 17.2559 4.46773 16.9033C4.81217 16.5508 5.23023 16.3745 5.72192 16.3745C6.21378 16.3745 6.63193 16.5508 6.97637 16.9033C7.32081 17.2559 7.49303 17.6838 7.49303 18.1873C7.49303 18.6905 7.32081 19.1184 6.97637 19.4709C6.63193 19.8236 6.21378 20 5.72192 20ZM15.5313 20C15.0394 20 14.6213 19.8236 14.2769 19.4709C13.9324 19.1184 13.7602 18.6905 13.7602 18.1873C13.7602 17.6838 13.9324 17.2559 14.2769 16.9033C14.6213 16.5508 15.0394 16.3745 15.5313 16.3745C16.023 16.3745 16.4411 16.5508 16.7855 16.9033C17.1299 17.2559 17.3021 17.6838 17.3021 18.1873C17.3021 18.6905 17.1299 19.1184 16.7855 19.4709C16.4411 19.8236 16.023 20 15.5313 20ZM4.5697 3.62549L7.13501 9.12354H14.0345C14.0928 9.12354 14.1448 9.10861 14.1903 9.07874C14.2357 9.04887 14.2746 9.00735 14.307 8.95418L17.0221 3.90439C17.061 3.83136 17.0642 3.76662 17.0317 3.71017C16.9993 3.65371 16.9441 3.62549 16.8662 3.62549H4.5697ZM3.84203 2.07171H17.8939C18.3079 2.07171 18.6209 2.25203 18.8329 2.61268C19.0451 2.97316 19.0552 3.34132 18.8632 3.71716L15.6206 9.729C15.4546 10.0278 15.2351 10.2606 14.962 10.4272C14.6888 10.5939 14.3894 10.6773 14.0638 10.6773H6.67958L5.50787 12.8684C5.45592 12.9482 5.45432 13.0345 5.50307 13.1274C5.55164 13.2204 5.6246 13.267 5.72192 13.267H17.3021V14.8207H5.72192C5.04722 14.8207 4.54026 14.5229 4.20105 13.9273C3.86168 13.3317 3.8497 12.737 4.16512 12.1433L5.60908 9.48609L1.92696 1.55378H0V0H2.88057L3.84203 2.07171Z"></path></symbol><symbol id="icon-compare" viewBox="0 0 20 20"><path d="M16.3333 20C15.781 20 15.3333 19.5523 15.3333 19V13.1283C15.3333 12.576 15.781 12.1283 16.3333 12.1283H19C19.5523 12.1283 20 12.576 20 13.1283V19C20 19.5523 19.5523 20 19 20H16.3333ZM8.66667 20C8.11438 20 7.66667 19.5523 7.66667 19V1C7.66667 0.447716 8.11438 0 8.66667 0H11.3333C11.8856 0 12.3333 0.447715 12.3333 1V19C12.3333 19.5523 11.8856 20 11.3333 20H8.66667ZM1 20C0.447715 20 0 19.5523 0 19V7.53867C0 6.98638 0.447715 6.53867 1 6.53867H3.66667C4.21895 6.53867 4.66667 6.98638 4.66667 7.53867V19C4.66667 19.5523 4.21895 20 3.66667 20H1Z"></path></symbol><symbol id="icon-cube" viewBox="0 0 35 33"><path d="M34.3525 7.02979L21.8525 0.154786C21.6679 0.0532442 21.4606 0 21.25 0C21.0393 0 20.8321 0.0532442 20.6475 0.154786L8.14748 7.02979C7.95149 7.13769 7.78806 7.29622 7.67424 7.48883C7.56041 7.68143 7.50037 7.90106 7.50037 8.12479C7.50037 8.34851 7.56041 8.56814 7.67424 8.76075C7.78806 8.95335 7.95149 9.11188 8.14748 9.21979L20 15.7385V29.1373L16.205 27.0498L15 29.2385L20.6475 32.3448C20.832 32.4466 21.0393 32.4999 21.25 32.4999C21.4607 32.4999 21.668 32.4466 21.8525 32.3448L34.3525 25.4698C34.5485 25.3619 34.712 25.2034 34.8259 25.0108C34.9398 24.8182 34.9999 24.5986 35 24.3748V8.12479C34.9999 7.90102 34.9398 7.68137 34.8259 7.48876C34.712 7.29615 34.5485 7.13764 34.3525 7.02979ZM21.25 2.67729L31.1562 8.12479L21.25 13.5723L11.3437 8.12479L21.25 2.67729ZM32.5 23.636L22.5 29.136V15.7373L32.5 10.2373V23.636Z"></path><path d="M10 16.2498H0V13.7498H10V16.2498ZM12.5 26.2498H2.5V23.7498H12.5V26.2498ZM15 21.2498H5V18.7498H15V21.2498Z"></path></symbol><symbol id="icon-date-clear" viewBox="0 0 32 32"><path d="M8.44912 27.2C7.88108 27.2 7.39761 27.0019 6.99868 26.6055C6.59956 26.2089 6.4 25.7284 6.4 25.164V9.36293C6.4 8.79853 6.59956 8.31813 6.99868 7.92172C7.39761 7.52513 7.88198 7.32683 8.45184 7.32683H10.2377V5.65565C10.2377 5.42032 10.3219 5.21894 10.4904 5.0515C10.6587 4.88386 10.8625 4.80005 11.1017 4.80005C11.341 4.80005 11.5448 4.88386 11.7133 5.0515C11.8816 5.21894 11.9658 5.42032 11.9658 5.65565V7.32683H20.8805V5.63266C20.8805 5.40509 20.9627 5.20938 21.1273 5.04553C21.2918 4.88187 21.4898 4.80005 21.7214 4.80005C21.9529 4.80005 22.1509 4.88187 22.3156 5.04553C22.4801 5.20938 22.5623 5.40509 22.5623 5.63266V7.32683H24.3482C24.918 7.32683 25.4024 7.52513 25.8013 7.92172C26.2004 8.31813 26.4 8.79853 26.4 9.36293V25.164C26.4 25.7284 26.2004 26.2089 25.8013 26.6055C25.4024 27.0019 24.9189 27.2 24.3509 27.2H8.44912ZM8.45184 25.5288H24.3482C24.4407 25.5288 24.5255 25.4906 24.6025 25.4142C24.6796 25.3376 24.7182 25.2532 24.7182 25.1612V14.1196H8.08184V25.1612C8.08184 25.2532 8.1204 25.3376 8.19752 25.4142C8.27448 25.4906 8.35928 25.5288 8.45184 25.5288ZM8.08184 12.4484H24.7182V9.36565C24.7182 9.27389 24.6796 9.18965 24.6025 9.11301C24.5255 9.03637 24.4407 8.99805 24.3482 8.99805H8.45184C8.35928 8.99805 8.27448 9.03637 8.19752 9.11301C8.1204 9.18965 8.08184 9.27389 8.08184 9.36565V12.4484ZM16.4015 18.55C16.1124 18.55 15.8666 18.45 15.6642 18.2501C15.4619 18.05 15.3607 17.8064 15.3607 17.5191C15.3607 17.2316 15.4614 16.9873 15.6628 16.7862C15.8639 16.5853 16.1092 16.4849 16.3985 16.4849C16.6876 16.4849 16.9334 16.5848 17.1358 16.7847C17.3381 16.9846 17.4393 17.2283 17.4393 17.5158C17.4393 17.8032 17.3386 18.0475 17.1372 18.2484C16.9361 18.4494 16.6908 18.55 16.4015 18.55ZM11.5928 18.55C11.3037 18.55 11.0579 18.45 10.8556 18.2501C10.6532 18.05 10.552 17.8064 10.552 17.5191C10.552 17.2316 10.6527 16.9873 10.8541 16.7862C11.0552 16.5853 11.3005 16.4849 11.5898 16.4849C11.8789 16.4849 12.1246 16.5848 12.327 16.7847C12.5294 16.9846 12.6306 17.2283 12.6306 17.5158C12.6306 17.8032 12.5299 18.0475 12.3286 18.2484C12.1274 18.4494 11.8822 18.55 11.5928 18.55ZM21.2102 18.55C20.9211 18.55 20.6754 18.45 20.473 18.2501C20.2706 18.05 20.1694 17.8064 20.1694 17.5191C20.1694 17.2316 20.2701 16.9873 20.4714 16.7862C20.6726 16.5853 20.9178 16.4849 21.2072 16.4849C21.4963 16.4849 21.7421 16.5848 21.9444 16.7847C22.1468 16.9846 22.248 17.2283 22.248 17.5158C22.248 17.8032 22.1473 18.0475 21.9459 18.2484C21.7448 18.4494 21.4995 18.55 21.2102 18.55ZM16.4015 23.2362C16.1124 23.2362 15.8666 23.1363 15.6642 22.9364C15.4619 22.7365 15.3607 22.4928 15.3607 22.2053C15.3607 21.9178 15.4614 21.6736 15.6628 21.4728C15.8639 21.2717 16.1092 21.1712 16.3985 21.1712C16.6876 21.1712 16.9334 21.2711 17.1358 21.4709C17.3381 21.6711 17.4393 21.9148 17.4393 22.202C17.4393 22.4895 17.3386 22.7338 17.1372 22.9349C16.9361 23.1358 16.6908 23.2362 16.4015 23.2362ZM11.5928 23.2362C11.3037 23.2362 11.0579 23.1363 10.8556 22.9364C10.6532 22.7365 10.552 22.4928 10.552 22.2053C10.552 21.9178 10.6527 21.6736 10.8541 21.4728C11.0552 21.2717 11.3005 21.1712 11.5898 21.1712C11.8789 21.1712 12.1246 21.2711 12.327 21.4709C12.5294 21.6711 12.6306 21.9148 12.6306 22.202C12.6306 22.4895 12.5299 22.7338 12.3286 22.9349C12.1274 23.1358 11.8822 23.2362 11.5928 23.2362ZM21.2102 23.2362C20.9211 23.2362 20.6754 23.1363 20.473 22.9364C20.2706 22.7365 20.1694 22.4928 20.1694 22.2053C20.1694 21.9178 20.2701 21.6736 20.4714 21.4728C20.6726 21.2717 20.9178 21.1712 21.2072 21.1712C21.4963 21.1712 21.7421 21.2711 21.9444 21.4709C22.1468 21.6711 22.248 21.9148 22.248 22.202C22.248 22.4895 22.1473 22.7338 21.9459 22.9349C21.7448 23.1358 21.4995 23.2362 21.2102 23.2362Z"></path></symbol><symbol id="icon-date" viewBox="0 0 32 32"><path d="M23.9992 6.40002H28.7992V30.4H3.19922V6.40002H7.99922V4.80002C7.99922 4.14402 8.23922 3.58402 8.70322 3.10402C9.16722 2.64002 9.74322 2.40002 10.3992 2.40002C11.0552 2.40002 11.6312 2.64002 12.0952 3.10402C12.5592 3.58402 12.7992 4.14402 12.7992 4.80002V6.40002H19.1992V4.80002C19.1992 4.14402 19.4392 3.58402 19.9032 3.10402C20.3672 2.64002 20.9432 2.40002 21.5992 2.40002C22.2552 2.40002 22.8312 2.64002 23.2952 3.10402C23.7592 3.58402 23.9992 4.14402 23.9992 4.80002V6.40002ZM9.59922 4.80002V8.80002C9.59726 8.90562 9.61662 9.01052 9.65614 9.10847C9.69565 9.20641 9.7545 9.29538 9.82918 9.37006C9.90386 9.44474 9.99283 9.5036 10.0908 9.54311C10.1887 9.58262 10.2936 9.60198 10.3992 9.60002C10.5048 9.60198 10.6097 9.58262 10.7077 9.54311C10.8056 9.5036 10.8946 9.44474 10.9693 9.37006C11.0439 9.29538 11.1028 9.20641 11.1423 9.10847C11.1818 9.01052 11.2012 8.90562 11.1992 8.80002V4.80002C11.1992 4.57602 11.1192 4.38402 10.9592 4.24002C10.8152 4.08002 10.6232 4.00002 10.3992 4.00002C10.1752 4.00002 9.98322 4.08002 9.83922 4.24002C9.67922 4.38402 9.59922 4.57602 9.59922 4.80002ZM20.7992 4.80002V8.80002C20.7992 9.02402 20.8792 9.21602 21.0232 9.37602C21.1832 9.52002 21.3752 9.60002 21.5992 9.60002C21.8232 9.60002 22.0152 9.52002 22.1752 9.37602C22.3192 9.21602 22.3992 9.02402 22.3992 8.80002V4.80002C22.4012 4.69443 22.3818 4.58952 22.3423 4.49158C22.3028 4.39364 22.2439 4.30467 22.1693 4.22999C22.0946 4.15531 22.0056 4.09645 21.9077 4.05694C21.8097 4.01743 21.7048 3.99807 21.5992 4.00002C21.4936 3.99807 21.3887 4.01743 21.2908 4.05694C21.1928 4.09645 21.1039 4.15531 21.0292 4.22999C20.9545 4.30467 20.8956 4.39364 20.8561 4.49158C20.8166 4.58952 20.7973 4.69443 20.7992 4.80002ZM27.1992 28.8V12.8H4.79922V28.8H27.1992ZM11.1992 14.4V17.6H7.99922V14.4H11.1992ZM14.3992 14.4H17.5992V17.6H14.3992V14.4ZM20.7992 17.6V14.4H23.9992V17.6H20.7992ZM11.1992 19.2V22.4H7.99922V19.2H11.1992ZM14.3992 19.2H17.5992V22.4H14.3992V19.2ZM20.7992 22.4V19.2H23.9992V22.4H20.7992ZM11.1992 24V27.2H7.99922V24H11.1992ZM17.5992 27.2H14.3992V24H17.5992V27.2ZM23.9992 27.2H20.7992V24H23.9992V27.2Z"></path></symbol><symbol id="icon-filter" viewBox="0 0 24 19"><path d="M23.3333 2.66667H0.666667C0.29848 2.66667 0 2.36819 0 2V0.666667C0 0.29848 0.29848 0 0.666667 0H23.3333C23.7015 0 24 0.29848 24 0.666667V2C24 2.36819 23.7015 2.66667 23.3333 2.66667ZM20 10V8.66667C20 8.29853 19.7015 8 19.3333 8H4.66667C4.29848 8 4 8.29853 4 8.66667V10C4 10.3681 4.29848 10.6667 4.66667 10.6667H19.3333C19.7015 10.6667 20 10.3681 20 10ZM16 16.6667V18C16 18.3681 15.7015 18.6667 15.3333 18.6667H8.66667C8.29848 18.6667 8 18.3681 8 18V16.6667C8 16.2985 8.29848 16 8.66667 16H15.3333C15.7015 16 16 16.2985 16 16.6667Z"></path></symbol><symbol id="icon-heart" viewBox="0 0 22 20"><path d="M11 20L9.72197 18.8447C7.80257 17.0936 6.21529 15.589 4.96013 14.3307C3.70497 13.0722 2.71034 11.9522 1.97624 10.9706C1.24213 9.98928 0.729281 9.09398 0.437684 8.28474C0.145895 7.47571 0 6.65473 0 5.82182C0 4.1694 0.554053 2.78594 1.66216 1.67144C2.77046 0.557148 4.14623 0 5.78947 0C6.80032 0 7.75558 0.237724 8.65526 0.713173C9.55495 1.18862 10.3365 1.87046 11 2.75867C11.6635 1.87046 12.4451 1.18862 13.3447 0.713173C14.2444 0.237724 15.1997 0 16.2105 0C17.8538 0 19.2295 0.557148 20.3378 1.67144C21.4459 2.78594 22 4.1694 22 5.82182C22 6.65473 21.8541 7.47571 21.5623 8.28474C21.2707 9.09398 20.7579 9.98928 20.0238 10.9706C19.2897 11.9522 18.2969 13.0722 17.0454 14.3307C15.7941 15.589 14.205 17.0936 12.278 18.8447L11 20ZM11 17.6401C12.8526 15.9638 14.3772 14.527 15.5737 13.3296C16.7702 12.1325 17.7158 11.0924 18.4105 10.2094C19.1053 9.32646 19.5877 8.54236 19.8579 7.85713C20.1281 7.1721 20.2632 6.49366 20.2632 5.82182C20.2632 4.65746 19.8772 3.68715 19.1053 2.91091C18.3333 2.13467 17.3684 1.74655 16.2105 1.74655C15.2962 1.74655 14.4511 2.00736 13.6753 2.529C12.8997 3.05083 12.2856 3.77671 11.8328 4.70665H10.1672C9.70692 3.76915 9.09082 3.04142 8.31889 2.52347C7.54697 2.00552 6.70382 1.74655 5.78947 1.74655C4.63891 1.74655 3.67583 2.13467 2.90024 2.91091C2.12464 3.68715 1.73684 4.65746 1.73684 5.82182C1.73684 6.49366 1.87193 7.1721 2.14211 7.85713C2.41228 8.54236 2.89474 9.32646 3.58947 10.2094C4.28421 11.0924 5.22982 12.1306 6.42632 13.3241C7.62281 14.5176 9.14737 15.9563 11 17.6401Z"></path></symbol><symbol id="icon-info" viewBox="0 0 35 35"><path d="M18.75 25V15H13.75V17.5H16.25V25H12.5V27.5H22.5V25H18.75ZM17.5 7.50002C17.1292 7.50002 16.7666 7.60998 16.4583 7.81601C16.15 8.02204 15.9096 8.31487 15.7677 8.65748C15.6258 9.0001 15.5887 9.3771 15.661 9.74081C15.7334 10.1045 15.912 10.4386 16.1742 10.7008C16.4364 10.9631 16.7705 11.1416 17.1342 11.214C17.4979 11.2863 17.8749 11.2492 18.2175 11.1073C18.5601 10.9654 18.853 10.7251 19.059 10.4167C19.265 10.1084 19.375 9.74586 19.375 9.37502C19.375 8.87773 19.1775 8.40082 18.8258 8.04919C18.4742 7.69756 17.9973 7.50002 17.5 7.50002Z"></path><path d="M17.5 35C14.0388 35 10.6554 33.9737 7.77753 32.0507C4.89967 30.1278 2.65665 27.3947 1.33212 24.197C0.00758243 20.9993 -0.338976 17.4806 0.336265 14.0859C1.01151 10.6913 2.67822 7.57306 5.12564 5.12564C7.57306 2.67822 10.6913 1.01151 14.0859 0.336265C17.4806 -0.338976 20.9993 0.00758243 24.197 1.33212C27.3947 2.65665 30.1278 4.89967 32.0507 7.77753C33.9737 10.6554 35 14.0388 35 17.5C35 22.1413 33.1563 26.5925 29.8744 29.8744C26.5925 33.1563 22.1413 35 17.5 35ZM17.5 2.50001C14.5333 2.50001 11.6332 3.37974 9.16645 5.02796C6.69972 6.67618 4.77713 9.01887 3.64181 11.7598C2.5065 14.5006 2.20945 17.5166 2.78823 20.4264C3.36701 23.3361 4.79562 26.0088 6.89341 28.1066C8.99119 30.2044 11.6639 31.633 14.5737 32.2118C17.4834 32.7906 20.4994 32.4935 23.2403 31.3582C25.9811 30.2229 28.3238 28.3003 29.972 25.8336C31.6203 23.3668 32.5 20.4667 32.5 17.5C32.5 13.5218 30.9197 9.70645 28.1066 6.89341C25.2936 4.08036 21.4783 2.50001 17.5 2.50001Z"></path></symbol><symbol id="icon-login" viewBox="0 0 19 20"><path d="M2.06553 20C1.48833 20 0.999774 19.7941 0.599865 19.3824C0.199955 18.9706 0 18.4675 0 17.8732V2.12676C0 1.53245 0.199955 1.02941 0.599865 0.617647C0.999774 0.205882 1.48833 0 2.06553 0H8.86629C9.10928 0 9.31285 0.0845097 9.477 0.253529C9.64097 0.422353 9.72295 0.631961 9.72295 0.882353C9.72295 1.13275 9.64097 1.34235 9.477 1.51118C9.31285 1.6802 9.10928 1.76471 8.86629 1.76471H2.06553C1.97755 1.76471 1.897 1.80245 1.82387 1.87794C1.75056 1.95323 1.7139 2.03618 1.7139 2.12676V17.8732C1.7139 17.9638 1.75056 18.0468 1.82387 18.1221C1.897 18.1975 1.97755 18.2353 2.06553 18.2353H8.86629C9.10928 18.2353 9.31285 18.3198 9.477 18.4888C9.64097 18.6576 9.72295 18.8673 9.72295 19.1176C9.72295 19.368 9.64097 19.5776 9.477 19.7465C9.31285 19.9155 9.10928 20 8.86629 20H2.06553ZM16.1304 10.8824H7.25122C7.00804 10.8824 6.80437 10.7978 6.64022 10.6288C6.47625 10.46 6.39427 10.2504 6.39427 10C6.39427 9.74961 6.47625 9.54 6.64022 9.37118C6.80437 9.20216 7.00804 9.11765 7.25122 9.11765H16.1304L13.9331 6.85529C13.7749 6.69235 13.694 6.49363 13.6903 6.25912C13.6867 6.02461 13.7677 5.81608 13.9331 5.63353C14.0986 5.45098 14.2993 5.35667 14.5353 5.35059C14.771 5.34471 14.9776 5.43294 15.1549 5.61529L18.6904 9.25559C18.8968 9.46833 19 9.71647 19 10C19 10.2835 18.8968 10.5317 18.6904 10.7444L15.1549 14.3847C14.985 14.5596 14.7832 14.6459 14.5496 14.6435C14.3159 14.6414 14.1104 14.549 13.9331 14.3665C13.7677 14.1839 13.6879 13.9743 13.6938 13.7376C13.6995 13.5008 13.7852 13.2972 13.9509 13.1268L16.1304 10.8824Z"></path></symbol><symbol id="icon-mail-clear" viewBox="0 0 32 32"><path d="M6.85318 24.8C6.28402 24.8 5.79948 24.6004 5.39957 24.2012C4.99986 23.8021 4.8 23.3184 4.8 22.75V9.24987C4.8 8.68147 4.99986 8.19779 5.39957 7.79878C5.79948 7.39956 6.28402 7.19995 6.85318 7.19995H25.1468C25.716 7.19995 26.2005 7.39956 26.6004 7.79878C27.0002 8.19779 27.2 8.68147 27.2 9.24987V22.75C27.2 23.3184 27.0002 23.8021 26.6004 24.2012C26.2005 24.6004 25.716 24.8 25.1468 24.8H6.85318ZM25.5148 10.495L16.5526 16.2392C16.4598 16.2856 16.3687 16.3237 16.2791 16.3538C16.1896 16.3839 16.0966 16.3989 16 16.3989C15.9034 16.3989 15.8104 16.3839 15.7209 16.3538C15.6313 16.3237 15.5422 16.2856 15.4534 16.2392L6.48518 10.495V22.7476C6.48518 22.8556 6.51991 22.9444 6.58938 23.0137C6.65884 23.083 6.74767 23.1177 6.85588 23.1177H25.1441C25.2523 23.1177 25.3412 23.083 25.4106 23.0137C25.4801 22.9444 25.5148 22.8556 25.5148 22.7476V10.495ZM16 14.8218L25.3052 8.88219H6.69478L16 14.8218ZM6.48518 10.7575V9.47651V9.50539V8.88219V9.50659V9.46843V10.7575Z"></path></symbol><symbol id="icon-mail" viewBox="0 0 32 32"><path clip-rule="evenodd" d="M5.33268 5.33398H26.666C28.1388 5.33398 29.3327 6.52789 29.3327 8.00065V24.0007C29.3327 25.4735 28.1388 26.6673 26.666 26.6673H5.33268C3.85992 26.6673 2.66602 25.4735 2.66602 24.0007V8.00065C2.66602 6.52789 3.85992 5.33398 5.33268 5.33398ZM18.1993 20.6007L26.666 14.6673V11.8673L16.866 18.734C16.3448 19.0957 15.6539 19.0957 15.1327 18.734L5.33268 11.8673V14.6673L13.7993 20.6007C15.1207 21.5243 16.878 21.5243 18.1993 20.6007Z"></path></symbol><symbol id="icon-minus" viewBox="0 0 24 24"><rect x="5" y="11" width="14" height="2"></rect></symbol><symbol id="icon-phone-clear" viewBox="0 0 32 32"><path d="M9.6364 4.80589L9.78024 4.81981L9.92272 4.84234C10.6308 4.97438 11.2494 5.40763 11.6151 6.03354L11.6164 6.03487L13.9915 10.1103L13.9942 10.1143C14.6198 11.1944 14.4393 12.5596 13.556 13.4412L13.5567 13.4419L12.1713 14.8267C13.3289 16.9362 15.0667 18.6693 17.1794 19.8215L18.5582 18.4434C19.3846 17.6154 20.6365 17.4056 21.6797 17.8978L21.8858 18.0059L21.8898 18.0085L25.9652 20.3836L25.9665 20.3849C26.6338 20.7748 27.0828 21.4525 27.1802 22.2198L27.1942 22.3636C27.2433 23.0799 26.9801 23.7849 26.4683 24.2953L26.469 24.296L24.6878 26.0758L24.6885 26.0764C23.9731 26.796 22.9998 27.1999 21.9852 27.1994L21.2766 27.2C19.2521 27.1982 17.2591 26.6976 15.4738 25.743L15.4611 25.7364L15.4498 25.7298L14.9746 25.466C11.415 23.5469 8.49488 20.6275 6.57586 17.0679L6.31204 16.5926L6.30872 16.5873L6.30607 16.5813C5.32642 14.7858 4.80877 12.7748 4.8 10.7294V10.0148C4.79948 9.00013 5.20394 8.02693 5.92358 7.31158L7.70409 5.53108C8.2144 5.01949 8.92 4.75675 9.6364 4.80589ZM9.56616 6.50353C9.32208 6.47251 9.0772 6.55626 8.90392 6.73089L7.12009 8.51541C6.72096 8.91213 6.49654 9.45205 6.49698 10.0148V10.7221C6.50454 12.486 6.95078 14.2203 7.79557 15.7686L8.05936 16.2439C9.82432 19.5265 12.5159 22.2175 15.7986 23.9824L16.2738 24.2469C17.7172 25.0187 19.3181 25.446 20.9511 25.4977L21.2779 25.5031H21.9852C22.548 25.5035 23.0879 25.2791 23.4846 24.88L25.2691 23.0961C25.4219 22.9446 25.5054 22.738 25.5031 22.5254L25.4966 22.4339C25.4656 22.19 25.3231 21.974 25.1107 21.8499L21.0354 19.4741C20.6206 19.2341 20.096 19.3036 19.7579 19.6432L17.7626 21.6391C17.5989 21.8048 17.3454 21.8431 17.1396 21.7339L16.4429 21.354C13.9822 20.0314 11.9632 18.0155 10.636 15.5572L10.2662 14.8605C10.1706 14.6803 10.1882 14.464 10.3053 14.303L10.361 14.238L12.3569 12.2421C12.6753 11.9251 12.7561 11.4442 12.567 11.0436L12.5259 10.9647L10.1502 6.88933C10.0261 6.6769 9.81016 6.53455 9.56616 6.50353Z"></path></symbol><symbol id="icon-phone" viewBox="0 0 32 32"><path d="M22.6667 28.0004C20.4617 27.9984 18.2911 27.4534 16.3467 26.4137L15.7467 26.0804C11.601 23.8514 8.20225 20.4526 5.97333 16.307L5.64 15.707C4.57309 13.7516 4.00951 11.5613 4 9.33369V8.44036C3.99944 7.72964 4.28261 7.04809 4.78667 6.54702L7.04 4.29369C7.25884 4.07316 7.56775 3.96686 7.87595 4.00604C8.18415 4.04521 8.45664 4.22542 8.61333 4.49369L11.6133 9.64036C11.9167 10.1642 11.8291 10.8267 11.4 11.2537L8.88 13.7737C8.67072 13.9806 8.62196 14.3004 8.76 14.5604L9.22667 15.4404C10.9027 18.5449 13.4524 21.09 16.56 22.7604L17.44 23.2404C17.7 23.3784 18.0197 23.3296 18.2267 23.1204L20.7467 20.6004C21.1736 20.1713 21.8361 20.0837 22.36 20.387L27.5067 23.387C27.7749 23.5437 27.9552 23.8162 27.9943 24.1244C28.0335 24.4326 27.9272 24.7416 27.7067 24.9604L25.4533 27.2137C24.9523 27.7177 24.2707 28.0009 23.56 28.0004H22.6667Z"></path></symbol><symbol id="icon-pin-clear" viewBox="0 0 32 32"><path d="M16.4 25.5795C18.8082 23.4118 20.6515 21.341 21.9302 19.3671C23.2086 17.3932 23.8479 15.6676 23.8479 14.1903C23.8479 11.9547 23.1355 10.1181 21.7107 8.68053C20.2858 7.24299 18.5147 6.5242 16.3978 6.5242C14.2806 6.5242 12.5104 7.24299 11.0871 8.68053C9.66376 10.1181 8.95208 11.9547 8.95208 14.1903C8.95208 15.6676 9.59128 17.3932 10.8698 19.3671C12.1485 21.341 13.9918 23.4118 16.4 25.5795ZM16.4 27.2C16.1625 27.2 15.929 27.1609 15.6996 27.0824C15.4702 27.004 15.2642 26.8804 15.0815 26.7117C14.1806 25.8924 13.2638 24.9833 12.331 23.9844C11.3982 22.9856 10.5526 21.9445 9.79432 20.861C9.036 19.7773 8.414 18.6684 7.92826 17.534C7.44275 16.3995 7.2 15.2848 7.2 14.1903C7.2 11.3995 8.11112 9.13677 9.93336 7.40194C11.7558 5.66734 13.9113 4.80005 16.4 4.80005C18.8887 4.80005 21.0442 5.66734 22.8666 7.40194C24.6889 9.13677 25.6 11.3995 25.6 14.1903C25.6 15.2848 25.3582 16.3975 24.8746 17.5281C24.391 18.6585 23.7699 19.7664 23.0116 20.852C22.2533 21.9375 21.4098 22.9787 20.4809 23.9755C19.552 24.9724 18.6353 25.8806 17.7306 26.6999C17.5507 26.8685 17.3443 26.994 17.1114 27.0763C16.8784 27.1588 16.6413 27.2 16.4 27.2ZM16.4034 16.0972C17.009 16.0972 17.527 15.8836 17.9577 15.4564C18.3882 15.0291 18.6036 14.5155 18.6036 13.9156C18.6036 13.3158 18.3876 12.8025 17.9558 12.3758C17.5239 11.9489 17.0047 11.7354 16.3982 11.7354C15.7915 11.7354 15.274 11.9495 14.8455 12.3776C14.4167 12.8056 14.2024 13.3202 14.2024 13.9212C14.2024 14.5221 14.4179 15.035 14.849 15.4599C15.2799 15.8848 15.7982 16.0972 16.4034 16.0972Z"></path></symbol><symbol id="icon-pin" viewBox="0 0 32 32"><path d="M15.9995 2.66602C10.6742 2.66602 6.3418 6.99842 6.3418 12.3236C6.3418 18.9324 14.9844 28.6344 15.3524 29.0441C15.698 29.4291 16.3015 29.4284 16.6465 29.0441C17.0144 28.6344 25.6571 18.9324 25.6571 12.3236C25.6569 6.99842 21.3247 2.66602 15.9995 2.66602ZM15.9995 17.1827C13.3202 17.1827 11.1405 15.0029 11.1405 12.3236C11.1405 9.64435 13.3202 7.46466 15.9995 7.46466C18.6787 7.46466 20.8584 9.6444 20.8584 12.3237C20.8584 15.0029 18.6787 17.1827 15.9995 17.1827Z"></path></symbol><symbol id="icon-plus" viewBox="0 0 24 24"><rect x="5" y="11" width="14" height="2"></rect><rect x="11" y="5" width="2" height="14"></rect></symbol><symbol id="icon-profile" viewBox="0 0 26 20"><path d="M20.487 10.9743C20.7708 10.9743 21.0084 10.8786 21.2 10.687C21.3913 10.4957 21.487 10.2581 21.487 9.97433C21.487 9.69056 21.3913 9.453 21.2 9.26167C21.0084 9.07011 20.7708 8.97433 20.487 8.97433H16.436C16.1522 8.97433 15.9146 9.07011 15.723 9.26167C15.5317 9.453 15.436 9.69056 15.436 9.97433C15.436 10.2581 15.5317 10.4957 15.723 10.687C15.9146 10.8786 16.1522 10.9743 16.436 10.9743H20.487ZM20.487 7.12833C20.7708 7.12833 21.0084 7.03255 21.2 6.841C21.3913 6.64967 21.487 6.41211 21.487 6.12833C21.487 5.84455 21.3913 5.60689 21.2 5.41533C21.0084 5.224 20.7708 5.12833 20.487 5.12833H16.436C16.1522 5.12833 15.9146 5.224 15.723 5.41533C15.5317 5.60689 15.436 5.84455 15.436 6.12833C15.436 6.41211 15.5317 6.64967 15.723 6.841C15.9146 7.03255 16.1522 7.12833 16.436 7.12833H20.487ZM8.718 11.5383C7.95222 11.5383 7.28122 11.5999 6.705 11.723C6.129 11.8461 5.61789 12.0419 5.17167 12.3103C4.765 12.5479 4.45656 12.8137 4.24633 13.1077C4.03589 13.4017 3.93067 13.717 3.93067 14.0537C3.93067 14.2863 4.02 14.4808 4.19867 14.637C4.37733 14.7934 4.59833 14.8717 4.86167 14.8717H12.5743C12.8377 14.8717 13.0586 14.7879 13.237 14.6203C13.4157 14.453 13.505 14.2462 13.505 14C13.505 13.6991 13.402 13.4072 13.196 13.1243C12.99 12.8414 12.6793 12.5701 12.264 12.3103C11.818 12.0419 11.3069 11.8461 10.7307 11.723C10.1547 11.5999 9.48378 11.5383 8.718 11.5383ZM10.3703 9.114C10.8243 8.66022 11.0513 8.10944 11.0513 7.46167C11.0513 6.81367 10.8243 6.26278 10.3703 5.809C9.91656 5.35522 9.36578 5.12833 8.718 5.12833C8.07022 5.12833 7.51933 5.35522 7.06533 5.809C6.61156 6.26278 6.38467 6.81367 6.38467 7.46167C6.38467 8.10944 6.61156 8.66022 7.06533 9.114C7.51933 9.568 8.07022 9.795 8.718 9.795C9.36578 9.795 9.91656 9.568 10.3703 9.114ZM2.41033 20C1.73678 20 1.16667 19.7667 0.7 19.3C0.233333 18.8333 0 18.2632 0 17.5897V2.41033C0 1.73678 0.233333 1.16667 0.7 0.7C1.16667 0.233333 1.73678 0 2.41033 0H22.923C23.5966 0 24.1667 0.233333 24.6333 0.7C25.1 1.16667 25.3333 1.73678 25.3333 2.41033V17.5897C25.3333 18.2632 25.1 18.8333 24.6333 19.3C24.1667 19.7667 23.5966 20 22.923 20H2.41033ZM2.41033 18H22.923C23.0257 18 23.1197 17.9572 23.205 17.8717C23.2906 17.7863 23.3333 17.6923 23.3333 17.5897V2.41033C23.3333 2.30767 23.2906 2.21367 23.205 2.12833C23.1197 2.04278 23.0257 2 22.923 2H2.41033C2.30767 2 2.21367 2.04278 2.12833 2.12833C2.04278 2.21367 2 2.30767 2 2.41033V17.5897C2 17.6923 2.04278 17.7863 2.12833 17.8717C2.21367 17.9572 2.30767 18 2.41033 18Z"></path></symbol><symbol id="icon-question" viewBox="0 0 7 12"><path clip-rule="evenodd" d="M3.92181 10.1914C3.92181 10.4771 3.8234 10.7185 3.62656 10.9157C3.42973 11.1127 3.18856 11.2112 2.90306 11.2112C2.61756 11.2112 2.37623 11.1129 2.17906 10.9162C1.9819 10.7194 1.88331 10.4782 1.88331 10.1927C1.88331 9.9072 1.98173 9.66587 2.17856 9.4687C2.3754 9.27153 2.61656 9.17295 2.90206 9.17295C3.18756 9.17295 3.4289 9.27128 3.62606 9.46795C3.82323 9.66478 3.92181 9.90595 3.92181 10.1914ZM4.19281 1.75095C3.85565 1.46045 3.4564 1.3152 2.99506 1.3152C2.6629 1.3152 2.3529 1.3947 2.06506 1.5537C1.77723 1.7127 1.53198 1.92361 1.32931 2.18645C1.19481 2.36195 1.0314 2.47153 0.839063 2.5152C0.646729 2.5587 0.459313 2.5297 0.276813 2.4282C0.13348 2.33936 0.0455625 2.2092 0.0130625 2.0377C-0.0196042 1.86636 0.00956257 1.70311 0.100563 1.54795C0.394229 1.04278 0.804479 0.658448 1.33131 0.394948C1.85831 0.131615 2.41923 -5.34058e-05 3.01406 -5.34058e-05C3.8474 -5.34058e-05 4.57623 0.254697 5.20056 0.764197C5.8249 1.27386 6.13706 1.92486 6.13706 2.7172C6.13706 3.23336 6.00115 3.7012 5.72931 4.1207C5.45765 4.54003 5.13956 4.92736 4.77506 5.2827C4.52156 5.52486 4.28615 5.78028 4.06881 6.04895C3.85148 6.31745 3.70948 6.62353 3.64281 6.9672C3.60565 7.15303 3.5204 7.31003 3.38706 7.4382C3.25373 7.56636 3.0909 7.63045 2.89856 7.63045C2.71923 7.63045 2.56223 7.56895 2.42756 7.44595C2.2929 7.32295 2.22881 7.17036 2.23531 6.9882C2.25448 6.51386 2.40215 6.08353 2.67831 5.6972C2.95448 5.3107 3.27406 4.95645 3.63706 4.63445C3.91406 4.38445 4.16023 4.11453 4.37556 3.8247C4.59106 3.53503 4.69881 3.20686 4.69881 2.8402C4.69881 2.40453 4.53015 2.04145 4.19281 1.75095Z"></path></symbol><symbol id="icon-reg" viewBox="0 0 21 20"><path d="M1.73151 18.2353V1.76471V6.85971V6.24441V18.2353ZM5.19452 10.8824H9.55214C9.79783 10.8824 10.0035 10.7978 10.1691 10.6288C10.335 10.46 10.4179 10.2504 10.4179 10C10.4179 9.74961 10.335 9.54 10.1691 9.37118C10.0035 9.20216 9.79783 9.11765 9.55214 9.11765H5.19452C4.94884 9.11765 4.74317 9.20216 4.57753 9.37118C4.41169 9.54 4.32877 9.74961 4.32877 10C4.32877 10.2504 4.41169 10.46 4.57753 10.6288C4.74317 10.7978 4.94884 10.8824 5.19452 10.8824ZM5.19452 15.5882H9.55214C9.79783 15.5882 10.0035 15.5037 10.1691 15.3347C10.335 15.1659 10.4179 14.9563 10.4179 14.7059C10.4179 14.4555 10.335 14.2459 10.1691 14.0771C10.0035 13.908 9.79783 13.8235 9.55214 13.8235H5.19452C4.94884 13.8235 4.74317 13.908 4.57753 14.0771C4.41169 14.2459 4.32877 14.4555 4.32877 14.7059C4.32877 14.9563 4.41169 15.1659 4.57753 15.3347C4.74317 15.5037 4.94884 15.5882 5.19452 15.5882ZM5.19452 6.17647H14.4292C14.6749 6.17647 14.8806 6.09196 15.0462 5.92294C15.2121 5.75412 15.295 5.54451 15.295 5.29412C15.295 5.04373 15.2121 4.83412 15.0462 4.66529C14.8806 4.49627 14.6749 4.41176 14.4292 4.41176H5.19452C4.94884 4.41176 4.74317 4.49627 4.57753 4.66529C4.41169 4.83412 4.32877 5.04373 4.32877 5.29412C4.32877 5.54451 4.41169 5.75412 4.57753 5.92294C4.74317 6.09196 4.94884 6.17647 5.19452 6.17647ZM2.08675 20C1.50362 20 1.01005 19.7941 0.606027 19.3824C0.202009 18.9706 0 18.4675 0 17.8732V2.12676C0 1.53245 0.202009 1.02941 0.606027 0.617647C1.01005 0.205882 1.50362 0 2.08675 0H17.537C18.1201 0 18.6137 0.205882 19.0177 0.617647C19.4217 1.02941 19.6237 1.53245 19.6237 2.12676V6.79647C19.6237 7.04686 19.5408 7.25647 19.375 7.42529C19.2093 7.59431 19.0037 7.67882 18.758 7.67882C18.5123 7.67882 18.3066 7.59431 18.141 7.42529C17.9752 7.25647 17.8922 7.04686 17.8922 6.79647V2.12676C17.8922 2.03618 17.8552 1.95323 17.7811 1.87794C17.7073 1.80245 17.6259 1.76471 17.537 1.76471H2.08675C1.99787 1.76471 1.91649 1.80245 1.84261 1.87794C1.76854 1.95323 1.73151 2.03618 1.73151 2.12676V17.8732C1.73151 17.9638 1.76854 18.0468 1.84261 18.1221C1.91649 18.1975 1.99787 18.2353 2.08675 18.2353H6.63744C6.88312 18.2353 7.08879 18.3198 7.25444 18.4888C7.42028 18.6576 7.50319 18.8673 7.50319 19.1176C7.50319 19.368 7.42028 19.5776 7.25444 19.7465C7.08879 19.9155 6.88312 20 6.63744 20H2.08675ZM13.6789 13.3438C13.1727 12.8279 12.9196 12.2035 12.9196 11.4706C12.9196 10.7375 13.1727 10.113 13.6789 9.59735C14.1851 9.08147 14.7977 8.82353 15.5169 8.82353C16.2362 8.82353 16.8489 9.08147 17.3549 9.59735C17.8611 10.113 18.1142 10.7375 18.1142 11.4706C18.1142 12.2035 17.8611 12.8279 17.3549 13.3438C16.8489 13.8597 16.2362 14.1176 15.5169 14.1176C14.7977 14.1176 14.1851 13.8597 13.6789 13.3438ZM15.5169 15.8824C16.2451 15.8824 16.9684 15.954 17.6868 16.0974C18.4053 16.2407 19.1073 16.4556 19.7926 16.7421C20.1758 16.896 20.4729 17.1475 20.6837 17.4965C20.8946 17.8457 21 18.2292 21 18.6471V18.9365C21 19.2398 20.9005 19.4928 20.7016 19.6956C20.5025 19.8985 20.2542 20 19.9568 20H11.0773C10.7799 20 10.5316 19.8985 10.3325 19.6956C10.1334 19.4928 10.0338 19.2398 10.0338 18.9365V18.6471C10.0338 18.2292 10.1392 17.8457 10.3501 17.4965C10.5611 17.1475 10.8583 16.896 11.2415 16.7421C11.9118 16.4556 12.6062 16.2407 13.3248 16.0974C14.0434 15.954 14.7741 15.8824 15.5169 15.8824Z"></path></symbol><symbol id="icon-search" viewBox="0 0 23 23"><path d="M8.11608 16.2277C5.84968 16.2277 3.93032 15.4418 2.35807 13.8702C0.786024 12.2984 0 10.3796 0 8.11384C0 5.84808 0.786024 3.92928 2.35807 2.35742C3.93032 0.785808 5.84968 0 8.11608 0C10.3825 0 12.3018 0.785808 13.8741 2.35742C15.4461 3.92928 16.2321 5.84808 16.2321 8.11384C16.2321 9.06136 16.073 9.9664 15.755 10.8288C15.4367 11.6913 15.0121 12.4414 14.4812 13.0791L22.1178 20.7136C22.3017 20.8971 22.3957 21.128 22.3998 21.4062C22.4041 21.6844 22.3101 21.9196 22.1178 22.1118C21.9256 22.3039 21.6925 22.4 21.4184 22.4C21.1446 22.4 20.9115 22.3039 20.7193 22.1118L13.0827 14.4772C12.4191 15.025 11.656 15.4537 10.7933 15.7633C9.93064 16.0729 9.03824 16.2277 8.11608 16.2277ZM8.11608 14.2378C9.82616 14.2378 11.2746 13.6445 12.4613 12.4578C13.6482 11.2714 14.2417 9.82344 14.2417 8.11384C14.2417 6.40424 13.6482 4.95624 12.4613 3.76984C11.2746 2.5832 9.82616 1.9899 8.11608 1.9899C6.406 1.9899 4.9576 2.5832 3.77088 3.76984C2.58391 4.95624 1.99044 6.40424 1.99044 8.11384C1.99044 9.82344 2.58391 11.2714 3.77088 12.4578C4.9576 13.6445 6.406 14.2378 8.11608 14.2378Z"></path></symbol><symbol id="icon-tg" viewBox="0 0 24 24"><mask id="mask0_270_25354" style="mask-type:luminance" maskUnits="userSpaceOnUse" x="0" y="0" width="24" height="24"><path d="M23.9991 0H0V23.9865H23.9991V0Z"></path></mask><g mask="url(#mask0_270_25354)"><path d="M23.6317 2.57334C23.3388 2.21372 22.8991 2.01562 22.3936 2.01562C22.1209 2.01562 21.832 2.07272 21.5349 2.18527L1.21668 9.88355C0.136351 10.293 -0.00905461 10.9092 0.000414129 11.2401C0.00983602 11.5694 0.188476 12.1719 1.27588 12.5197L5.58488 14.0988L7.85583 19.2971C8.08411 20.016 8.56111 20.5204 9.16992 20.684C9.31027 20.7218 9.45356 20.7403 9.59789 20.7403C10.0923 20.7403 10.5986 20.5226 11.0358 20.112L12.9173 18.3443L17.508 21.504C17.9214 21.8096 18.3713 21.9709 18.8099 21.9709C19.7003 21.9708 20.4104 21.3191 20.619 20.3104L23.942 4.23872C24.0786 3.5782 23.9684 2.98678 23.6317 2.57334ZM7.01292 13.8548L12.8766 10.7104L8.79 14.4589C8.6445 14.5924 8.56345 14.7804 8.56322 14.9763C8.56294 14.9835 8.56205 14.9906 8.562 14.9978L8.54789 17.3684L7.01292 13.8548ZM10.073 19.087C10.0296 19.1277 9.98616 19.1635 9.94322 19.1947L9.96042 16.309L11.7319 17.5283L10.073 19.087ZM22.5649 3.95395L19.2419 20.0256C19.2084 20.1877 19.0992 20.5646 18.8098 20.5646C18.6747 20.5646 18.507 20.4951 18.3378 20.3687C18.3306 20.3633 18.3232 20.358 18.3158 20.3529L13.2547 16.8694C13.254 16.8689 13.2533 16.8684 13.2526 16.868L10.3912 14.8984L17.95 7.96486C18.2112 7.72528 18.2533 7.32877 18.0481 7.03973C17.843 6.7507 17.4548 6.65958 17.1424 6.82706L6.05442 12.7732L1.74533 11.1941C1.74219 11.1929 1.73905 11.1918 1.73587 11.1907L22.0332 3.5003C22.2042 3.43547 22.3236 3.42188 22.3936 3.42188C22.4284 3.42188 22.5123 3.42572 22.5413 3.46134C22.5784 3.50695 22.6252 3.66206 22.5649 3.95395Z"></path></g></symbol><symbol id="icon-user" viewBox="0 0 20 20"><path d="M3.70842 15.5708C4.60316 14.9069 5.57789 14.3826 6.63263 13.9979C7.68719 13.6133 8.80965 13.4211 10 13.4211C11.1904 13.4211 12.3128 13.6133 13.3674 13.9979C14.4221 14.3826 15.3968 14.9069 16.2916 15.5708C16.946 14.8515 17.4645 14.0189 17.8471 13.0729C18.2297 12.1269 18.4211 11.1026 18.4211 10C18.4211 7.66667 17.6009 5.67982 15.9605 4.03947C14.3202 2.39912 12.3333 1.57895 10 1.57895C7.66667 1.57895 5.67982 2.39912 4.03947 4.03947C2.39912 5.67982 1.57895 7.66667 1.57895 10C1.57895 11.1026 1.77026 12.1269 2.15289 13.0729C2.53553 14.0189 3.05404 14.8515 3.70842 15.5708ZM10.0003 10.7895C9.03921 10.7895 8.22877 10.4596 7.56895 9.8C6.90895 9.14018 6.57895 8.32974 6.57895 7.36868C6.57895 6.40763 6.90877 5.59719 7.56842 4.93737C8.22825 4.27737 9.03868 3.94737 9.99974 3.94737C10.9608 3.94737 11.7712 4.27719 12.4311 4.93684C13.0911 5.59667 13.4211 6.40711 13.4211 7.36816C13.4211 8.32921 13.0912 9.13965 12.4316 9.79947C11.7718 10.4595 10.9613 10.7895 10.0003 10.7895ZM10 20C8.6114 20 7.30877 19.7389 6.09211 19.2166C4.87544 18.6943 3.81711 17.9831 2.91711 17.0829C2.01693 16.1829 1.3057 15.1246 0.783421 13.9079C0.26114 12.6912 0 11.3886 0 10C0 8.6114 0.26114 7.30877 0.783421 6.09211C1.3057 4.87544 2.01693 3.8171 2.91711 2.9171C3.81711 2.01693 4.87544 1.3057 6.09211 0.783422C7.30877 0.261141 8.6114 0 10 0C11.3886 0 12.6912 0.261141 13.9079 0.783422C15.1246 1.3057 16.1829 2.01693 17.0829 2.9171C17.9831 3.8171 18.6943 4.87544 19.2166 6.09211C19.7389 7.30877 20 8.6114 20 10C20 11.3886 19.7389 12.6912 19.2166 13.9079C18.6943 15.1246 17.9831 16.1829 17.0829 17.0829C16.1829 17.9831 15.1246 18.6943 13.9079 19.2166C12.6912 19.7389 11.3886 20 10 20ZM10 18.4211C10.95 18.4211 11.866 18.2682 12.7479 17.9626C13.6298 17.6568 14.4129 17.2294 15.0971 16.6803C14.4129 16.1511 13.64 15.7389 12.7784 15.4434C11.9167 15.1478 10.9905 15 10 15C9.00947 15 8.08167 15.1461 7.21658 15.4382C6.35149 15.7304 5.58026 16.1445 4.90289 16.6803C5.58711 17.2294 6.37017 17.6568 7.2521 17.9626C8.13403 18.2682 9.05 18.4211 10 18.4211ZM10 9.21053C10.5237 9.21053 10.9616 9.03439 11.3137 8.68211C11.666 8.33 11.8421 7.89211 11.8421 7.36842C11.8421 6.84474 11.666 6.40684 11.3137 6.05474C10.9616 5.70246 10.5237 5.52632 10 5.52632C9.47632 5.52632 9.03842 5.70246 8.68632 6.05474C8.33403 6.40684 8.1579 6.84474 8.1579 7.36842C8.1579 7.89211 8.33403 8.33 8.68632 8.68211C9.03842 9.03439 9.47632 9.21053 10 9.21053Z"></path></symbol><symbol id="star" viewBox="0 0 20 19"><path d="M9.07088 0.612343C9.41462 -0.204115 10.5854 -0.204114 10.9291 0.612346L12.9579 5.43123C13.1029 5.77543 13.4306 6.01061 13.8067 6.0404L19.0727 6.45748C19.9649 6.52814 20.3267 7.62813 19.6469 8.2034L15.6348 11.5987C15.3482 11.8412 15.223 12.2218 15.3106 12.5843L16.5363 17.661C16.744 18.5211 15.7969 19.201 15.033 18.7401L10.5245 16.0196C10.2025 15.8252 9.7975 15.8252 9.47548 16.0196L4.96699 18.7401C4.20311 19.201 3.25596 18.5211 3.46363 17.661L4.68942 12.5843C4.77698 12.2218 4.65182 11.8412 4.36526 11.5987L0.353062 8.2034C-0.326718 7.62813 0.0350679 6.52814 0.927291 6.45748L6.19336 6.0404C6.5695 6.01061 6.89716 5.77543 7.04207 5.43123L9.07088 0.612343Z"></path></symbol></svg>