<svg width="60" height="60" viewBox="0 0 60 60" fill="none" xmlns="http://www.w3.org/2000/svg">
<path d="M43.3075 45.8894L41.9569 44.5388C41.6619 44.2438 41.31 44.0963 40.9012 44.0963C40.4929 44.0963 40.1412 44.2438 39.8462 44.5388C39.5512 44.8333 39.4038 45.1785 39.4038 45.5744C39.4038 45.9702 39.5512 46.3156 39.8462 46.6106L42.1394 48.9038C42.4823 49.2467 42.8758 49.4181 43.32 49.4181C43.7637 49.4181 44.1571 49.2467 44.5 48.9038L50.1538 43.3513C50.4487 43.0563 50.6002 42.7083 50.6081 42.3075C50.616 41.9071 50.4646 41.5515 50.1538 41.2406C49.8588 40.9456 49.5029 40.7981 49.0863 40.7981C48.6696 40.7981 48.314 40.9456 48.0194 41.2406L43.3075 45.8894ZM17.8369 22.1631H42.1631C42.6952 22.1631 43.1408 21.9838 43.5 21.625C43.8587 21.2658 44.0381 20.8204 44.0381 20.2888C44.0381 19.7404 43.8587 19.2908 43.5 18.94C43.1408 18.5892 42.6952 18.4138 42.1631 18.4138H17.8369C17.3048 18.4138 16.8592 18.5931 16.5 18.9519C16.1413 19.311 15.9619 19.7567 15.9619 20.2888C15.9619 20.8204 16.1413 21.2658 16.5 21.625C16.8592 21.9838 17.3048 22.1631 17.8369 22.1631ZM45 56.3944C41.8783 56.3944 39.2229 55.2998 37.0337 53.1106C34.8446 50.9215 33.75 48.266 33.75 45.1444C33.75 42.0227 34.8446 39.3673 37.0337 37.1781C39.2229 34.989 41.8783 33.8944 45 33.8944C48.1217 33.8944 50.7771 34.989 52.9663 37.1781C55.1554 39.3673 56.25 42.0227 56.25 45.1444C56.25 48.266 55.1554 50.9215 52.9663 53.1106C50.7771 55.2998 48.1217 56.3944 45 56.3944ZM8.75 13.2694C8.75 12.0227 9.19146 10.9577 10.0744 10.0744C10.9577 9.19146 12.0227 8.75 13.2694 8.75H46.7306C47.9773 8.75 49.0423 9.19146 49.9256 10.0744C50.8085 10.9577 51.25 12.0227 51.25 13.2694V26.6344C51.25 27.1665 51.0704 27.6121 50.7113 27.9713C50.3525 28.33 49.9071 28.5094 49.375 28.5094C48.8429 28.5094 48.3975 28.33 48.0387 27.9713C47.6796 27.6121 47.5 27.1665 47.5 26.6344V13.2694C47.5 13.0769 47.4198 12.9006 47.2594 12.7406C47.0994 12.5802 46.9231 12.5 46.7306 12.5H13.2694C13.0769 12.5 12.9006 12.5802 12.7406 12.7406C12.5802 12.9006 12.5 13.0769 12.5 13.2694V47.625H28.0244C28.0915 48.1058 28.1844 48.5867 28.3031 49.0675C28.4215 49.5479 28.5608 50.0158 28.7213 50.4713C28.8813 50.8492 28.8019 51.1535 28.4831 51.3844C28.1644 51.6152 27.8623 51.604 27.5769 51.3506L27.1731 51.0431C26.9552 50.8573 26.7117 50.7644 26.4425 50.7644C26.1733 50.7644 25.9298 50.8573 25.7119 51.0431L23.6156 52.8025C23.3977 52.9888 23.154 53.0819 22.8844 53.0819C22.6152 53.0819 22.3717 52.9888 22.1537 52.8025L20.0575 51.0431C19.8396 50.8573 19.596 50.7644 19.3269 50.7644C19.0577 50.7644 18.8142 50.8573 18.5963 51.0431L16.5 52.8025C16.2821 52.9888 16.0385 53.0819 15.7694 53.0819C15.5002 53.0819 15.2567 52.9888 15.0387 52.8025L12.9425 51.0431C12.7246 50.8573 12.481 50.7644 12.2119 50.7644C11.9423 50.7644 11.6985 50.8573 11.4806 51.0431L8.75 53.4856V13.2694ZM17.8369 41.5863H26.8994C27.431 41.5863 27.8765 41.4069 28.2356 41.0481C28.5948 40.689 28.7744 40.2433 28.7744 39.7113C28.7744 39.1796 28.5948 38.7342 28.2356 38.375C27.8765 38.0163 27.431 37.8369 26.8994 37.8369H17.8369C17.3048 37.8369 16.8592 38.0163 16.5 38.375C16.1413 38.7342 15.9619 39.1796 15.9619 39.7113C15.9619 40.2433 16.1413 40.689 16.5 41.0481C16.8592 41.4069 17.3048 41.5863 17.8369 41.5863ZM17.8369 31.875H35.0288C35.5608 31.875 36.0065 31.6954 36.3656 31.3363C36.7244 30.9775 36.9038 30.5321 36.9038 30C36.9038 29.4679 36.7244 29.0225 36.3656 28.6638C36.0065 28.3046 35.5608 28.125 35.0288 28.125H17.8369C17.3048 28.125 16.8592 28.3046 16.5 28.6638C16.1413 29.0225 15.9619 29.4679 15.9619 30C15.9619 30.5321 16.1413 30.9775 16.5 31.3363C16.8592 31.6954 17.3048 31.875 17.8369 31.875Z" fill="#2B519D"/>
</svg>
