<svg width="60" height="60" viewBox="0 0 60 60" fill="none" xmlns="http://www.w3.org/2000/svg">
<path d="M15.0575 43.2306C17.1825 41.654 19.4975 40.4088 22.0025 39.495C24.5071 38.5817 27.1729 38.125 30 38.125C32.8271 38.125 35.4929 38.5817 37.9975 39.495C40.5025 40.4088 42.8175 41.654 44.9425 43.2306C46.4967 41.5223 47.7281 39.5448 48.6369 37.2981C49.5456 35.0515 50 32.6187 50 30C50 24.4583 48.0521 19.7396 44.1562 15.8438C40.2604 11.9479 35.5417 10 30 10C24.4583 10 19.7396 11.9479 15.8438 15.8438C11.9479 19.7396 10 24.4583 10 30C10 32.6187 10.4544 35.0515 11.3631 37.2981C12.2719 39.5448 13.5033 41.5223 15.0575 43.2306ZM24.2262 29.5238C22.6588 27.9567 21.875 26.0321 21.875 23.75C21.875 21.4679 22.6588 19.5433 24.2262 17.9762C25.7933 16.4087 27.7179 15.625 30 15.625C32.2821 15.625 34.2067 16.4087 35.7738 17.9762C37.3412 19.5433 38.125 21.4679 38.125 23.75C38.125 26.0321 37.3412 27.9567 35.7738 29.5238C34.2067 31.0912 32.2821 31.875 30 31.875C27.7179 31.875 25.7933 31.0912 24.2262 29.5238ZM30 53.75C26.7021 53.75 23.6083 53.1298 20.7188 51.8894C17.8292 50.649 15.3156 48.9598 13.1781 46.8219C11.0402 44.6844 9.35104 42.1708 8.11063 39.2812C6.87021 36.3917 6.25 33.2979 6.25 30C6.25 26.7021 6.87021 23.6083 8.11063 20.7188C9.35104 17.8292 11.0402 15.3156 13.1781 13.1781C15.3156 11.0402 17.8292 9.35104 20.7188 8.11063C23.6083 6.87021 26.7021 6.25 30 6.25C33.2979 6.25 36.3917 6.87021 39.2812 8.11063C42.1708 9.35104 44.6844 11.0402 46.8219 13.1781C48.9598 15.3156 50.649 17.8292 51.8894 20.7188C53.1298 23.6083 53.75 26.7021 53.75 30C53.75 33.2979 53.1298 36.3917 51.8894 39.2812C50.649 42.1708 48.9598 44.6844 46.8219 46.8219C44.6844 48.9598 42.1708 50.649 39.2812 51.8894C36.3917 53.1298 33.2979 53.75 30 53.75ZM36.5262 48.9113C38.6208 48.185 40.4806 47.1698 42.1056 45.8656C40.4806 44.609 38.645 43.6298 36.5988 42.9281C34.5521 42.226 32.3525 41.875 30 41.875C27.6475 41.875 25.444 42.2219 23.3894 42.9156C21.3348 43.6098 19.5031 44.5931 17.8944 45.8656C19.5194 47.1698 21.3792 48.185 23.4737 48.9113C25.5683 49.6371 27.7437 50 30 50C32.2563 50 34.4317 49.6371 36.5262 48.9113ZM33.12 26.87C33.9567 26.0337 34.375 24.9937 34.375 23.75C34.375 22.5063 33.9567 21.4663 33.12 20.63C32.2837 19.7933 31.2437 19.375 30 19.375C28.7563 19.375 27.7162 19.7933 26.88 20.63C26.0433 21.4663 25.625 22.5063 25.625 23.75C25.625 24.9937 26.0433 26.0337 26.88 26.87C27.7162 27.7067 28.7563 28.125 30 28.125C31.2437 28.125 32.2837 27.7067 33.12 26.87Z" fill="#2B519D"/>
</svg>
