<svg width="60" height="60" viewBox="0 0 60 60" fill="none" xmlns="http://www.w3.org/2000/svg">
<path d="M30 50.8169L27.2406 48.3362C23.0965 44.5767 19.6694 41.346 16.9594 38.6444C14.2494 35.9423 12.1019 33.5375 10.5169 31.43C8.93187 29.3229 7.82458 27.4006 7.195 25.6631C6.565 23.926 6.25 22.1633 6.25 20.375C6.25 16.8271 7.44625 13.8567 9.83875 11.4637C12.2317 9.07125 15.2021 7.875 18.75 7.875C20.9325 7.875 22.995 8.38542 24.9375 9.40625C26.88 10.4271 28.5675 11.891 30 13.7981C31.4325 11.891 33.12 10.4271 35.0625 9.40625C37.005 8.38542 39.0675 7.875 41.25 7.875C44.7979 7.875 47.7683 9.07125 50.1612 11.4637C52.5537 13.8567 53.75 16.8271 53.75 20.375C53.75 22.1633 53.435 23.926 52.805 25.6631C52.1754 27.4006 51.0681 29.3229 49.4831 31.43C47.8981 33.5375 45.7546 35.9423 43.0525 38.6444C40.3508 41.346 36.9198 44.5767 32.7594 48.3362L30 50.8169ZM30 45.75C34 42.1508 37.2917 39.0658 39.875 36.495C42.4583 33.9246 44.5 31.6915 46 29.7956C47.5 27.8998 48.5417 26.2162 49.125 24.745C49.7083 23.2742 50 21.8175 50 20.375C50 17.875 49.1667 15.7917 47.5 14.125C45.8333 12.4583 43.75 11.625 41.25 11.625C39.2758 11.625 37.4512 12.185 35.7762 13.305C34.1017 14.4254 32.7756 15.984 31.7981 17.9806H28.2019C27.2081 15.9677 25.8779 14.4052 24.2112 13.2931C22.5446 12.181 20.7242 11.625 18.75 11.625C16.2658 11.625 14.1865 12.4583 12.5119 14.125C10.8373 15.7917 10 17.875 10 20.375C10 21.8175 10.2917 23.2742 10.875 24.745C11.4583 26.2162 12.5 27.8998 14 29.7956C15.5 31.6915 17.5417 33.9206 20.125 36.4831C22.7083 39.0456 26 42.1346 30 45.75Z" fill="#2B519D"/>
</svg>
