<svg width="60" height="60" viewBox="0 0 60 60" fill="none" xmlns="http://www.w3.org/2000/svg">
<path d="M18.0682 9.01094L18.3379 9.03705L18.6051 9.0793C19.9328 9.32687 21.0927 10.1392 21.7783 11.3128L21.7808 11.3153L26.2341 18.9567L26.2391 18.9642C27.4121 20.9895 27.0737 23.5491 25.4175 25.2022L25.4188 25.2034L22.8211 27.7999C24.9916 31.7553 28.2501 35.0049 32.2113 37.1652L34.7965 34.5813C36.3462 33.0288 38.6934 32.6355 40.6494 33.5583L41.0359 33.7609L41.0433 33.7659L48.6847 38.2192L48.6871 38.2216C49.9384 38.9526 50.7802 40.2234 50.9629 41.662L50.989 41.9317C51.0811 43.2747 50.5876 44.5966 49.6281 45.5536L49.6293 45.5548L46.2897 48.892L46.2909 48.8932C44.9496 50.2425 43.1247 50.9997 41.2222 50.9988L39.8937 51C36.0976 50.9965 32.3608 50.058 29.0133 48.268L28.9896 48.2556L28.9684 48.2433L28.0773 47.7486C21.4031 44.1504 15.9279 38.6764 12.3297 32.0022L11.8351 31.111L11.8289 31.1011L11.8239 31.0899C9.98705 27.7233 9.01644 23.9526 9 20.1175V18.7777C8.99903 16.8751 9.75738 15.0504 11.1067 13.7091L14.4452 10.3707C15.402 9.41146 16.725 8.91881 18.0682 9.01094ZM17.9366 12.194C17.4789 12.1359 17.0197 12.2929 16.6948 12.6203L13.3502 15.9663C12.6018 16.7101 12.181 17.7225 12.1818 18.7777V20.1039C12.196 23.4111 13.0327 26.6629 14.6167 29.566L15.1113 30.4572C18.4206 36.6121 23.4673 41.6577 29.6223 44.967L30.5135 45.4629C33.2197 46.9099 36.2214 47.7112 39.2833 47.8081L39.8961 47.8182H41.2222C42.2775 47.8189 43.2898 47.3982 44.0337 46.6498L47.3796 43.3051C47.6661 43.021 47.8227 42.6337 47.8183 42.235L47.806 42.0634C47.748 41.6061 47.4808 41.2011 47.0826 40.9684L39.4413 36.5139C38.6635 36.0639 37.68 36.1942 37.0461 36.8308L33.3049 40.5732C32.9979 40.8838 32.5227 40.9557 32.1367 40.7509L30.8304 40.0387C26.2166 37.5588 22.431 33.7789 19.9425 29.1696L19.249 27.8634C19.0698 27.5254 19.103 27.12 19.3224 26.818L19.4268 26.6962L23.1692 22.9539C23.7662 22.3594 23.9177 21.4578 23.5631 20.7067L23.4861 20.5587L19.0316 12.9174C18.7989 12.5191 18.394 12.2522 17.9366 12.194Z" fill="#2B519D"/>
</svg>
