<svg width="60" height="60" viewBox="0 0 60 60" fill="none" xmlns="http://www.w3.org/2000/svg">
<path d="M29.9519 51.25C24.9264 51.25 20.4971 49.7163 16.6637 46.6488C12.8304 43.5817 10.3735 39.6571 9.2931 34.875C9.15852 34.3783 9.23956 33.9217 9.53623 33.505C9.83248 33.0883 10.2548 32.8462 10.8031 32.7787C11.3094 32.7117 11.7652 32.8127 12.1706 33.0819C12.576 33.351 12.8589 33.7469 13.0194 34.2694C13.971 38.1315 16.0214 41.3021 19.1706 43.7812C22.3198 46.2604 25.9135 47.5 29.9519 47.5C34.8269 47.5 38.9623 45.8021 42.3581 42.4062C45.7539 39.0104 47.4519 34.875 47.4519 30C47.4519 25.125 45.7539 20.9896 42.3581 17.5938C38.9623 14.1979 34.8269 12.5 29.9519 12.5C27.221 12.5 24.6619 13.1067 22.2744 14.32C19.8864 15.5329 17.8302 17.2019 16.1056 19.3269H20.7694C21.3014 19.3269 21.7469 19.5065 22.1056 19.8656C22.4648 20.2244 22.6444 20.6698 22.6444 21.2019C22.6444 21.734 22.4648 22.1794 22.1056 22.5381C21.7469 22.8973 21.3014 23.0769 20.7694 23.0769H12.2119C11.5677 23.0769 11.03 22.8612 10.5987 22.43C10.1675 21.9992 9.95185 21.4615 9.95185 20.8169V12.2594C9.95185 11.7273 10.1314 11.2819 10.4906 10.9231C10.8494 10.564 11.2948 10.3844 11.8269 10.3844C12.3589 10.3844 12.8046 10.564 13.1637 10.9231C13.5225 11.2819 13.7019 11.7273 13.7019 12.2594V16.3075C15.7306 13.9133 18.1602 12.0552 20.9906 10.7331C23.8206 9.41104 26.8077 8.75 29.9519 8.75C32.9006 8.75 35.6635 9.30771 38.2406 10.4231C40.8173 11.5385 43.0639 13.0546 44.9806 14.9712C46.8973 16.8879 48.4133 19.1348 49.5287 21.7119C50.6441 24.2885 51.2019 27.0513 51.2019 30C51.2019 32.9487 50.6441 35.7115 49.5287 38.2881C48.4133 40.8652 46.8973 43.1121 44.9806 45.0288C43.0639 46.9454 40.8173 48.4615 38.2406 49.5769C35.6635 50.6923 32.9006 51.25 29.9519 51.25ZM31.8987 29.2406L38.7737 36.1156C39.12 36.4615 39.2971 36.8965 39.305 37.4206C39.3133 37.9448 39.1362 38.3879 38.7737 38.75C38.4116 39.1121 37.9727 39.2931 37.4569 39.2931C36.9406 39.2931 36.5014 39.1121 36.1394 38.75L28.8269 31.4375C28.5931 31.2033 28.4216 30.9502 28.3125 30.6781C28.2037 30.4056 28.1494 30.1187 28.1494 29.8175V19.375C28.1494 18.8429 28.3287 18.3975 28.6875 18.0387C29.0466 17.6796 29.4921 17.5 30.0237 17.5C30.5558 17.5 31.0014 17.6796 31.3606 18.0387C31.7194 18.3975 31.8987 18.8429 31.8987 19.375V29.2406Z" fill="#2B519D"/>
</svg>
