<svg width="26" height="26" viewBox="0 0 26 26" fill="none" xmlns="http://www.w3.org/2000/svg">
<path d="M7.53833 25.7437C6.89056 25.7437 6.33978 25.5167 5.886 25.0627C5.43222 24.6089 5.20533 24.0581 5.20533 23.4103C5.20533 22.7623 5.43222 22.2114 5.886 21.7577C6.33978 21.3039 6.89056 21.077 7.53833 21.077C8.18633 21.077 8.73722 21.3039 9.191 21.7577C9.64478 22.2114 9.87167 22.7623 9.87167 23.4103C9.87167 24.0581 9.64478 24.6089 9.191 25.0627C8.73722 25.5167 8.18633 25.7437 7.53833 25.7437ZM20.4617 25.7437C19.8137 25.7437 19.2628 25.5167 18.809 25.0627C18.3552 24.6089 18.1283 24.0581 18.1283 23.4103C18.1283 22.7623 18.3552 22.2114 18.809 21.7577C19.2628 21.3039 19.8137 21.077 20.4617 21.077C21.1094 21.077 21.6602 21.3039 22.114 21.7577C22.5678 22.2114 22.7947 22.7623 22.7947 23.4103C22.7947 24.0581 22.5678 24.6089 22.114 25.0627C21.6602 25.5167 21.1094 25.7437 20.4617 25.7437ZM6.02033 4.66667L9.4 11.7437H18.4897C18.5666 11.7437 18.635 11.7244 18.695 11.686C18.7548 11.6476 18.806 11.5941 18.8487 11.5257L22.4257 5.02567C22.477 4.93167 22.4812 4.84833 22.4383 4.77567C22.3957 4.703 22.323 4.66667 22.2203 4.66667H6.02033ZM5.06167 2.66667H23.5743C24.1197 2.66667 24.532 2.89878 24.8113 3.363C25.0909 3.827 25.1042 4.30089 24.8513 4.78467L20.5793 12.523C20.3607 12.9077 20.0714 13.2072 19.7117 13.4217C19.3517 13.6363 18.9572 13.7437 18.5283 13.7437H8.8L7.25633 16.564C7.18789 16.6667 7.18578 16.7778 7.25 16.8973C7.314 17.0171 7.41011 17.077 7.53833 17.077H22.7947V19.077H7.53833C6.64944 19.077 5.98156 18.6937 5.53467 17.927C5.08756 17.1603 5.07178 16.3949 5.48733 15.6307L7.38967 12.2103L2.53867 2H0V0H3.795L5.06167 2.66667Z" fill="#222222"/>
</svg>
