<svg width="60" height="60" viewBox="0 0 60 60" fill="none" xmlns="http://www.w3.org/2000/svg">
<path d="M46.3513 50L46.6325 47.7163C46.82 46.1938 47.0388 44.4069 47.2888 42.3556C47.3558 41.9294 47.4079 41.52 47.445 41.1275C47.4817 40.735 47.5338 40.3592 47.6013 40L47.8581 37.8606C48.0298 36.4344 48.2406 34.6956 48.4906 32.6444C48.7406 30.5673 48.9552 28.8221 49.1344 27.4087L49.4038 25.2887L50.0769 20V20.0387L46.3513 50ZM15.6969 53.75C14.6106 53.75 13.6781 53.3885 12.8994 52.6656C12.1202 51.9431 11.7306 51.0546 11.7306 50H45.62C45.8446 50 46.0369 49.9279 46.1969 49.7837C46.3573 49.6396 46.4535 49.4552 46.4856 49.2306L49.9569 20.9038C49.989 20.6796 49.9248 20.4794 49.7644 20.3031C49.604 20.1269 49.4117 20.0387 49.1875 20.0387H42.5769L41.8413 25.8556C41.7742 26.3877 41.5377 26.8077 41.1319 27.1156C40.7265 27.4231 40.2579 27.5513 39.7263 27.5C39.21 27.4487 38.7981 27.2269 38.4906 26.8344C38.1827 26.4415 38.0625 25.9871 38.13 25.4712L38.7888 20.0387H27.5769L26.8413 25.8175C26.7742 26.3496 26.5377 26.7758 26.1319 27.0962C25.7265 27.4167 25.2579 27.5513 24.7263 27.5C24.21 27.4487 23.7917 27.2204 23.4713 26.815C23.1508 26.4096 23.0242 25.9487 23.0913 25.4325L23.75 20.0387H15.2163C15.3671 18.8942 15.8567 17.9767 16.685 17.2863C17.5138 16.5954 18.4825 16.25 19.5913 16.25H24.2069L24.2788 15.625C24.6121 12.6762 25.6329 10.3767 27.3413 8.72625C29.0496 7.07542 31.3781 6.25 34.3269 6.25C36.8815 6.25 38.9881 7.2075 40.6469 9.1225C42.3052 11.0375 43.0656 13.2852 42.9281 15.8656L42.88 16.25H49.3031C50.6106 16.2758 51.7002 16.7792 52.5719 17.76C53.444 18.7404 53.7917 19.8846 53.615 21.1925L50.0819 49.6538C49.931 50.8396 49.4108 51.8188 48.5213 52.5913C47.6321 53.3638 46.5946 53.75 45.4088 53.75H15.6969ZM27.9569 16.25H39.1681L39.2163 15.8656C39.3221 14.2823 38.8454 12.9087 37.7863 11.745C36.7267 10.5817 35.4133 10 33.8463 10C32.1313 10 30.7827 10.496 29.8006 11.4881C28.8181 12.4802 28.2275 13.8592 28.0288 15.625L27.9569 16.25ZM14.8319 44.2306H6.08188C5.5498 44.2306 5.10417 44.0512 4.745 43.6925C4.38625 43.3333 4.20688 42.8877 4.20688 42.3556C4.20688 41.8235 4.38625 41.3781 4.745 41.0194C5.10417 40.6602 5.5498 40.4806 6.08188 40.4806H14.8319C15.364 40.4806 15.8094 40.6602 16.1681 41.0194C16.5273 41.3781 16.7069 41.8235 16.7069 42.3556C16.7069 42.8877 16.5273 43.3333 16.1681 43.6925C15.8094 44.0512 15.364 44.2306 14.8319 44.2306ZM22.3319 34.5194H11.0819C10.5498 34.5194 10.1042 34.3398 9.745 33.9806C9.38625 33.6219 9.20688 33.1765 9.20688 32.6444C9.20688 32.1123 9.38625 31.6667 9.745 31.3075C10.1042 30.9488 10.5498 30.7694 11.0819 30.7694H22.3319C22.864 30.7694 23.3094 30.9488 23.6681 31.3075C24.0273 31.6667 24.2069 32.1123 24.2069 32.6444C24.2069 33.1765 24.0273 33.6219 23.6681 33.9806C23.3094 34.3398 22.864 34.5194 22.3319 34.5194Z" fill="#2B519D"/>
</svg>
