<svg width="60" height="60" viewBox="0 0 60 60" fill="none" xmlns="http://www.w3.org/2000/svg">
<path d="M12.5 45V47.5V12.5V45ZM13.2694 51.25C12.0227 51.25 10.9577 50.8085 10.0744 49.9256C9.19146 49.0423 8.75 47.9773 8.75 46.7306V13.2694C8.75 12.0227 9.19146 10.9577 10.0744 10.0744C10.9577 9.19146 12.0227 8.75 13.2694 8.75H46.7306C47.9773 8.75 49.0423 9.19146 49.9256 10.0744C50.8085 10.9577 51.25 12.0227 51.25 13.2694V20.0725H47.5V13.2694C47.5 13.0448 47.4279 12.8604 47.2837 12.7163C47.1396 12.5721 46.9552 12.5 46.7306 12.5H13.2694C13.0448 12.5 12.8604 12.5721 12.7163 12.7163C12.5721 12.8604 12.5 13.0448 12.5 13.2694V46.7306C12.5 46.9552 12.5721 47.1396 12.7163 47.2837C12.8604 47.4279 13.0448 47.5 13.2694 47.5H46.7306C46.9552 47.5 47.1396 47.4279 47.2837 47.2837C47.4279 47.1396 47.5 46.9552 47.5 46.7306V39.9275H51.25V46.7306C51.25 47.9773 50.8085 49.0423 49.9256 49.9256C49.0423 50.8085 47.9773 51.25 46.7306 51.25H13.2694ZM33.2694 41.25C32.0227 41.25 30.9577 40.8085 30.0744 39.9256C29.1915 39.0423 28.75 37.9773 28.75 36.7306V23.2694C28.75 22.0227 29.1915 20.9577 30.0744 20.0744C30.9577 19.1915 32.0227 18.75 33.2694 18.75H49.2306C50.4773 18.75 51.5423 19.1915 52.4256 20.0744C53.3085 20.9577 53.75 22.0227 53.75 23.2694V36.7306C53.75 37.9773 53.3085 39.0423 52.4256 39.9256C51.5423 40.8085 50.4773 41.25 49.2306 41.25H33.2694ZM49.2306 37.5C49.4552 37.5 49.6396 37.4279 49.7837 37.2838C49.9279 37.1396 50 36.9552 50 36.7306V23.2694C50 23.0448 49.9279 22.8604 49.7837 22.7163C49.6396 22.5721 49.4552 22.5 49.2306 22.5H33.2694C33.0448 22.5 32.8604 22.5721 32.7163 22.7163C32.5721 22.8604 32.5 23.0448 32.5 23.2694V36.7306C32.5 36.9552 32.5721 37.1396 32.7163 37.2838C32.8604 37.4279 33.0448 37.5 33.2694 37.5H49.2306ZM42.6562 32.6562C43.3854 31.9271 43.75 31.0417 43.75 30C43.75 28.9583 43.3854 28.0729 42.6562 27.3438C41.9271 26.6146 41.0417 26.25 40 26.25C38.9583 26.25 38.0729 26.6146 37.3438 27.3438C36.6146 28.0729 36.25 28.9583 36.25 30C36.25 31.0417 36.6146 31.9271 37.3438 32.6562C38.0729 33.3854 38.9583 33.75 40 33.75C41.0417 33.75 41.9271 33.3854 42.6562 32.6562Z" fill="#2B519D"/>
</svg>
