<svg width="32" height="32" viewBox="0 0 32 32" fill="none" xmlns="http://www.w3.org/2000/svg">
<path d="M9.53833 28.7437C8.89056 28.7437 8.33978 28.5167 7.886 28.0627C7.43222 27.6089 7.20533 27.0581 7.20533 26.4103C7.20533 25.7623 7.43222 25.2114 7.886 24.7577C8.33978 24.3039 8.89056 24.077 9.53833 24.077C10.1863 24.077 10.7372 24.3039 11.191 24.7577C11.6448 25.2114 11.8717 25.7623 11.8717 26.4103C11.8717 27.0581 11.6448 27.6089 11.191 28.0627C10.7372 28.5167 10.1863 28.7437 9.53833 28.7437ZM22.4617 28.7437C21.8137 28.7437 21.2628 28.5167 20.809 28.0627C20.3552 27.6089 20.1283 27.0581 20.1283 26.4103C20.1283 25.7623 20.3552 25.2114 20.809 24.7577C21.2628 24.3039 21.8137 24.077 22.4617 24.077C23.1094 24.077 23.6602 24.3039 24.114 24.7577C24.5678 25.2114 24.7947 25.7623 24.7947 26.4103C24.7947 27.0581 24.5678 27.6089 24.114 28.0627C23.6602 28.5167 23.1094 28.7437 22.4617 28.7437ZM8.02033 7.66667L11.4 14.7437H20.4897C20.5666 14.7437 20.635 14.7244 20.695 14.686C20.7548 14.6476 20.806 14.5941 20.8487 14.5257L24.4257 8.02567C24.477 7.93167 24.4812 7.84833 24.4383 7.77567C24.3957 7.703 24.323 7.66667 24.2203 7.66667H8.02033ZM7.06167 5.66667H25.5743C26.1197 5.66667 26.532 5.89878 26.8113 6.363C27.0909 6.827 27.1042 7.30089 26.8513 7.78467L22.5793 15.523C22.3607 15.9077 22.0714 16.2072 21.7117 16.4217C21.3517 16.6363 20.9572 16.7437 20.5283 16.7437H10.8L9.25633 19.564C9.18789 19.6667 9.18578 19.7778 9.25 19.8973C9.314 20.0171 9.41011 20.077 9.53833 20.077H24.7947V22.077H9.53833C8.64944 22.077 7.98156 21.6937 7.53467 20.927C7.08756 20.1603 7.07178 19.3949 7.48733 18.6307L9.38967 15.2103L4.53867 5H2V3H5.795L7.06167 5.66667Z" fill="#222222"/>
</svg>
