<svg width="19" height="12" viewBox="0 0 19 12" fill="none" xmlns="http://www.w3.org/2000/svg">
<path d="M0 11.9808V10.4808H9.77875V11.9808H0ZM0 7.0865V5.5865H4.73075V7.0865H0ZM0 2.19225V0.69225H4.73075V2.19225H0ZM17.9462 12L14.077 8.1595C13.6962 8.4365 13.2811 8.64742 12.8318 8.79225C12.3824 8.93708 11.9257 9.0095 11.4615 9.0095C10.2085 9.0095 9.1405 8.57175 8.2575 7.69625C7.37433 6.82058 6.93275 5.75675 6.93275 4.50475C6.93275 3.25292 7.3745 2.18917 8.258 1.3135C9.14167 0.437833 10.2102 0 11.4637 0C12.7174 0 13.7853 0.437833 14.6673 1.3135C15.5493 2.18917 15.9902 3.25133 15.9902 4.5C15.9902 4.96417 15.9178 5.42092 15.773 5.87025C15.6282 6.31958 15.4141 6.73142 15.1307 7.10575L19 10.9462L17.9462 12ZM11.4615 7.5095C12.3028 7.5095 13.018 7.21783 13.607 6.6345C14.196 6.05117 14.4905 5.34125 14.4905 4.50475C14.4905 3.66825 14.196 2.95833 13.607 2.375C13.018 1.79167 12.3028 1.5 11.4615 1.5C10.6202 1.5 9.905 1.79167 9.316 2.375C8.72717 2.95833 8.43275 3.66825 8.43275 4.50475C8.43275 5.34125 8.72717 6.05117 9.316 6.6345C9.905 7.21783 10.6202 7.5095 11.4615 7.5095Z" fill="white"/>
</svg>
