<svg width="18" height="14" viewBox="0 0 18 14" fill="none" xmlns="http://www.w3.org/2000/svg">
<path fill-rule="evenodd" clip-rule="evenodd" d="M17.5 2H0.5C0.22386 2 0 1.77614 0 1.5V0.5C0 0.22386 0.22386 0 0.5 0H17.5C17.7761 0 18 0.22386 18 0.5V1.5C18 1.77614 17.7761 2 17.5 2ZM15 7.5V6.5C15 6.2239 14.7761 6 14.5 6H3.5C3.22386 6 3 6.2239 3 6.5V7.5C3 7.7761 3.22386 8 3.5 8H14.5C14.7761 8 15 7.7761 15 7.5ZM12 12.5V13.5C12 13.7761 11.7761 14 11.5 14H6.5C6.22386 14 6 13.7761 6 13.5V12.5C6 12.2239 6.22386 12 6.5 12H11.5C11.7761 12 12 12.2239 12 12.5Z" fill="#2B519D"/>
</svg>
