<svg width="30" height="22" viewBox="0 0 30 22" fill="none" xmlns="http://www.w3.org/2000/svg">
<path d="M1.66667 22C1.19444 22 0.798611 21.8243 0.479167 21.4729C0.159722 21.1215 0 20.6861 0 20.1667C0 19.6472 0.159722 19.2118 0.479167 18.8604C0.798611 18.509 1.19444 18.3333 1.66667 18.3333H28.3333C28.8056 18.3333 29.2014 18.509 29.5208 18.8604C29.8403 19.2118 30 19.6472 30 20.1667C30 20.6861 29.8403 21.1215 29.5208 21.4729C29.2014 21.8243 28.8056 22 28.3333 22H1.66667ZM1.66667 12.8333C1.19444 12.8333 0.798611 12.6576 0.479167 12.3063C0.159722 11.9549 0 11.5194 0 11C0 10.4806 0.159722 10.0451 0.479167 9.69375C0.798611 9.34236 1.19444 9.16667 1.66667 9.16667H28.3333C28.8056 9.16667 29.2014 9.34236 29.5208 9.69375C29.8403 10.0451 30 10.4806 30 11C30 11.5194 29.8403 11.9549 29.5208 12.3063C29.2014 12.6576 28.8056 12.8333 28.3333 12.8333H1.66667ZM1.66667 3.66667C1.19444 3.66667 0.798611 3.49097 0.479167 3.13958C0.159722 2.78819 0 2.35278 0 1.83333C0 1.31389 0.159722 0.878472 0.479167 0.527083C0.798611 0.175694 1.19444 0 1.66667 0H28.3333C28.8056 0 29.2014 0.175694 29.5208 0.527083C29.8403 0.878472 30 1.31389 30 1.83333C30 2.35278 29.8403 2.78819 29.5208 3.13958C29.2014 3.49097 28.8056 3.66667 28.3333 3.66667H1.66667Z" fill="#2B519D"/>
</svg>
