<svg width="35" height="33" viewBox="0 0 35 33" fill="none" xmlns="http://www.w3.org/2000/svg">
<path d="M34.3525 7.02979L21.8525 0.154786C21.6679 0.0532442 21.4606 0 21.25 0C21.0393 0 20.8321 0.0532442 20.6475 0.154786L8.14748 7.02979C7.95149 7.13769 7.78806 7.29622 7.67424 7.48883C7.56041 7.68143 7.50037 7.90106 7.50037 8.12479C7.50037 8.34851 7.56041 8.56814 7.67424 8.76075C7.78806 8.95335 7.95149 9.11188 8.14748 9.21979L20 15.7385V29.1373L16.205 27.0498L15 29.2385L20.6475 32.3448C20.832 32.4466 21.0393 32.4999 21.25 32.4999C21.4607 32.4999 21.668 32.4466 21.8525 32.3448L34.3525 25.4698C34.5485 25.3619 34.712 25.2034 34.8259 25.0108C34.9398 24.8182 34.9999 24.5986 35 24.3748V8.12479C34.9999 7.90102 34.9398 7.68137 34.8259 7.48876C34.712 7.29615 34.5485 7.13764 34.3525 7.02979ZM21.25 2.67729L31.1562 8.12479L21.25 13.5723L11.3437 8.12479L21.25 2.67729ZM32.5 23.636L22.5 29.136V15.7373L32.5 10.2373V23.636Z" fill="#2B519D"/>
<path d="M10 16.2498H0V13.7498H10V16.2498ZM12.5 26.2498H2.5V23.7498H12.5V26.2498ZM15 21.2498H5V18.7498H15V21.2498Z" fill="#2B519D"/>
</svg>
