<svg width="32" height="32" viewBox="0 0 32 32" fill="none" xmlns="http://www.w3.org/2000/svg">
<path d="M23.9992 6.40002H28.7992V30.4H3.19922V6.40002H7.99922V4.80002C7.99922 4.14402 8.23922 3.58402 8.70322 3.10402C9.16722 2.64002 9.74322 2.40002 10.3992 2.40002C11.0552 2.40002 11.6312 2.64002 12.0952 3.10402C12.5592 3.58402 12.7992 4.14402 12.7992 4.80002V6.40002H19.1992V4.80002C19.1992 4.14402 19.4392 3.58402 19.9032 3.10402C20.3672 2.64002 20.9432 2.40002 21.5992 2.40002C22.2552 2.40002 22.8312 2.64002 23.2952 3.10402C23.7592 3.58402 23.9992 4.14402 23.9992 4.80002V6.40002ZM9.59922 4.80002V8.80002C9.59726 8.90562 9.61662 9.01052 9.65614 9.10847C9.69565 9.20641 9.7545 9.29538 9.82918 9.37006C9.90386 9.44474 9.99283 9.5036 10.0908 9.54311C10.1887 9.58262 10.2936 9.60198 10.3992 9.60002C10.5048 9.60198 10.6097 9.58262 10.7077 9.54311C10.8056 9.5036 10.8946 9.44474 10.9693 9.37006C11.0439 9.29538 11.1028 9.20641 11.1423 9.10847C11.1818 9.01052 11.2012 8.90562 11.1992 8.80002V4.80002C11.1992 4.57602 11.1192 4.38402 10.9592 4.24002C10.8152 4.08002 10.6232 4.00002 10.3992 4.00002C10.1752 4.00002 9.98322 4.08002 9.83922 4.24002C9.67922 4.38402 9.59922 4.57602 9.59922 4.80002ZM20.7992 4.80002V8.80002C20.7992 9.02402 20.8792 9.21602 21.0232 9.37602C21.1832 9.52002 21.3752 9.60002 21.5992 9.60002C21.8232 9.60002 22.0152 9.52002 22.1752 9.37602C22.3192 9.21602 22.3992 9.02402 22.3992 8.80002V4.80002C22.4012 4.69443 22.3818 4.58952 22.3423 4.49158C22.3028 4.39364 22.2439 4.30467 22.1693 4.22999C22.0946 4.15531 22.0056 4.09645 21.9077 4.05694C21.8097 4.01743 21.7048 3.99807 21.5992 4.00002C21.4936 3.99807 21.3887 4.01743 21.2908 4.05694C21.1928 4.09645 21.1039 4.15531 21.0292 4.22999C20.9545 4.30467 20.8956 4.39364 20.8561 4.49158C20.8166 4.58952 20.7973 4.69443 20.7992 4.80002ZM27.1992 28.8V12.8H4.79922V28.8H27.1992ZM11.1992 14.4V17.6H7.99922V14.4H11.1992ZM14.3992 14.4H17.5992V17.6H14.3992V14.4ZM20.7992 17.6V14.4H23.9992V17.6H20.7992ZM11.1992 19.2V22.4H7.99922V19.2H11.1992ZM14.3992 19.2H17.5992V22.4H14.3992V19.2ZM20.7992 22.4V19.2H23.9992V22.4H20.7992ZM11.1992 24V27.2H7.99922V24H11.1992ZM17.5992 27.2H14.3992V24H17.5992V27.2ZM23.9992 27.2H20.7992V24H23.9992V27.2Z" fill="#919191"/>
</svg>
