<svg width="32" height="32" viewBox="0 0 32 32" fill="none" xmlns="http://www.w3.org/2000/svg">
<path d="M15.9995 2.66602C10.6742 2.66602 6.3418 6.99842 6.3418 12.3236C6.3418 18.9324 14.9844 28.6344 15.3524 29.0441C15.698 29.4291 16.3015 29.4284 16.6465 29.0441C17.0144 28.6344 25.6571 18.9324 25.6571 12.3236C25.6569 6.99842 21.3247 2.66602 15.9995 2.66602ZM15.9995 17.1827C13.3202 17.1827 11.1405 15.0029 11.1405 12.3236C11.1405 9.64435 13.3202 7.46466 15.9995 7.46466C18.6787 7.46466 20.8584 9.6444 20.8584 12.3237C20.8584 15.0029 18.6787 17.1827 15.9995 17.1827Z" fill="#919191"/>
</svg>
