<svg width="22" height="20" viewBox="0 0 22 20" fill="none" xmlns="http://www.w3.org/2000/svg">
<path d="M11 20L9.72197 18.8447C7.80257 17.0936 6.21529 15.589 4.96013 14.3307C3.70497 13.0722 2.71034 11.9522 1.97624 10.9706C1.24213 9.98928 0.729281 9.09398 0.437684 8.28474C0.145895 7.47571 0 6.65473 0 5.82182C0 4.1694 0.554053 2.78594 1.66216 1.67144C2.77046 0.557148 4.14623 0 5.78947 0C6.80032 0 7.75558 0.237724 8.65526 0.713173C9.55495 1.18862 10.3365 1.87046 11 2.75867C11.6635 1.87046 12.4451 1.18862 13.3447 0.713173C14.2444 0.237724 15.1997 0 16.2105 0C17.8538 0 19.2295 0.557148 20.3378 1.67144C21.4459 2.78594 22 4.1694 22 5.82182C22 6.65473 21.8541 7.47571 21.5623 8.28474C21.2707 9.09398 20.7579 9.98928 20.0238 10.9706C19.2897 11.9522 18.2969 13.0722 17.0454 14.3307C15.7941 15.589 14.205 17.0936 12.278 18.8447L11 20ZM11 17.6401C12.8526 15.9638 14.3772 14.527 15.5737 13.3296C16.7702 12.1325 17.7158 11.0924 18.4105 10.2094C19.1053 9.32646 19.5877 8.54236 19.8579 7.85713C20.1281 7.1721 20.2632 6.49366 20.2632 5.82182C20.2632 4.65746 19.8772 3.68715 19.1053 2.91091C18.3333 2.13467 17.3684 1.74655 16.2105 1.74655C15.2962 1.74655 14.4511 2.00736 13.6753 2.529C12.8997 3.05083 12.2856 3.77671 11.8328 4.70665H10.1672C9.70692 3.76915 9.09082 3.04142 8.31889 2.52347C7.54697 2.00552 6.70382 1.74655 5.78947 1.74655C4.63891 1.74655 3.67583 2.13467 2.90024 2.91091C2.12464 3.68715 1.73684 4.65746 1.73684 5.82182C1.73684 6.49366 1.87193 7.1721 2.14211 7.85713C2.41228 8.54236 2.89474 9.32646 3.58947 10.2094C4.28421 11.0924 5.22982 12.1306 6.42632 13.3241C7.62281 14.5176 9.14737 15.9563 11 17.6401Z" fill="#DDDDDD"/>
</svg>
