<svg width="19" height="20" viewBox="0 0 19 20" fill="none" xmlns="http://www.w3.org/2000/svg">
<path d="M5.72192 20C5.23023 20 4.81217 19.8236 4.46773 19.4709C4.12329 19.1184 3.95108 18.6905 3.95108 18.1873C3.95108 17.6838 4.12329 17.2559 4.46773 16.9033C4.81217 16.5508 5.23023 16.3745 5.72192 16.3745C6.21378 16.3745 6.63193 16.5508 6.97637 16.9033C7.32081 17.2559 7.49303 17.6838 7.49303 18.1873C7.49303 18.6905 7.32081 19.1184 6.97637 19.4709C6.63193 19.8236 6.21378 20 5.72192 20ZM15.5313 20C15.0394 20 14.6213 19.8236 14.2769 19.4709C13.9324 19.1184 13.7602 18.6905 13.7602 18.1873C13.7602 17.6838 13.9324 17.2559 14.2769 16.9033C14.6213 16.5508 15.0394 16.3745 15.5313 16.3745C16.023 16.3745 16.4411 16.5508 16.7855 16.9033C17.1299 17.2559 17.3021 17.6838 17.3021 18.1873C17.3021 18.6905 17.1299 19.1184 16.7855 19.4709C16.4411 19.8236 16.023 20 15.5313 20ZM4.5697 3.62549L7.13501 9.12354H14.0345C14.0928 9.12354 14.1448 9.10861 14.1903 9.07874C14.2357 9.04887 14.2746 9.00735 14.307 8.95418L17.0221 3.90439C17.061 3.83136 17.0642 3.76662 17.0317 3.71017C16.9993 3.65371 16.9441 3.62549 16.8662 3.62549H4.5697ZM3.84203 2.07171H17.8939C18.3079 2.07171 18.6209 2.25203 18.8329 2.61268C19.0451 2.97316 19.0552 3.34132 18.8632 3.71716L15.6206 9.729C15.4546 10.0278 15.2351 10.2606 14.962 10.4272C14.6888 10.5939 14.3894 10.6773 14.0638 10.6773H6.67958L5.50787 12.8684C5.45592 12.9482 5.45432 13.0345 5.50307 13.1274C5.55164 13.2204 5.6246 13.267 5.72192 13.267H17.3021V14.8207H5.72192C5.04722 14.8207 4.54026 14.5229 4.20105 13.9273C3.86168 13.3317 3.8497 12.737 4.16512 12.1433L5.60908 9.48609L1.92696 1.55378H0V0H2.88057L3.84203 2.07171Z" fill="#222222"/>
</svg>
