<svg width="26" height="20" viewBox="0 0 26 20" fill="none" xmlns="http://www.w3.org/2000/svg">
<path d="M20.487 10.9743C20.7708 10.9743 21.0084 10.8786 21.2 10.687C21.3913 10.4957 21.487 10.2581 21.487 9.97433C21.487 9.69056 21.3913 9.453 21.2 9.26167C21.0084 9.07011 20.7708 8.97433 20.487 8.97433H16.436C16.1522 8.97433 15.9146 9.07011 15.723 9.26167C15.5317 9.453 15.436 9.69056 15.436 9.97433C15.436 10.2581 15.5317 10.4957 15.723 10.687C15.9146 10.8786 16.1522 10.9743 16.436 10.9743H20.487ZM20.487 7.12833C20.7708 7.12833 21.0084 7.03255 21.2 6.841C21.3913 6.64967 21.487 6.41211 21.487 6.12833C21.487 5.84455 21.3913 5.60689 21.2 5.41533C21.0084 5.224 20.7708 5.12833 20.487 5.12833H16.436C16.1522 5.12833 15.9146 5.224 15.723 5.41533C15.5317 5.60689 15.436 5.84455 15.436 6.12833C15.436 6.41211 15.5317 6.64967 15.723 6.841C15.9146 7.03255 16.1522 7.12833 16.436 7.12833H20.487ZM8.718 11.5383C7.95222 11.5383 7.28122 11.5999 6.705 11.723C6.129 11.8461 5.61789 12.0419 5.17167 12.3103C4.765 12.5479 4.45656 12.8137 4.24633 13.1077C4.03589 13.4017 3.93067 13.717 3.93067 14.0537C3.93067 14.2863 4.02 14.4808 4.19867 14.637C4.37733 14.7934 4.59833 14.8717 4.86167 14.8717H12.5743C12.8377 14.8717 13.0586 14.7879 13.237 14.6203C13.4157 14.453 13.505 14.2462 13.505 14C13.505 13.6991 13.402 13.4072 13.196 13.1243C12.99 12.8414 12.6793 12.5701 12.264 12.3103C11.818 12.0419 11.3069 11.8461 10.7307 11.723C10.1547 11.5999 9.48378 11.5383 8.718 11.5383ZM10.3703 9.114C10.8243 8.66022 11.0513 8.10944 11.0513 7.46167C11.0513 6.81367 10.8243 6.26278 10.3703 5.809C9.91656 5.35522 9.36578 5.12833 8.718 5.12833C8.07022 5.12833 7.51933 5.35522 7.06533 5.809C6.61156 6.26278 6.38467 6.81367 6.38467 7.46167C6.38467 8.10944 6.61156 8.66022 7.06533 9.114C7.51933 9.568 8.07022 9.795 8.718 9.795C9.36578 9.795 9.91656 9.568 10.3703 9.114ZM2.41033 20C1.73678 20 1.16667 19.7667 0.7 19.3C0.233333 18.8333 0 18.2632 0 17.5897V2.41033C0 1.73678 0.233333 1.16667 0.7 0.7C1.16667 0.233333 1.73678 0 2.41033 0H22.923C23.5966 0 24.1667 0.233333 24.6333 0.7C25.1 1.16667 25.3333 1.73678 25.3333 2.41033V17.5897C25.3333 18.2632 25.1 18.8333 24.6333 19.3C24.1667 19.7667 23.5966 20 22.923 20H2.41033ZM2.41033 18H22.923C23.0257 18 23.1197 17.9572 23.205 17.8717C23.2906 17.7863 23.3333 17.6923 23.3333 17.5897V2.41033C23.3333 2.30767 23.2906 2.21367 23.205 2.12833C23.1197 2.04278 23.0257 2 22.923 2H2.41033C2.30767 2 2.21367 2.04278 2.12833 2.12833C2.04278 2.21367 2 2.30767 2 2.41033V17.5897C2 17.6923 2.04278 17.7863 2.12833 17.8717C2.21367 17.9572 2.30767 18 2.41033 18Z" fill="#1F1F1F"/>
</svg>
