<svg width="7" height="12" viewBox="0 0 7 12" fill="none" xmlns="http://www.w3.org/2000/svg">
<path fill-rule="evenodd" clip-rule="evenodd" d="M3.92181 10.1914C3.92181 10.4771 3.8234 10.7185 3.62656 10.9157C3.42973 11.1127 3.18856 11.2112 2.90306 11.2112C2.61756 11.2112 2.37623 11.1129 2.17906 10.9162C1.9819 10.7194 1.88331 10.4782 1.88331 10.1927C1.88331 9.9072 1.98173 9.66587 2.17856 9.4687C2.3754 9.27153 2.61656 9.17295 2.90206 9.17295C3.18756 9.17295 3.4289 9.27128 3.62606 9.46795C3.82323 9.66478 3.92181 9.90595 3.92181 10.1914ZM4.19281 1.75095C3.85565 1.46045 3.4564 1.3152 2.99506 1.3152C2.6629 1.3152 2.3529 1.3947 2.06506 1.5537C1.77723 1.7127 1.53198 1.92361 1.32931 2.18645C1.19481 2.36195 1.0314 2.47153 0.839063 2.5152C0.646729 2.5587 0.459313 2.5297 0.276813 2.4282C0.13348 2.33936 0.0455625 2.2092 0.0130625 2.0377C-0.0196042 1.86636 0.00956257 1.70311 0.100563 1.54795C0.394229 1.04278 0.804479 0.658448 1.33131 0.394948C1.85831 0.131615 2.41923 -5.34058e-05 3.01406 -5.34058e-05C3.8474 -5.34058e-05 4.57623 0.254697 5.20056 0.764197C5.8249 1.27386 6.13706 1.92486 6.13706 2.7172C6.13706 3.23336 6.00115 3.7012 5.72931 4.1207C5.45765 4.54003 5.13956 4.92736 4.77506 5.2827C4.52156 5.52486 4.28615 5.78028 4.06881 6.04895C3.85148 6.31745 3.70948 6.62353 3.64281 6.9672C3.60565 7.15303 3.5204 7.31003 3.38706 7.4382C3.25373 7.56636 3.0909 7.63045 2.89856 7.63045C2.71923 7.63045 2.56223 7.56895 2.42756 7.44595C2.2929 7.32295 2.22881 7.17036 2.23531 6.9882C2.25448 6.51386 2.40215 6.08353 2.67831 5.6972C2.95448 5.3107 3.27406 4.95645 3.63706 4.63445C3.91406 4.38445 4.16023 4.11453 4.37556 3.8247C4.59106 3.53503 4.69881 3.20686 4.69881 2.8402C4.69881 2.40453 4.53015 2.04145 4.19281 1.75095Z" fill="#2B519D"/>
</svg>
