<svg width="21" height="20" viewBox="0 0 21 20" fill="none" xmlns="http://www.w3.org/2000/svg">
<path d="M1.73151 18.2353V1.76471V6.85971V6.24441V18.2353ZM5.19452 10.8824H9.55214C9.79783 10.8824 10.0035 10.7978 10.1691 10.6288C10.335 10.46 10.4179 10.2504 10.4179 10C10.4179 9.74961 10.335 9.54 10.1691 9.37118C10.0035 9.20216 9.79783 9.11765 9.55214 9.11765H5.19452C4.94884 9.11765 4.74317 9.20216 4.57753 9.37118C4.41169 9.54 4.32877 9.74961 4.32877 10C4.32877 10.2504 4.41169 10.46 4.57753 10.6288C4.74317 10.7978 4.94884 10.8824 5.19452 10.8824ZM5.19452 15.5882H9.55214C9.79783 15.5882 10.0035 15.5037 10.1691 15.3347C10.335 15.1659 10.4179 14.9563 10.4179 14.7059C10.4179 14.4555 10.335 14.2459 10.1691 14.0771C10.0035 13.908 9.79783 13.8235 9.55214 13.8235H5.19452C4.94884 13.8235 4.74317 13.908 4.57753 14.0771C4.41169 14.2459 4.32877 14.4555 4.32877 14.7059C4.32877 14.9563 4.41169 15.1659 4.57753 15.3347C4.74317 15.5037 4.94884 15.5882 5.19452 15.5882ZM5.19452 6.17647H14.4292C14.6749 6.17647 14.8806 6.09196 15.0462 5.92294C15.2121 5.75412 15.295 5.54451 15.295 5.29412C15.295 5.04373 15.2121 4.83412 15.0462 4.66529C14.8806 4.49627 14.6749 4.41176 14.4292 4.41176H5.19452C4.94884 4.41176 4.74317 4.49627 4.57753 4.66529C4.41169 4.83412 4.32877 5.04373 4.32877 5.29412C4.32877 5.54451 4.41169 5.75412 4.57753 5.92294C4.74317 6.09196 4.94884 6.17647 5.19452 6.17647ZM2.08675 20C1.50362 20 1.01005 19.7941 0.606027 19.3824C0.202009 18.9706 0 18.4675 0 17.8732V2.12676C0 1.53245 0.202009 1.02941 0.606027 0.617647C1.01005 0.205882 1.50362 0 2.08675 0H17.537C18.1201 0 18.6137 0.205882 19.0177 0.617647C19.4217 1.02941 19.6237 1.53245 19.6237 2.12676V6.79647C19.6237 7.04686 19.5408 7.25647 19.375 7.42529C19.2093 7.59431 19.0037 7.67882 18.758 7.67882C18.5123 7.67882 18.3066 7.59431 18.141 7.42529C17.9752 7.25647 17.8922 7.04686 17.8922 6.79647V2.12676C17.8922 2.03618 17.8552 1.95323 17.7811 1.87794C17.7073 1.80245 17.6259 1.76471 17.537 1.76471H2.08675C1.99787 1.76471 1.91649 1.80245 1.84261 1.87794C1.76854 1.95323 1.73151 2.03618 1.73151 2.12676V17.8732C1.73151 17.9638 1.76854 18.0468 1.84261 18.1221C1.91649 18.1975 1.99787 18.2353 2.08675 18.2353H6.63744C6.88312 18.2353 7.08879 18.3198 7.25444 18.4888C7.42028 18.6576 7.50319 18.8673 7.50319 19.1176C7.50319 19.368 7.42028 19.5776 7.25444 19.7465C7.08879 19.9155 6.88312 20 6.63744 20H2.08675ZM13.6789 13.3438C13.1727 12.8279 12.9196 12.2035 12.9196 11.4706C12.9196 10.7375 13.1727 10.113 13.6789 9.59735C14.1851 9.08147 14.7977 8.82353 15.5169 8.82353C16.2362 8.82353 16.8489 9.08147 17.3549 9.59735C17.8611 10.113 18.1142 10.7375 18.1142 11.4706C18.1142 12.2035 17.8611 12.8279 17.3549 13.3438C16.8489 13.8597 16.2362 14.1176 15.5169 14.1176C14.7977 14.1176 14.1851 13.8597 13.6789 13.3438ZM15.5169 15.8824C16.2451 15.8824 16.9684 15.954 17.6868 16.0974C18.4053 16.2407 19.1073 16.4556 19.7926 16.7421C20.1758 16.896 20.4729 17.1475 20.6837 17.4965C20.8946 17.8457 21 18.2292 21 18.6471V18.9365C21 19.2398 20.9005 19.4928 20.7016 19.6956C20.5025 19.8985 20.2542 20 19.9568 20H11.0773C10.7799 20 10.5316 19.8985 10.3325 19.6956C10.1334 19.4928 10.0338 19.2398 10.0338 18.9365V18.6471C10.0338 18.2292 10.1392 17.8457 10.3501 17.4965C10.5611 17.1475 10.8583 16.896 11.2415 16.7421C11.9118 16.4556 12.6062 16.2407 13.3248 16.0974C14.0434 15.954 14.7741 15.8824 15.5169 15.8824Z" fill="#1F1F1F"/>
</svg>
