<svg width="19" height="20" viewBox="0 0 19 20" fill="none" xmlns="http://www.w3.org/2000/svg">
<path d="M2.06553 20C1.48833 20 0.999774 19.7941 0.599865 19.3824C0.199955 18.9706 0 18.4675 0 17.8732V2.12676C0 1.53245 0.199955 1.02941 0.599865 0.617647C0.999774 0.205882 1.48833 0 2.06553 0H8.86629C9.10928 0 9.31285 0.0845097 9.477 0.253529C9.64097 0.422353 9.72295 0.631961 9.72295 0.882353C9.72295 1.13275 9.64097 1.34235 9.477 1.51118C9.31285 1.6802 9.10928 1.76471 8.86629 1.76471H2.06553C1.97755 1.76471 1.897 1.80245 1.82387 1.87794C1.75056 1.95323 1.7139 2.03618 1.7139 2.12676V17.8732C1.7139 17.9638 1.75056 18.0468 1.82387 18.1221C1.897 18.1975 1.97755 18.2353 2.06553 18.2353H8.86629C9.10928 18.2353 9.31285 18.3198 9.477 18.4888C9.64097 18.6576 9.72295 18.8673 9.72295 19.1176C9.72295 19.368 9.64097 19.5776 9.477 19.7465C9.31285 19.9155 9.10928 20 8.86629 20H2.06553ZM16.1304 10.8824H7.25122C7.00804 10.8824 6.80437 10.7978 6.64022 10.6288C6.47625 10.46 6.39427 10.2504 6.39427 10C6.39427 9.74961 6.47625 9.54 6.64022 9.37118C6.80437 9.20216 7.00804 9.11765 7.25122 9.11765H16.1304L13.9331 6.85529C13.7749 6.69235 13.694 6.49363 13.6903 6.25912C13.6867 6.02461 13.7677 5.81608 13.9331 5.63353C14.0986 5.45098 14.2993 5.35667 14.5353 5.35059C14.771 5.34471 14.9776 5.43294 15.1549 5.61529L18.6904 9.25559C18.8968 9.46833 19 9.71647 19 10C19 10.2835 18.8968 10.5317 18.6904 10.7444L15.1549 14.3847C14.985 14.5596 14.7832 14.6459 14.5496 14.6435C14.3159 14.6414 14.1104 14.549 13.9331 14.3665C13.7677 14.1839 13.6879 13.9743 13.6938 13.7376C13.6995 13.5008 13.7852 13.2972 13.9509 13.1268L16.1304 10.8824Z" fill="#1F1F1F"/>
</svg>
