<svg width="32" height="32" viewBox="0 0 32 32" fill="none" xmlns="http://www.w3.org/2000/svg">
<path d="M9.6364 4.80589L9.78024 4.81981L9.92272 4.84234C10.6308 4.97438 11.2494 5.40763 11.6151 6.03354L11.6164 6.03487L13.9915 10.1103L13.9942 10.1143C14.6198 11.1944 14.4393 12.5596 13.556 13.4412L13.5567 13.4419L12.1713 14.8267C13.3289 16.9362 15.0667 18.6693 17.1794 19.8215L18.5582 18.4434C19.3846 17.6154 20.6365 17.4056 21.6797 17.8978L21.8858 18.0059L21.8898 18.0085L25.9652 20.3836L25.9665 20.3849C26.6338 20.7748 27.0828 21.4525 27.1802 22.2198L27.1942 22.3636C27.2433 23.0799 26.9801 23.7849 26.4683 24.2953L26.469 24.296L24.6878 26.0758L24.6885 26.0764C23.9731 26.796 22.9998 27.1999 21.9852 27.1994L21.2766 27.2C19.2521 27.1982 17.2591 26.6976 15.4738 25.743L15.4611 25.7364L15.4498 25.7298L14.9746 25.466C11.415 23.5469 8.49488 20.6275 6.57586 17.0679L6.31204 16.5926L6.30872 16.5873L6.30607 16.5813C5.32642 14.7858 4.80877 12.7748 4.8 10.7294V10.0148C4.79948 9.00013 5.20394 8.02693 5.92358 7.31158L7.70409 5.53108C8.2144 5.01949 8.92 4.75675 9.6364 4.80589ZM9.56616 6.50353C9.32208 6.47251 9.0772 6.55626 8.90392 6.73089L7.12009 8.51541C6.72096 8.91213 6.49654 9.45205 6.49698 10.0148V10.7221C6.50454 12.486 6.95078 14.2203 7.79557 15.7686L8.05936 16.2439C9.82432 19.5265 12.5159 22.2175 15.7986 23.9824L16.2738 24.2469C17.7172 25.0187 19.3181 25.446 20.9511 25.4977L21.2779 25.5031H21.9852C22.548 25.5035 23.0879 25.2791 23.4846 24.88L25.2691 23.0961C25.4219 22.9446 25.5054 22.738 25.5031 22.5254L25.4966 22.4339C25.4656 22.19 25.3231 21.974 25.1107 21.8499L21.0354 19.4741C20.6206 19.2341 20.096 19.3036 19.7579 19.6432L17.7626 21.6391C17.5989 21.8048 17.3454 21.8431 17.1396 21.7339L16.4429 21.354C13.9822 20.0314 11.9632 18.0155 10.636 15.5572L10.2662 14.8605C10.1706 14.6803 10.1882 14.464 10.3053 14.303L10.361 14.238L12.3569 12.2421C12.6753 11.9251 12.7561 11.4442 12.567 11.0436L12.5259 10.9647L10.1502 6.88933C10.0261 6.6769 9.81016 6.53455 9.56616 6.50353Z" fill="#2B519D"/>
</svg>
