<svg width="20" height="20" viewBox="0 0 20 20" fill="none" xmlns="http://www.w3.org/2000/svg">
<path d="M16.3333 20C15.781 20 15.3333 19.5523 15.3333 19V13.1283C15.3333 12.576 15.781 12.1283 16.3333 12.1283H19C19.5523 12.1283 20 12.576 20 13.1283V19C20 19.5523 19.5523 20 19 20H16.3333ZM8.66667 20C8.11438 20 7.66667 19.5523 7.66667 19V1C7.66667 0.447716 8.11438 0 8.66667 0H11.3333C11.8856 0 12.3333 0.447715 12.3333 1V19C12.3333 19.5523 11.8856 20 11.3333 20H8.66667ZM1 20C0.447715 20 0 19.5523 0 19V7.53867C0 6.98638 0.447715 6.53867 1 6.53867H3.66667C4.21895 6.53867 4.66667 6.98638 4.66667 7.53867V19C4.66667 19.5523 4.21895 20 3.66667 20H1Z" fill="#DDDDDD"/>
</svg>
