<svg width="32" height="32" viewBox="0 0 32 32" fill="none" xmlns="http://www.w3.org/2000/svg">
<path d="M6.85318 24.8C6.28402 24.8 5.79948 24.6004 5.39957 24.2012C4.99986 23.8021 4.8 23.3184 4.8 22.75V9.24987C4.8 8.68147 4.99986 8.19779 5.39957 7.79878C5.79948 7.39956 6.28402 7.19995 6.85318 7.19995H25.1468C25.716 7.19995 26.2005 7.39956 26.6004 7.79878C27.0002 8.19779 27.2 8.68147 27.2 9.24987V22.75C27.2 23.3184 27.0002 23.8021 26.6004 24.2012C26.2005 24.6004 25.716 24.8 25.1468 24.8H6.85318ZM25.5148 10.495L16.5526 16.2392C16.4598 16.2856 16.3687 16.3237 16.2791 16.3538C16.1896 16.3839 16.0966 16.3989 16 16.3989C15.9034 16.3989 15.8104 16.3839 15.7209 16.3538C15.6313 16.3237 15.5422 16.2856 15.4534 16.2392L6.48518 10.495V22.7476C6.48518 22.8556 6.51991 22.9444 6.58938 23.0137C6.65884 23.083 6.74767 23.1177 6.85588 23.1177H25.1441C25.2523 23.1177 25.3412 23.083 25.4106 23.0137C25.4801 22.9444 25.5148 22.8556 25.5148 22.7476V10.495ZM16 14.8218L25.3052 8.88219H6.69478L16 14.8218ZM6.48518 10.7575V9.47651V9.50539V8.88219V9.50659V9.46843V10.7575Z" fill="#2B519D"/>
</svg>
