<svg width="32" height="32" viewBox="0 0 32 32" fill="none" xmlns="http://www.w3.org/2000/svg">
<path d="M22.6667 28.0004C20.4617 27.9984 18.2911 27.4534 16.3467 26.4137L15.7467 26.0804C11.601 23.8514 8.20225 20.4526 5.97333 16.307L5.64 15.707C4.57309 13.7516 4.00951 11.5613 4 9.33369V8.44036C3.99944 7.72964 4.28261 7.04809 4.78667 6.54702L7.04 4.29369C7.25884 4.07316 7.56775 3.96686 7.87595 4.00604C8.18415 4.04521 8.45664 4.22542 8.61333 4.49369L11.6133 9.64036C11.9167 10.1642 11.8291 10.8267 11.4 11.2537L8.88 13.7737C8.67072 13.9806 8.62196 14.3004 8.76 14.5604L9.22667 15.4404C10.9027 18.5449 13.4524 21.09 16.56 22.7604L17.44 23.2404C17.7 23.3784 18.0197 23.3296 18.2267 23.1204L20.7467 20.6004C21.1736 20.1713 21.8361 20.0837 22.36 20.387L27.5067 23.387C27.7749 23.5437 27.9552 23.8162 27.9943 24.1244C28.0335 24.4326 27.9272 24.7416 27.7067 24.9604L25.4533 27.2137C24.9523 27.7177 24.2707 28.0009 23.56 28.0004H22.6667Z" fill="#919191"/>
</svg>
