<svg width="23" height="23" viewBox="0 0 23 23" fill="none" xmlns="http://www.w3.org/2000/svg">
<path d="M8.11608 16.2277C5.84968 16.2277 3.93032 15.4418 2.35807 13.8702C0.786024 12.2984 0 10.3796 0 8.11384C0 5.84808 0.786024 3.92928 2.35807 2.35742C3.93032 0.785808 5.84968 0 8.11608 0C10.3825 0 12.3018 0.785808 13.8741 2.35742C15.4461 3.92928 16.2321 5.84808 16.2321 8.11384C16.2321 9.06136 16.073 9.9664 15.755 10.8288C15.4367 11.6913 15.0121 12.4414 14.4812 13.0791L22.1178 20.7136C22.3017 20.8971 22.3957 21.128 22.3998 21.4062C22.4041 21.6844 22.3101 21.9196 22.1178 22.1118C21.9256 22.3039 21.6925 22.4 21.4184 22.4C21.1446 22.4 20.9115 22.3039 20.7193 22.1118L13.0827 14.4772C12.4191 15.025 11.656 15.4537 10.7933 15.7633C9.93064 16.0729 9.03824 16.2277 8.11608 16.2277ZM8.11608 14.2378C9.82616 14.2378 11.2746 13.6445 12.4613 12.4578C13.6482 11.2714 14.2417 9.82344 14.2417 8.11384C14.2417 6.40424 13.6482 4.95624 12.4613 3.76984C11.2746 2.5832 9.82616 1.9899 8.11608 1.9899C6.406 1.9899 4.9576 2.5832 3.77088 3.76984C2.58391 4.95624 1.99044 6.40424 1.99044 8.11384C1.99044 9.82344 2.58391 11.2714 3.77088 12.4578C4.9576 13.6445 6.406 14.2378 8.11608 14.2378Z" fill="#222222"/>
</svg>
