<svg width="24" height="24" viewBox="0 0 24 24" fill="none" xmlns="http://www.w3.org/2000/svg">
<mask id="mask0_270_25354" style="mask-type:luminance" maskUnits="userSpaceOnUse" x="0" y="0" width="24" height="24">
<path d="M23.9991 0H0V23.9865H23.9991V0Z" fill="white"/>
</mask>
<g mask="url(#mask0_270_25354)">
<path d="M23.6317 2.57334C23.3388 2.21372 22.8991 2.01562 22.3936 2.01562C22.1209 2.01562 21.832 2.07272 21.5349 2.18527L1.21668 9.88355C0.136351 10.293 -0.00905461 10.9092 0.000414129 11.2401C0.00983602 11.5694 0.188476 12.1719 1.27588 12.5197L5.58488 14.0988L7.85583 19.2971C8.08411 20.016 8.56111 20.5204 9.16992 20.684C9.31027 20.7218 9.45356 20.7403 9.59789 20.7403C10.0923 20.7403 10.5986 20.5226 11.0358 20.112L12.9173 18.3443L17.508 21.504C17.9214 21.8096 18.3713 21.9709 18.8099 21.9709C19.7003 21.9708 20.4104 21.3191 20.619 20.3104L23.942 4.23872C24.0786 3.5782 23.9684 2.98678 23.6317 2.57334ZM7.01292 13.8548L12.8766 10.7104L8.79 14.4589C8.6445 14.5924 8.56345 14.7804 8.56322 14.9763C8.56294 14.9835 8.56205 14.9906 8.562 14.9978L8.54789 17.3684L7.01292 13.8548ZM10.073 19.087C10.0296 19.1277 9.98616 19.1635 9.94322 19.1947L9.96042 16.309L11.7319 17.5283L10.073 19.087ZM22.5649 3.95395L19.2419 20.0256C19.2084 20.1877 19.0992 20.5646 18.8098 20.5646C18.6747 20.5646 18.507 20.4951 18.3378 20.3687C18.3306 20.3633 18.3232 20.358 18.3158 20.3529L13.2547 16.8694C13.254 16.8689 13.2533 16.8684 13.2526 16.868L10.3912 14.8984L17.95 7.96486C18.2112 7.72528 18.2533 7.32877 18.0481 7.03973C17.843 6.7507 17.4548 6.65958 17.1424 6.82706L6.05442 12.7732L1.74533 11.1941C1.74219 11.1929 1.73905 11.1918 1.73587 11.1907L22.0332 3.5003C22.2042 3.43547 22.3236 3.42188 22.3936 3.42188C22.4284 3.42188 22.5123 3.42572 22.5413 3.46134C22.5784 3.50695 22.6252 3.66206 22.5649 3.95395Z" fill="white"/>
</g>
</svg>
