<svg width="32" height="32" viewBox="0 0 32 32" fill="none" xmlns="http://www.w3.org/2000/svg">
<path d="M16.4 25.5795C18.8082 23.4118 20.6515 21.341 21.9302 19.3671C23.2086 17.3932 23.8479 15.6676 23.8479 14.1903C23.8479 11.9547 23.1355 10.1181 21.7107 8.68053C20.2858 7.24299 18.5147 6.5242 16.3978 6.5242C14.2806 6.5242 12.5104 7.24299 11.0871 8.68053C9.66376 10.1181 8.95208 11.9547 8.95208 14.1903C8.95208 15.6676 9.59128 17.3932 10.8698 19.3671C12.1485 21.341 13.9918 23.4118 16.4 25.5795ZM16.4 27.2C16.1625 27.2 15.929 27.1609 15.6996 27.0824C15.4702 27.004 15.2642 26.8804 15.0815 26.7117C14.1806 25.8924 13.2638 24.9833 12.331 23.9844C11.3982 22.9856 10.5526 21.9445 9.79432 20.861C9.036 19.7773 8.414 18.6684 7.92826 17.534C7.44275 16.3995 7.2 15.2848 7.2 14.1903C7.2 11.3995 8.11112 9.13677 9.93336 7.40194C11.7558 5.66734 13.9113 4.80005 16.4 4.80005C18.8887 4.80005 21.0442 5.66734 22.8666 7.40194C24.6889 9.13677 25.6 11.3995 25.6 14.1903C25.6 15.2848 25.3582 16.3975 24.8746 17.5281C24.391 18.6585 23.7699 19.7664 23.0116 20.852C22.2533 21.9375 21.4098 22.9787 20.4809 23.9755C19.552 24.9724 18.6353 25.8806 17.7306 26.6999C17.5507 26.8685 17.3443 26.994 17.1114 27.0763C16.8784 27.1588 16.6413 27.2 16.4 27.2ZM16.4034 16.0972C17.009 16.0972 17.527 15.8836 17.9577 15.4564C18.3882 15.0291 18.6036 14.5155 18.6036 13.9156C18.6036 13.3158 18.3876 12.8025 17.9558 12.3758C17.5239 11.9489 17.0047 11.7354 16.3982 11.7354C15.7915 11.7354 15.274 11.9495 14.8455 12.3776C14.4167 12.8056 14.2024 13.3202 14.2024 13.9212C14.2024 14.5221 14.4179 15.035 14.849 15.4599C15.2799 15.8848 15.7982 16.0972 16.4034 16.0972Z" fill="#2B519D"/>
</svg>
