<svg width="35" height="35" viewBox="0 0 35 35" fill="none" xmlns="http://www.w3.org/2000/svg">
<path d="M18.75 25V15H13.75V17.5H16.25V25H12.5V27.5H22.5V25H18.75ZM17.5 7.50002C17.1292 7.50002 16.7666 7.60998 16.4583 7.81601C16.15 8.02204 15.9096 8.31487 15.7677 8.65748C15.6258 9.0001 15.5887 9.3771 15.661 9.74081C15.7334 10.1045 15.912 10.4386 16.1742 10.7008C16.4364 10.9631 16.7705 11.1416 17.1342 11.214C17.4979 11.2863 17.8749 11.2492 18.2175 11.1073C18.5601 10.9654 18.853 10.7251 19.059 10.4167C19.265 10.1084 19.375 9.74586 19.375 9.37502C19.375 8.87773 19.1775 8.40082 18.8258 8.04919C18.4742 7.69756 17.9973 7.50002 17.5 7.50002Z" fill="#919191"/>
<path d="M17.5 35C14.0388 35 10.6554 33.9737 7.77753 32.0507C4.89967 30.1278 2.65665 27.3947 1.33212 24.197C0.00758243 20.9993 -0.338976 17.4806 0.336265 14.0859C1.01151 10.6913 2.67822 7.57306 5.12564 5.12564C7.57306 2.67822 10.6913 1.01151 14.0859 0.336265C17.4806 -0.338976 20.9993 0.00758243 24.197 1.33212C27.3947 2.65665 30.1278 4.89967 32.0507 7.77753C33.9737 10.6554 35 14.0388 35 17.5C35 22.1413 33.1563 26.5925 29.8744 29.8744C26.5925 33.1563 22.1413 35 17.5 35ZM17.5 2.50001C14.5333 2.50001 11.6332 3.37974 9.16645 5.02796C6.69972 6.67618 4.77713 9.01887 3.64181 11.7598C2.5065 14.5006 2.20945 17.5166 2.78823 20.4264C3.36701 23.3361 4.79562 26.0088 6.89341 28.1066C8.99119 30.2044 11.6639 31.633 14.5737 32.2118C17.4834 32.7906 20.4994 32.4935 23.2403 31.3582C25.9811 30.2229 28.3238 28.3003 29.972 25.8336C31.6203 23.3668 32.5 20.4667 32.5 17.5C32.5 13.5218 30.9197 9.70645 28.1066 6.89341C25.2936 4.08036 21.4783 2.50001 17.5 2.50001Z" fill="#919191"/>
</svg>
