<svg width="32" height="32" viewBox="0 0 32 32" fill="none" xmlns="http://www.w3.org/2000/svg">
<path d="M8.44912 27.2C7.88108 27.2 7.39761 27.0019 6.99868 26.6055C6.59956 26.2089 6.4 25.7284 6.4 25.164V9.36293C6.4 8.79853 6.59956 8.31813 6.99868 7.92172C7.39761 7.52513 7.88198 7.32683 8.45184 7.32683H10.2377V5.65565C10.2377 5.42032 10.3219 5.21894 10.4904 5.0515C10.6587 4.88386 10.8625 4.80005 11.1017 4.80005C11.341 4.80005 11.5448 4.88386 11.7133 5.0515C11.8816 5.21894 11.9658 5.42032 11.9658 5.65565V7.32683H20.8805V5.63266C20.8805 5.40509 20.9627 5.20938 21.1273 5.04553C21.2918 4.88187 21.4898 4.80005 21.7214 4.80005C21.9529 4.80005 22.1509 4.88187 22.3156 5.04553C22.4801 5.20938 22.5623 5.40509 22.5623 5.63266V7.32683H24.3482C24.918 7.32683 25.4024 7.52513 25.8013 7.92172C26.2004 8.31813 26.4 8.79853 26.4 9.36293V25.164C26.4 25.7284 26.2004 26.2089 25.8013 26.6055C25.4024 27.0019 24.9189 27.2 24.3509 27.2H8.44912ZM8.45184 25.5288H24.3482C24.4407 25.5288 24.5255 25.4906 24.6025 25.4142C24.6796 25.3376 24.7182 25.2532 24.7182 25.1612V14.1196H8.08184V25.1612C8.08184 25.2532 8.1204 25.3376 8.19752 25.4142C8.27448 25.4906 8.35928 25.5288 8.45184 25.5288ZM8.08184 12.4484H24.7182V9.36565C24.7182 9.27389 24.6796 9.18965 24.6025 9.11301C24.5255 9.03637 24.4407 8.99805 24.3482 8.99805H8.45184C8.35928 8.99805 8.27448 9.03637 8.19752 9.11301C8.1204 9.18965 8.08184 9.27389 8.08184 9.36565V12.4484ZM16.4015 18.55C16.1124 18.55 15.8666 18.45 15.6642 18.2501C15.4619 18.05 15.3607 17.8064 15.3607 17.5191C15.3607 17.2316 15.4614 16.9873 15.6628 16.7862C15.8639 16.5853 16.1092 16.4849 16.3985 16.4849C16.6876 16.4849 16.9334 16.5848 17.1358 16.7847C17.3381 16.9846 17.4393 17.2283 17.4393 17.5158C17.4393 17.8032 17.3386 18.0475 17.1372 18.2484C16.9361 18.4494 16.6908 18.55 16.4015 18.55ZM11.5928 18.55C11.3037 18.55 11.0579 18.45 10.8556 18.2501C10.6532 18.05 10.552 17.8064 10.552 17.5191C10.552 17.2316 10.6527 16.9873 10.8541 16.7862C11.0552 16.5853 11.3005 16.4849 11.5898 16.4849C11.8789 16.4849 12.1246 16.5848 12.327 16.7847C12.5294 16.9846 12.6306 17.2283 12.6306 17.5158C12.6306 17.8032 12.5299 18.0475 12.3286 18.2484C12.1274 18.4494 11.8822 18.55 11.5928 18.55ZM21.2102 18.55C20.9211 18.55 20.6754 18.45 20.473 18.2501C20.2706 18.05 20.1694 17.8064 20.1694 17.5191C20.1694 17.2316 20.2701 16.9873 20.4714 16.7862C20.6726 16.5853 20.9178 16.4849 21.2072 16.4849C21.4963 16.4849 21.7421 16.5848 21.9444 16.7847C22.1468 16.9846 22.248 17.2283 22.248 17.5158C22.248 17.8032 22.1473 18.0475 21.9459 18.2484C21.7448 18.4494 21.4995 18.55 21.2102 18.55ZM16.4015 23.2362C16.1124 23.2362 15.8666 23.1363 15.6642 22.9364C15.4619 22.7365 15.3607 22.4928 15.3607 22.2053C15.3607 21.9178 15.4614 21.6736 15.6628 21.4728C15.8639 21.2717 16.1092 21.1712 16.3985 21.1712C16.6876 21.1712 16.9334 21.2711 17.1358 21.4709C17.3381 21.6711 17.4393 21.9148 17.4393 22.202C17.4393 22.4895 17.3386 22.7338 17.1372 22.9349C16.9361 23.1358 16.6908 23.2362 16.4015 23.2362ZM11.5928 23.2362C11.3037 23.2362 11.0579 23.1363 10.8556 22.9364C10.6532 22.7365 10.552 22.4928 10.552 22.2053C10.552 21.9178 10.6527 21.6736 10.8541 21.4728C11.0552 21.2717 11.3005 21.1712 11.5898 21.1712C11.8789 21.1712 12.1246 21.2711 12.327 21.4709C12.5294 21.6711 12.6306 21.9148 12.6306 22.202C12.6306 22.4895 12.5299 22.7338 12.3286 22.9349C12.1274 23.1358 11.8822 23.2362 11.5928 23.2362ZM21.2102 23.2362C20.9211 23.2362 20.6754 23.1363 20.473 22.9364C20.2706 22.7365 20.1694 22.4928 20.1694 22.2053C20.1694 21.9178 20.2701 21.6736 20.4714 21.4728C20.6726 21.2717 20.9178 21.1712 21.2072 21.1712C21.4963 21.1712 21.7421 21.2711 21.9444 21.4709C22.1468 21.6711 22.248 21.9148 22.248 22.202C22.248 22.4895 22.1473 22.7338 21.9459 22.9349C21.7448 23.1358 21.4995 23.2362 21.2102 23.2362Z" fill="#2B519D"/>
</svg>
