<svg width="24" height="19" viewBox="0 0 24 19" fill="none" xmlns="http://www.w3.org/2000/svg">
<path d="M23.3333 2.66667H0.666667C0.29848 2.66667 0 2.36819 0 2V0.666667C0 0.29848 0.29848 0 0.666667 0H23.3333C23.7015 0 24 0.29848 24 0.666667V2C24 2.36819 23.7015 2.66667 23.3333 2.66667ZM20 10V8.66667C20 8.29853 19.7015 8 19.3333 8H4.66667C4.29848 8 4 8.29853 4 8.66667V10C4 10.3681 4.29848 10.6667 4.66667 10.6667H19.3333C19.7015 10.6667 20 10.3681 20 10ZM16 16.6667V18C16 18.3681 15.7015 18.6667 15.3333 18.6667H8.66667C8.29848 18.6667 8 18.3681 8 18V16.6667C8 16.2985 8.29848 16 8.66667 16H15.3333C15.7015 16 16 16.2985 16 16.6667Z" fill="#222222"/>
</svg>
