<svg width="40" height="40" viewBox="0 0 40 40" fill="none" xmlns="http://www.w3.org/2000/svg">
<path d="M19.9995 21.7562L11.5445 30.2117C11.3137 30.4422 11.0236 30.5603 10.6741 30.5658C10.3249 30.5711 10.0295 30.4531 9.78786 30.2117C9.54648 29.97 9.42578 29.6772 9.42578 29.3333C9.42578 28.9894 9.54648 28.6967 9.78786 28.455L18.2433 20L9.78786 11.545C9.55731 11.3142 9.43925 11.024 9.4337 10.6746C9.42842 10.3254 9.54648 10.03 9.78786 9.78833C10.0295 9.54694 10.3223 9.42625 10.6662 9.42625C11.0101 9.42625 11.3029 9.54694 11.5445 9.78833L19.9995 18.2437L28.4545 9.78833C28.6854 9.55777 28.9755 9.43972 29.3249 9.43416C29.6741 9.42889 29.9695 9.54694 30.2112 9.78833C30.4526 10.03 30.5733 10.3228 30.5733 10.6667C30.5733 11.0106 30.4526 11.3033 30.2112 11.545L21.7558 20L30.2112 28.455C30.4418 28.6858 30.5598 28.976 30.5654 29.3254C30.5706 29.6746 30.4526 29.97 30.2112 30.2117C29.9695 30.4531 29.6768 30.5737 29.3329 30.5737C28.989 30.5737 28.6962 30.4531 28.4545 30.2117L19.9995 21.7562Z" fill="#2B519D"/>
</svg>
