<svg width="240" height="120" viewBox="0 0 240 120" fill="none" xmlns="http://www.w3.org/2000/svg">
<g clip-path="url(#clip0_1051_31316)">
<g clip-path="url(#clip1_1051_31316)">
<mask id="mask0_1051_31316" style="mask-type:luminance" maskUnits="userSpaceOnUse" x="0" y="0" width="240" height="120">
<path d="M240 0H0V120H240V0Z" fill="white"/>
</mask>
<g mask="url(#mask0_1051_31316)">
<path fill-rule="evenodd" clip-rule="evenodd" d="M120.545 0L0 119.929L240 120L120.545 0Z" fill="#919191"/>
<path fill-rule="evenodd" clip-rule="evenodd" d="M180.284 60.0113L76.9576 59.9622L73.7852 64.3999L184.713 64.4592L180.284 60.0113Z" fill="#FEFEFE"/>
<path fill-rule="evenodd" clip-rule="evenodd" d="M101.909 25.8989L146.313 25.8835L156.55 36.1664L94.3945 36.0937L101.909 25.8989Z" fill="#FEFEFE"/>
<path fill-rule="evenodd" clip-rule="evenodd" d="M56.0302 88.6558L54.6289 90.5903L210.778 90.6437L208.81 88.6669L56.0302 88.6558Z" fill="#FEFEFE"/>
<path fill-rule="evenodd" clip-rule="evenodd" d="M63.6816 78.2935L61.6953 80.991L201.168 80.9917L198.498 78.308L63.6816 78.2935Z" fill="#FEFEFE"/>
<path fill-rule="evenodd" clip-rule="evenodd" d="M67.8164 72.6251L192.856 72.641L189.888 69.6591L70.1416 69.4434L67.8164 72.6251Z" fill="#FEFEFE"/>
<path fill-rule="evenodd" clip-rule="evenodd" d="M84.2333 50.1392L80.2578 55.5777L175.873 55.5808L170.48 50.1617L84.2333 50.1392Z" fill="#FEFEFE"/>
<path fill-rule="evenodd" clip-rule="evenodd" d="M92.2821 39.1055L86.9805 46.35L166.667 46.3305L159.504 39.1362L92.2821 39.1055Z" fill="#FEFEFE"/>
<path fill-rule="evenodd" clip-rule="evenodd" d="M120.862 0.318604L103.242 24.1348L144.571 24.1359L120.862 0.318604Z" fill="#FEFEFE"/>
<path d="M208.727 95.5879C209.787 95.5879 210.822 95.7773 211.832 96.1567C212.842 96.5319 213.629 97.0723 214.193 97.7763C214.756 98.4769 215.038 99.2087 215.038 99.971C215.038 100.726 214.759 101.451 214.201 102.148C213.649 102.845 212.87 103.387 211.866 103.774C210.867 104.157 209.821 104.349 208.727 104.349C207.633 104.349 206.584 104.157 205.58 103.774C204.581 103.387 203.803 102.845 203.245 102.148C202.687 101.451 202.408 100.726 202.408 99.971C202.408 99.2087 202.69 98.4769 203.253 97.7763C203.822 97.0723 204.612 96.5319 205.622 96.1567C206.632 95.7773 207.667 95.5879 208.727 95.5879ZM208.727 96.3134C207.84 96.3134 206.975 96.4723 206.132 96.7893C205.295 97.1028 204.64 97.5537 204.166 98.1426C203.691 98.7266 203.454 99.3363 203.454 99.971C203.454 100.602 203.686 101.208 204.149 101.788C204.618 102.365 205.27 102.816 206.107 103.141C206.944 103.462 207.818 103.623 208.727 103.623C209.637 103.623 210.51 103.462 211.347 103.141C212.184 102.816 212.834 102.365 213.297 101.788C213.76 101.208 213.992 100.602 213.992 99.971C213.992 99.3363 213.755 98.7266 213.28 98.1426C212.812 97.5537 212.156 97.1028 211.313 96.7893C210.471 96.4723 209.609 96.3134 208.727 96.3134ZM205.957 102.392V97.6778H208.292C209.09 97.6778 209.667 97.7222 210.024 97.811C210.382 97.8963 210.666 98.0475 210.878 98.264C211.09 98.4811 211.196 98.7114 211.196 98.9548C211.196 99.2996 211.018 99.5992 210.661 99.8552C210.309 100.11 209.84 100.253 209.254 100.285C209.494 100.354 209.687 100.437 209.832 100.534C210.105 100.72 210.44 101.032 210.836 101.469L211.665 102.392H210.326L209.723 101.649C209.249 101.064 208.867 100.699 208.576 100.552C208.376 100.443 208.083 100.389 207.698 100.389H207.053V102.392H205.957ZM207.053 99.7386H208.384C209.02 99.7386 209.452 99.6727 209.681 99.5416C209.916 99.4099 210.033 99.2358 210.033 99.0186C210.033 98.8799 209.977 98.7557 209.865 98.6475C209.754 98.5352 209.598 98.4519 209.397 98.3978C209.201 98.3437 208.836 98.3167 208.3 98.3167H207.053V99.7386Z" fill="#FEFEFE"/>
<path fill-rule="evenodd" clip-rule="evenodd" d="M152.453 103.931C152.453 99.9816 156.654 97.241 159.502 97.1724H196.817V99.9351H164.131C161.757 99.7527 159.81 101.465 159.502 102.607H196.817V105.301H159.502C159.645 106.67 161.757 108.27 164.131 107.995H196.817V110.689H159.502C156.513 110.782 152.453 108.088 152.453 103.931Z" fill="#FEFEFE"/>
<path d="M90.1169 97.2866H83.6836V110.805H90.1169V97.2866Z" fill="#FEFEFE"/>
<path fill-rule="evenodd" clip-rule="evenodd" d="M107.755 105.393C98.3317 105.393 98.3317 97.2644 107.755 97.2644H145.07V100.027H112.383C107.755 100.027 107.755 102.699 112.383 102.699H138.066C147.561 102.699 147.561 110.782 138.066 110.782H100.706V108.088H133.367C138.068 108.088 138.068 105.394 133.367 105.394L107.755 105.393Z" fill="#FEFEFE"/>
<path fill-rule="evenodd" clip-rule="evenodd" d="M35.1679 101.181H28.6875V97.3047H37.7259H49.7261H63.96H66.0023L66.5622 97.3144L66.991 97.3359L67.2945 97.3588L67.6305 97.3928L67.9282 97.4295L68.1919 97.4691L68.491 97.5218L68.8476 97.5953L69.1865 97.6772L69.5623 97.7847L69.9837 97.9262L70.2784 98.042L70.6468 98.2071L71.049 98.4201L71.3246 98.5886L71.6163 98.7946L72.0127 99.1297L72.3339 99.4702L72.6419 99.8989L72.8599 100.33L72.9985 100.76L64.4581 100.76L64.2105 100.592L63.9011 100.453L63.3898 100.287L62.9124 100.185L62.4644 100.122L61.9237 100.081L61.4816 100.067H57.7301H48.9908H35.1679V101.181Z" fill="#FEFEFE"/>
<path fill-rule="evenodd" clip-rule="evenodd" d="M35.164 101.175H28.6836V104.349V110.816H35.164V105.426H38.5177H49.5851H54.3666L65.9984 110.816H73.0476L61.3701 105.426H65.9984L66.5156 105.418L67.0328 105.391L67.6178 105.339L68.1099 105.273L68.5652 105.194L69.0397 105.089L69.5009 104.964L69.9783 104.804L70.4041 104.633L70.8624 104.413L71.3796 104.103L71.8467 103.748L72.3315 103.258L72.6365 102.835L72.8664 102.377L73.0108 101.897L73.0638 101.485L73.0653 101.101L72.9945 100.754L64.4556 100.753L64.6752 100.966L64.7798 101.093L64.8225 101.25L64.8387 101.448L64.768 101.684L64.628 101.892L64.3687 102.102L64.1713 102.233L63.8692 102.357L63.321 102.528L62.8186 102.629L62.241 102.697L61.3701 102.732H35.164V101.175Z" fill="#FEFEFE"/>
</g>
</g>
</g>
<defs>
<clipPath id="clip0_1051_31316">
<rect width="240" height="120" fill="white"/>
</clipPath>
<clipPath id="clip1_1051_31316">
<rect width="240" height="120" fill="white"/>
</clipPath>
</defs>
</svg>
