<svg width="193" height="100" viewBox="0 0 193 100" fill="none" xmlns="http://www.w3.org/2000/svg">
<path fill-rule="evenodd" clip-rule="evenodd" d="M96.9013 0L0 99.9411L192.926 100L96.9013 0Z" fill="#2B519D"/>
<path fill-rule="evenodd" clip-rule="evenodd" d="M144.921 50.0094L61.8615 49.9684L59.3113 53.6665L148.482 53.716L144.921 50.0094Z" fill="#FEFEFE"/>
<path fill-rule="evenodd" clip-rule="evenodd" d="M81.9183 21.5824L117.613 21.5696L125.842 30.1387L75.8774 30.0781L81.9183 21.5824Z" fill="#FEFEFE"/>
<path fill-rule="evenodd" clip-rule="evenodd" d="M45.0386 73.8796L43.9121 75.4922L169.434 75.5365L167.852 73.889L45.0386 73.8796Z" fill="#FEFEFE"/>
<path fill-rule="evenodd" clip-rule="evenodd" d="M51.1904 65.2448L49.5938 67.4925L161.71 67.4933L159.564 65.2567L51.1904 65.2448Z" fill="#FEFEFE"/>
<path fill-rule="evenodd" clip-rule="evenodd" d="M54.5145 60.5206L155.029 60.5343L152.643 58.0492L56.3836 57.8691L54.5145 60.5206Z" fill="#FEFEFE"/>
<path fill-rule="evenodd" clip-rule="evenodd" d="M67.7107 41.7827L64.515 46.3148L141.376 46.3173L137.041 41.8014L67.7107 41.7827Z" fill="#FEFEFE"/>
<path fill-rule="evenodd" clip-rule="evenodd" d="M74.1803 32.5879L69.9185 38.625L133.976 38.6088L128.218 32.6135L74.1803 32.5879Z" fill="#FEFEFE"/>
<path fill-rule="evenodd" clip-rule="evenodd" d="M97.1558 0.265503L82.9918 20.1123L116.214 20.1132L97.1558 0.265503Z" fill="#FEFEFE"/>
<path d="M170.198 80.627C171.455 80.627 172.681 80.8603 173.877 81.3272C175.073 81.7892 176.004 82.4537 176.673 83.3206C177.339 84.1828 177.673 85.0831 177.673 86.0212C177.673 86.95 177.343 87.8438 176.682 88.7008C176.028 89.5579 175.105 90.2246 173.916 90.701C172.733 91.173 171.494 91.4087 170.198 91.4087C168.903 91.4087 167.661 91.173 166.471 90.701C165.288 90.2246 164.366 89.5579 163.705 88.7008C163.044 87.8438 162.713 86.95 162.713 86.0212C162.713 85.0831 163.047 84.1828 163.715 83.3206C164.389 82.4537 165.324 81.7892 166.52 81.3272C167.717 80.8603 168.943 80.627 170.198 80.627ZM170.198 81.5201C169.147 81.5201 168.123 81.7154 167.126 82.106C166.134 82.4918 165.357 83.0468 164.796 83.7707C164.234 84.49 163.954 85.2402 163.954 86.0212C163.954 86.798 164.227 87.5433 164.776 88.2578C165.331 88.9672 166.105 89.5221 167.096 89.9224C168.087 90.3177 169.121 90.5157 170.198 90.5157C171.276 90.5157 172.31 90.3177 173.301 89.9224C174.293 89.5221 175.063 88.9672 175.611 88.2578C176.16 87.5433 176.434 86.798 176.434 86.0212C176.434 85.2402 176.154 84.49 175.592 83.7707C175.037 83.0468 174.26 82.4918 173.262 82.106C172.264 81.7154 171.243 81.5201 170.198 81.5201ZM166.917 89.0005V83.1991H169.683C170.628 83.1991 171.313 83.2539 171.736 83.3635C172.158 83.4683 172.495 83.6541 172.746 83.9208C172.998 84.1876 173.124 84.471 173.124 84.7711C173.124 85.195 172.912 85.5645 172.489 85.8786C172.072 86.1928 171.518 86.3695 170.824 86.407C171.108 86.4933 171.335 86.5957 171.507 86.7144C171.832 86.9431 172.227 87.3264 172.697 87.8651L173.678 89.0005H172.092L171.378 88.0862C170.816 87.3674 170.364 86.9167 170.02 86.7357C169.782 86.6025 169.435 86.5359 168.979 86.5359H168.216V89.0005H166.917ZM168.216 85.7352H169.792C170.545 85.7352 171.058 85.655 171.329 85.4928C171.606 85.3307 171.745 85.1164 171.745 84.8496C171.745 84.6782 171.679 84.5257 171.547 84.3924C171.415 84.2543 171.23 84.1518 170.992 84.0852C170.761 84.0185 170.327 83.9851 169.694 83.9851H168.216V85.7352Z" fill="#FEFEFE"/>
<path fill-rule="evenodd" clip-rule="evenodd" d="M122.548 86.6094C122.548 83.3176 125.925 81.0341 128.214 80.9769H158.21V83.2792H131.935C130.026 83.1273 128.462 84.5538 128.214 85.5056H158.21V87.7507H128.214C128.329 88.8921 130.026 90.2246 131.935 89.9959H158.21V92.241H128.214C125.811 92.3187 122.548 90.0727 122.548 86.6094Z" fill="#FEFEFE"/>
<path d="M72.4405 81.0725H67.269V92.3375H72.4405V81.0725Z" fill="#FEFEFE"/>
<path fill-rule="evenodd" clip-rule="evenodd" d="M86.6173 87.8276C79.0426 87.8276 79.0426 81.0537 86.6173 81.0537H116.613V83.3561H90.3378C86.6173 83.3561 86.6173 85.5824 90.3378 85.5824H110.983C118.616 85.5824 118.616 92.3187 110.983 92.3187H80.9508V90.0736H107.206C110.985 90.0736 110.985 87.8284 107.206 87.8284L86.6173 87.8276Z" fill="#FEFEFE"/>
<path fill-rule="evenodd" clip-rule="evenodd" d="M28.2686 84.3181H23.0593V81.087H30.3249H39.9713H51.4134H53.0551L53.5052 81.0955L53.8499 81.1135L54.0939 81.1323L54.3639 81.1604L54.6032 81.1912L54.8152 81.2244L55.0557 81.268L55.3423 81.3294L55.6147 81.3977L55.9168 81.4874L56.2556 81.6052L56.4924 81.7016L56.7886 81.8391L57.1119 82.0166L57.3334 82.1575L57.568 82.3291L57.8866 82.6082L58.1448 82.8917L58.3924 83.2493L58.5677 83.6079L58.679 83.9673L51.8137 83.9664L51.6148 83.8264L51.366 83.7112L50.955 83.5729L50.5712 83.4875L50.2111 83.4354L49.7764 83.4004L49.4211 83.3893H46.4054H39.3802H28.2686V84.3181Z" fill="#FEFEFE"/>
<path fill-rule="evenodd" clip-rule="evenodd" d="M28.2651 84.3122H23.0557V86.9577V92.346H28.2651V87.8549H30.961H39.8576H43.7012L53.0515 92.346H58.7181L49.3311 87.8549H53.0515L53.4673 87.8481L53.883 87.8259L54.3533 87.7823L54.7489 87.7277L55.1149 87.6611L55.4963 87.574L55.8671 87.4699L56.2508 87.3367L56.5931 87.1942L56.9615 87.0106L57.3773 86.752L57.7527 86.4566L58.1424 86.0485L58.3876 85.6951L58.5724 85.3144L58.6885 84.914L58.7311 84.5709L58.7323 84.2507L58.6755 83.9613L51.8114 83.9605L51.9879 84.138L52.072 84.2439L52.1063 84.3754L52.1194 84.5401L52.0625 84.7365L51.95 84.9098L51.7415 85.0848L51.5828 85.194L51.34 85.2973L50.8993 85.4399L50.4954 85.5235L50.0311 85.5807L49.3311 85.6098H28.2651V84.3122Z" fill="#FEFEFE"/>
</svg>
