<svg width="167" height="120" viewBox="0 0 167 120" fill="none" xmlns="http://www.w3.org/2000/svg">
<g clip-path="url(#clip0_431_376)">
<mask id="mask0_431_376" style="mask-type:luminance" maskUnits="userSpaceOnUse" x="0" y="0" width="167" height="120">
<path d="M167 0H0V120H167V0Z" fill="white"/>
</mask>
<g mask="url(#mask0_431_376)">
<path fill-rule="evenodd" clip-rule="evenodd" d="M83.8794 0L0 119.929L167 120L83.8794 0Z" fill="#2B519D"/>
<path fill-rule="evenodd" clip-rule="evenodd" d="M125.445 60.0112L53.5473 59.962L51.3398 64.3997L128.527 64.4591L125.445 60.0112Z" fill="#FEFEFE"/>
<path fill-rule="evenodd" clip-rule="evenodd" d="M70.9088 25.8988L101.806 25.8834L108.929 36.1663L65.6797 36.0936L70.9088 25.8988Z" fill="#FEFEFE"/>
<path fill-rule="evenodd" clip-rule="evenodd" d="M38.9868 88.6555L38.0117 90.5906L146.666 90.6439L145.296 88.6668L38.9868 88.6555Z" fill="#FEFEFE"/>
<path fill-rule="evenodd" clip-rule="evenodd" d="M44.3118 78.2937L42.9297 80.9909L139.979 80.992L138.121 78.308L44.3118 78.2937Z" fill="#FEFEFE"/>
<path fill-rule="evenodd" clip-rule="evenodd" d="M47.1875 72.6247L134.194 72.6411L132.129 69.6591L48.8054 69.4429L47.1875 72.6247Z" fill="#FEFEFE"/>
<path fill-rule="evenodd" clip-rule="evenodd" d="M58.6101 50.1392L55.8438 55.5777L122.376 55.5808L118.623 50.1617L58.6101 50.1392Z" fill="#FEFEFE"/>
<path fill-rule="evenodd" clip-rule="evenodd" d="M64.2124 39.1053L60.5234 46.3499L115.972 46.3304L110.988 39.1361L64.2124 39.1053Z" fill="#FEFEFE"/>
<path fill-rule="evenodd" clip-rule="evenodd" d="M84.1004 0.318604L71.8398 24.1348L100.598 24.1359L84.1004 0.318604Z" fill="#FEFEFE"/>
<path d="M147.167 96.6665C148.227 96.6665 149.262 96.9399 150.272 97.4867C151.282 98.028 152.069 98.8064 152.632 99.8219C153.196 100.832 153.478 101.886 153.478 102.986C153.478 104.074 153.199 105.12 152.641 106.124C152.088 107.129 151.31 107.91 150.305 108.468C149.307 109.02 148.26 109.296 147.167 109.296C146.073 109.296 145.024 109.02 144.02 108.468C143.021 107.91 142.243 107.129 141.685 106.124C141.127 105.12 140.848 104.074 140.848 102.986C140.848 101.886 141.129 100.832 141.693 99.8219C142.262 98.8064 143.052 98.028 144.062 97.4867C145.072 96.9399 146.107 96.6665 147.167 96.6665ZM147.167 97.7127C146.28 97.7127 145.415 97.9415 144.572 98.399C143.735 98.851 143.08 99.5011 142.605 100.349C142.131 101.192 141.894 102.071 141.894 102.986C141.894 103.895 142.125 104.768 142.589 105.605C143.057 106.437 143.71 107.087 144.547 107.556C145.384 108.019 146.257 108.25 147.167 108.25C148.076 108.25 148.95 108.019 149.787 107.556C150.624 107.087 151.274 106.437 151.737 105.605C152.2 104.768 152.431 103.895 152.431 102.986C152.431 102.071 152.194 101.192 151.72 100.349C151.251 99.5011 150.596 98.851 149.753 98.399C148.911 97.9415 148.048 97.7127 147.167 97.7127ZM144.396 106.476V99.6796H146.732C147.53 99.6796 148.107 99.7438 148.464 99.8721C148.821 99.9949 149.106 100.212 149.318 100.525C149.53 100.837 149.636 101.169 149.636 101.521C149.636 102.018 149.457 102.45 149.1 102.818C148.749 103.187 148.28 103.393 147.694 103.438C147.934 103.538 148.127 103.658 148.272 103.798C148.545 104.065 148.88 104.515 149.276 105.145L150.105 106.476H148.765L148.163 105.405C147.689 104.562 147.306 104.035 147.016 103.823C146.815 103.666 146.522 103.588 146.137 103.588H145.493V106.476H144.396ZM145.493 102.651H146.824C147.46 102.651 147.892 102.556 148.121 102.366C148.355 102.177 148.473 101.926 148.473 101.613C148.473 101.412 148.417 101.234 148.305 101.077C148.194 100.916 148.037 100.796 147.836 100.717C147.641 100.639 147.276 100.6 146.74 100.6H145.493V102.651Z" fill="#FEFEFE"/>
<path fill-rule="evenodd" clip-rule="evenodd" d="M106.078 103.931C106.078 99.9812 109.001 97.2409 110.983 97.1723H136.948V99.9351H114.204C112.552 99.7528 111.197 101.465 110.983 102.607H136.948V105.301H110.983C111.083 106.671 112.552 108.27 114.204 107.995H136.948V110.689H110.983C108.903 110.782 106.078 108.087 106.078 103.931Z" fill="#FEFEFE"/>
<path d="M62.707 97.287H58.2305V110.805H62.707V97.287Z" fill="#FEFEFE"/>
<path fill-rule="evenodd" clip-rule="evenodd" d="M74.9763 105.393C68.4194 105.393 68.4194 97.2645 74.9763 97.2645H100.941V100.027H78.1968C74.9763 100.027 74.9763 102.699 78.1968 102.699H96.0679C102.675 102.699 102.675 110.782 96.0679 110.782H70.0712V108.088H92.7982C96.0689 108.088 96.0689 105.394 92.7982 105.394L74.9763 105.393Z" fill="#FEFEFE"/>
<path fill-rule="evenodd" clip-rule="evenodd" d="M24.4702 101.182H19.9609V97.3044H26.2502H34.6003H44.5047H45.9258L46.3154 97.3147L46.6138 97.3362L46.825 97.3587L47.0588 97.3925L47.2659 97.4294L47.4494 97.4694L47.6576 97.5216L47.9057 97.5954L48.1415 97.6773L48.403 97.7849L48.6962 97.9263L48.9013 98.042L49.1576 98.2069L49.4375 98.42L49.6292 98.589L49.8322 98.7949L50.108 99.1299L50.3316 99.47L50.5459 99.8992L50.6976 100.329L50.794 100.761L44.8513 100.76L44.679 100.592L44.4637 100.453L44.1079 100.287L43.7757 100.185L43.4641 100.123L43.0878 100.081L42.7802 100.067H40.1697H34.0886H24.4702V101.182Z" fill="#FEFEFE"/>
<path fill-rule="evenodd" clip-rule="evenodd" d="M24.4663 101.175H19.957V104.349V110.815H24.4663V105.426H26.7999H34.501H37.8281L45.9219 110.815H50.827L42.7014 105.426H45.9219L46.2818 105.418L46.6417 105.391L47.0487 105.339L47.3912 105.273L47.708 105.193L48.0381 105.089L48.359 104.964L48.6912 104.804L48.9876 104.633L49.3064 104.413L49.6663 104.102L49.9913 103.748L50.3287 103.258L50.5409 102.834L50.7008 102.377L50.8013 101.897L50.8382 101.485L50.8393 101.101L50.79 100.754L44.8484 100.753L45.0012 100.966L45.074 101.093L45.1037 101.25L45.115 101.448L45.0658 101.684L44.9684 101.892L44.7879 102.102L44.6505 102.233L44.4403 102.357L44.0589 102.528L43.7093 102.628L43.3074 102.697L42.7014 102.732H24.4663V101.175Z" fill="#FEFEFE"/>
</g>
</g>
<defs>
<clipPath id="clip0_431_376">
<rect width="167" height="120" fill="white"/>
</clipPath>
</defs>
</svg>
