<svg width="240" height="173" viewBox="0 0 240 173" fill="none" xmlns="http://www.w3.org/2000/svg">
<g clip-path="url(#clip0_270_25313)">
<path fill-rule="evenodd" clip-rule="evenodd" d="M120.545 0L0 172.898L240 173L120.545 0Z" fill="#919191"/>
<path fill-rule="evenodd" clip-rule="evenodd" d="M180.284 86.5162L76.9576 86.4453L73.7852 92.843L184.713 92.9286L180.284 86.5162Z" fill="#FEFEFE"/>
<path fill-rule="evenodd" clip-rule="evenodd" d="M101.909 37.3375L146.313 37.3153L156.55 52.1398L94.3945 52.035L101.909 37.3375Z" fill="#FEFEFE"/>
<path fill-rule="evenodd" clip-rule="evenodd" d="M56.0302 127.812L54.6289 130.601L210.778 130.678L208.81 127.828L56.0302 127.812Z" fill="#FEFEFE"/>
<path fill-rule="evenodd" clip-rule="evenodd" d="M63.6816 112.873L61.6953 116.762L201.168 116.763L198.498 112.894L63.6816 112.873Z" fill="#FEFEFE"/>
<path fill-rule="evenodd" clip-rule="evenodd" d="M67.8164 104.701L192.856 104.724L189.888 100.425L70.1416 100.114L67.8164 104.701Z" fill="#FEFEFE"/>
<path fill-rule="evenodd" clip-rule="evenodd" d="M84.2333 72.2839L80.2578 80.1245L175.873 80.1289L170.48 72.3164L84.2333 72.2839Z" fill="#FEFEFE"/>
<path fill-rule="evenodd" clip-rule="evenodd" d="M92.2821 56.377L86.9805 66.8212L166.667 66.7931L159.504 56.4213L92.2821 56.377Z" fill="#FEFEFE"/>
<path fill-rule="evenodd" clip-rule="evenodd" d="M120.862 0.459351L103.242 34.7944L144.571 34.7959L120.862 0.459351Z" fill="#FEFEFE"/>
<path d="M208.727 137.806C209.787 137.806 210.822 138.079 211.832 138.626C212.842 139.167 213.629 139.946 214.193 140.961C214.756 141.971 215.038 143.026 215.038 144.125C215.038 145.213 214.759 146.259 214.201 147.264C213.649 148.268 212.87 149.049 211.866 149.607C210.867 150.16 209.821 150.436 208.727 150.436C207.633 150.436 206.584 150.16 205.58 149.607C204.581 149.049 203.803 148.268 203.245 147.264C202.687 146.259 202.408 145.213 202.408 144.125C202.408 143.026 202.69 141.971 203.253 140.961C203.822 139.946 204.612 139.167 205.622 138.626C206.632 138.079 207.667 137.806 208.727 137.806ZM208.727 138.852C207.84 138.852 206.975 139.081 206.132 139.538C205.295 139.99 204.64 140.64 204.166 141.489C203.691 142.331 203.454 143.21 203.454 144.125C203.454 145.035 203.686 145.908 204.149 146.745C204.618 147.576 205.27 148.226 206.107 148.695C206.944 149.158 207.818 149.39 208.727 149.39C209.637 149.39 210.51 149.158 211.347 148.695C212.184 148.226 212.834 147.576 213.297 146.745C213.76 145.908 213.992 145.035 213.992 144.125C213.992 143.21 213.755 142.331 213.28 141.489C212.812 140.64 212.156 139.99 211.313 139.538C210.471 139.081 209.609 138.852 208.727 138.852ZM205.957 147.615V140.819H208.292C209.09 140.819 209.667 140.883 210.024 141.011C210.382 141.134 210.666 141.352 210.878 141.664C211.09 141.977 211.196 142.309 211.196 142.66C211.196 143.157 211.018 143.589 210.661 143.958C210.309 144.326 209.84 144.532 209.254 144.577C209.494 144.677 209.687 144.797 209.832 144.937C210.105 145.205 210.44 145.654 210.836 146.284L211.665 147.615H210.326L209.723 146.544C209.249 145.701 208.867 145.174 208.576 144.962C208.376 144.806 208.083 144.728 207.698 144.728H207.053V147.615H205.957ZM207.053 143.79H208.384C209.02 143.79 209.452 143.695 209.681 143.506C209.916 143.316 210.033 143.065 210.033 142.752C210.033 142.552 209.977 142.373 209.865 142.217C209.754 142.055 209.598 141.935 209.397 141.857C209.201 141.779 208.836 141.74 208.3 141.74H207.053V143.79Z" fill="#FEFEFE"/>
<path fill-rule="evenodd" clip-rule="evenodd" d="M152.453 149.834C152.453 144.14 156.654 140.189 159.502 140.09H196.817V144.073H164.131C161.757 143.81 159.81 146.278 159.502 147.925H196.817V151.809H159.502C159.645 153.783 161.757 156.089 164.131 155.693H196.817V159.577H159.502C156.513 159.711 152.453 155.826 152.453 149.834Z" fill="#FEFEFE"/>
<path d="M90.1169 140.255H83.6836V159.744H90.1169V140.255Z" fill="#FEFEFE"/>
<path fill-rule="evenodd" clip-rule="evenodd" d="M107.755 151.942C98.3317 151.942 98.3317 140.223 107.755 140.223H145.07V144.206H112.383C107.755 144.206 107.755 148.058 112.383 148.058H138.066C147.561 148.058 147.561 159.711 138.066 159.711H100.706V155.827H133.367C138.068 155.827 138.068 151.943 133.367 151.943L107.755 151.942Z" fill="#FEFEFE"/>
<path fill-rule="evenodd" clip-rule="evenodd" d="M35.1679 145.87H28.6875V140.281H37.7259H49.7261H63.96H66.0023L66.5622 140.295L66.991 140.326L67.2945 140.359L67.6305 140.408L67.9282 140.461L68.1919 140.518L68.491 140.594L68.8476 140.7L69.1865 140.818L69.5623 140.973L69.9837 141.177L70.2784 141.344L70.6468 141.582L71.049 141.889L71.3246 142.132L71.6163 142.429L72.0127 142.912L72.3339 143.403L72.6419 144.021L72.8599 144.642L72.9985 145.263L64.4581 145.262L64.2105 145.02L63.9011 144.82L63.3898 144.581L62.9124 144.433L62.4644 144.343L61.9237 144.283L61.4816 144.264H57.7301H48.9908H35.1679V145.87Z" fill="#FEFEFE"/>
<path fill-rule="evenodd" clip-rule="evenodd" d="M35.164 145.86H28.6836V150.437V159.759H35.164V151.989H38.5177H49.5851H54.3666L65.9984 159.759H73.0476L61.3701 151.989H65.9984L66.5156 151.977L67.0328 151.939L67.6178 151.863L68.1099 151.769L68.5652 151.654L69.0397 151.503L69.5009 151.323L69.9783 151.092L70.4041 150.846L70.8624 150.528L71.3796 150.081L71.8467 149.57L72.3315 148.864L72.6365 148.253L72.8664 147.594L73.0108 146.901L73.0638 146.308L73.0653 145.754L72.9945 145.253L64.4556 145.252L64.6752 145.559L64.7798 145.742L64.8225 145.969L64.8387 146.254L64.768 146.594L64.628 146.894L64.3687 147.197L64.1713 147.386L63.8692 147.564L63.321 147.811L62.8186 147.956L62.241 148.055L61.3701 148.105H35.164V145.86Z" fill="#FEFEFE"/>
</g>
<defs>
<clipPath id="clip0_270_25313">
<rect width="240" height="173" fill="white"/>
</clipPath>
</defs>
</svg>
